<?xml version="1.0" encoding="UTF-8"?>
<svg width="480" height="480" version="1.1" viewBox="0 0 127 127" xmlns="http://www.w3.org/2000/svg" xmlns:cc="http://creativecommons.org/ns#" xmlns:dc="http://purl.org/dc/elements/1.1/" xmlns:rdf="http://www.w3.org/1999/02/22-rdf-syntax-ns#">
 <metadata>
  <rdf:RDF>
   <cc:Work rdf:about="">
    <dc:format>image/svg+xml</dc:format>
    <dc:type rdf:resource="http://purl.org/dc/dcmitype/StillImage"/>
    <dc:title/>
   </cc:Work>
  </rdf:RDF>
 </metadata>
 <path d="m60.069 119.5-0.52019-0.0761-1.3241-0.018-1.1823-0.1477-1.1823-0.14772-2.3645-0.39297-1.0404-0.15-1.3241-0.30066-0.85123-0.172-0.26625-0.10132-0.26626-0.10144h-0.41329l-1.6079-0.48524-0.52019-0.1493-0.5202-0.14931-0.85123-0.28201-0.85123-0.28203-0.56749-0.1502-1.3241-0.48957-0.18917-0.0811-0.18916-0.0811-0.35788-0.15498-0.35788-0.15499h-0.19147l-1.4573-0.67894-0.66206-0.28538-1.797-0.88915-1.797-0.88917-0.75664-0.42887-1.5133-0.82953-0.89895-0.63341h-0.09428l-2.9792-2.0144-1.1823-0.90804-1.1823-0.90805-0.85123-0.70473-0.85123-0.70474-0.46975-0.43023-0.46975-0.43024-1.6142-1.533-1.1396-1.1724-1.1396-1.1724-0.80625-0.94579-0.80625-0.94581-0.62311-0.76637-0.62311-0.7664-0.88742-1.2198-0.88741-1.2198-0.46554-0.70936-0.46554-0.70936-0.09775-0.1575-0.09775-0.1575-0.92597-1.482-0.47077-0.85123-0.14544-0.18924-0.39782-0.75636-0.39781-0.75664-0.45304-0.89853-0.45303-0.89852-0.20995-0.4729-0.20994-0.47291-0.18299-0.37832-0.18299-0.37833-0.57573-1.4187-0.36012-0.89852-0.36012-0.89853-0.37791-1.135-0.3779-1.135-0.49226-1.7025-0.13502-0.42561-0.13503-0.42561-0.1509-0.66206-0.15091-0.66207-0.088027-0.37833-0.088027-0.37832-0.1377-0.61478-0.1377-0.61477-0.10903-0.66207-0.10903-0.66206-0.13115-0.70936-0.13116-0.70936-0.14493-1.2768-0.14493-1.2768-0.11569-1.135-0.11569-1.135-4.692e-4 -3.3103-4.692e-4 -3.3103 0.12003-1.1823 0.12004-1.1823 0.13926-1.2295 0.13926-1.2296 0.27092-1.4187 0.10065-0.61477 0.10065-0.61478 0.14663-0.66206 0.14662-0.66207 0.23147-0.9931 0.23148-0.9931 0.15086-0.5202 0.15086-0.52019 0.045466-0.14187 0.045578-0.14187 0.21857-0.75666 0.21858-0.75664 0.11811-0.33103 0.11812-0.33104 0.22812-0.66206 0.22812-0.66207 0.37864-0.9931 0.37864-0.9931 0.13464-0.29804 0.13465-0.29803v-0.11708l0.77207-1.6514 1.725-3.4995 1.161-1.8945 0.07798-0.21962 1.4187-2.1954 1.0165-1.4168 1.0165-1.4168 1.342-1.6528 2.1514-2.4731 1.825-1.79 1.8251-1.7893 1.2285-1.0272 1.2285-1.0272 2.5215-1.8904 2.5858-1.7342 2.2699-1.345 0.94581-0.52981 3.2157-1.6307 1.0404-0.43893 0.85123-0.37371 0.37832-0.15996 0.85123-0.36833 0.85123-0.29757 1.6079-0.58024 0.85123-0.27846 0.85123-0.27845 1.5133-0.44874 1.135-0.30412 2.0808-0.48263 0.85123-0.17695 1.5133-0.28336 0.89852-0.14265 0.89852-0.14264 1.7025-0.20018 2.8864-0.28202 6.95-0.0013182 1.5133 0.1428 1.5133 0.14281 1.6079 0.1984 1.7025 0.27963 1.135 0.18745 1.4187 0.29812 1.9862 0.45919 0.47291 0.13288 0.4729 0.13289 1.135 0.31587 0.56749 0.1698 1.5133 0.48819 0.66206 0.23611 0.66207 0.23612 0.35468 0.13481 0.35468 0.13482 0.80394 0.30965 0.80188 0.35242h0.10702l1.0773 0.47143 0.18916 0.08278 3.6887 1.8036 0.5202 0.29555 0.52019 0.29555 0.85123 0.51552 0.28374 0.13696 0.18948 0.11452 0.18946 0.11451 0.61447 0.37236 0.61447 0.37237 1.4187 0.9471 2.3645 1.6991 0.33104 0.2627 0.33103 0.2627 2.3645 1.9325 2.0808 1.9316 2.2938 2.3398 0.46097 0.5253 0.46099 0.52529 1.0625 1.2193 0.55655 0.70936 0.55653 0.70936 0.56729 0.73573 0.25299 0.3415 0.25298 0.34149 1.2911 1.8491 0.14187 0.22478 0.14187 0.22479 0.70049 1.1206 0.70047 1.1206 0.23672 0.42561 0.23671 0.42562 0.40606 0.66206 1.7244 3.4995 0.46306 1.0404 0.61168 1.5133 0.13852 0.33103 0.13851 0.33104 0.1628 0.37832 0.19053 0.56749 0.19054 0.56749 0.64744 1.8916 0.164 0.56749 0.16402 0.56748 0.0767 0.28374 0.0768 0.28374 0.14 0.4729 0.14001 0.4729 0.11502 0.56749 0.11504 0.56748 0.1818 0.56749 0.0811 0.42561 0.0811 0.42562 0.1471 0.80394 0.14711 0.80394 0.38758 2.5537 0.0919 0.70936 0.0918 0.70936 0.0543 0.75664 0.0543 0.75664 0.1716 1.7025 5e-5 2.4591 5e-5 2.4591-0.18824 1.9389-0.18825 1.9389-0.1682 1.6079-0.11015 0.61477-0.11014 0.61477-0.1404 0.80394-0.14041 0.80394-0.0984 0.4729-0.0983 0.4729-0.22712 0.9931-0.2271 0.9931-0.14975 0.5202-0.14976 0.5202-0.157 0.56748-0.16125 0.56749-0.16127 0.56748-0.28156 0.85123-0.28158 0.85123-0.0767 0.18916-0.0768 0.18916-0.15923 0.47291-0.15922 0.4729-0.0791 0.18916-0.0791 0.18917-0.29691 0.75664-0.29692 0.75664-0.0767 0.18917-0.0768 0.18916-0.38904 0.85123-0.29745 0.66207-0.29745 0.66206-0.35577 0.70936-0.35578 0.70936-0.42899 0.80394-0.42897 0.80394-0.40264 0.66206-0.0645 0.14187-0.0645 0.14187-1.5184 2.4591-0.57674 0.85123-0.57674 0.85123-1.0295 1.4187-1.5817 1.9862-0.19787 0.23644-0.19787 0.23646-0.70491 0.80394-0.70493 0.80393-2.1335 2.1754-1.6692 1.6255-1.0396 0.88971-1.0395 0.8897-1.3169 1.025-1.3169 1.025-1.5888 1.0794-1.5888 1.0794h-0.09316l-1.0802 0.75667h-0.16154l-0.4001 0.25299-0.40009 0.25301-0.56748 0.31856-0.56749 0.31855-3.1212 1.5556-0.4729 0.2071-0.4729 0.20709-1.135 0.49722-0.56748 0.24199-0.85123 0.32884-0.32847 0.1698h-0.21046l-0.29804 0.13602-0.29803 0.13601-1.2768 0.43757-1.2768 0.43754-1.7025 0.44398-0.94581 0.30816-0.85123 0.1636-1.2768 0.30177-1.2768 0.29705-1.0404 0.1494-2.3645 0.38412-1.7025 0.22952-2.3645 0.1798-6.4315 0.0656zm8.1573-40.694 0.02391-15.251 8.4102-0.04938 0.07943-0.07943 0.07931-0.07943 0.13383-1.3147 0.13382-1.3147 0.09674-0.85123 0.14603-1.3714 0.14602-1.3714 0.18388-1.6079 0.11171-1.0404 0.11171-1.0404 0.0156-0.47291-9.5383-0.04222-0.08278-0.12079-0.08267-0.12079 0.0563-3.263 0.0563-3.263 0.103-0.47291 0.103-0.4729 0.17218-0.34278 0.17217-0.34278 0.59862-0.5037 0.68652-0.29914 1.135-0.2547 6.4676-0.0068 0.10902-0.1765v-10.262l-0.08725-0.08725-0.08725-0.08724-10.375 0.09718-2.0808 0.28499-0.9458 0.19304-1.0404 0.28408-0.66206 0.19795-0.18917 0.08579-0.18916 0.08568-1.2444 0.56846-1.4019 0.89862-0.60318 0.57722-0.60319 0.57722-0.43265 0.56021-0.43266 0.56021-0.44074 0.8585-0.44075 0.8585-0.21433 0.61477-0.21432 0.61477-0.13157 0.5202-0.13157 0.5202-0.40077 2.1754-0.05887 4.4453-0.05887 4.4453-6.1316 0.05004-0.12632 0.10478-0.12631 0.10478 0.0011 5.0721 0.0011 5.0721 0.07429 0.1169 0.07429 0.11692 6.2328 0.04993 0.02335 15.133 0.02335 15.133 0.04468 0.11823 0.04468 0.11822h12.679z" fill="#39579a" stroke-width=".094581"/>
</svg>
