<?xml version="1.0" encoding="UTF-8"?>
<svg width="712" height="1005" version="1.1" viewBox="0 0 188.38 265.91" xmlns="http://www.w3.org/2000/svg" xmlns:cc="http://creativecommons.org/ns#" xmlns:dc="http://purl.org/dc/elements/1.1/" xmlns:rdf="http://www.w3.org/1999/02/22-rdf-syntax-ns#">
 <metadata>
  <rdf:RDF>
   <cc:Work rdf:about="">
    <dc:format>image/svg+xml</dc:format>
    <dc:type rdf:resource="http://purl.org/dc/dcmitype/StillImage"/>
    <dc:title/>
   </cc:Work>
  </rdf:RDF>
 </metadata>
 <g transform="translate(-1.0199 1.5706)" stroke-width=".26458">
  <path d="m94.167 264.08-0.92605-0.35697 0.79375 0.17203 0.79375 0.17206 1.1906-0.0688v0.197l-0.92604 0.24172zm-3.3073-0.88135-0.52916-0.22738h0.79375l1.0583 0.45476h-0.79375zm7.6729 0 0.52917-0.22738h0.79375l-1.0583 0.45476h-0.79375zm-11.112-0.93345-1.0583-0.3488 0.52916-2.1e-4 0.52917-1.9e-4 1.8521 0.71321-0.79375-0.016-1.0583-0.3488zm14.023 0.17534 0.52917-0.23156 0.92604-0.16794 0.92604-0.16793-0.52917 0.23157-0.52916 0.23156-1.8521 0.33586zm-17.727-1.2362-1.0583-0.36616 1.8521 0.31247 0.52917 0.21347 0.52917 0.21349-0.39688-3e-3 -0.39687-4e-3 -1.0583-0.36616zm21.431 0.15978 0.52916-0.21347 1.8521-0.32861-0.92605 0.37444-0.92604 0.37441-1.0583 6e-3 0.52917-0.21349zm-24.342-0.95353-1.0583-0.36616 1.8521 0.31247 0.52916 0.21347 0.52917 0.21349-0.39687-3e-3 -0.39688-4e-3 -1.0583-0.36616zm27.252 0.17788 0.52917-0.23157 1.8521-0.33586-1.0583 0.46313-1.8521 0.33586zm-31.089-1.2263-0.92604-0.3566 0.52916-0.0322 2.3812 0.7503-1.0583-6e-3 -0.92604-0.35661zm35.454 0 0.92604-0.3566h0.79375l-1.8521 0.71321h-0.79375zm-38.761-0.92604-0.52917-0.22738h0.79375l0.52917 0.22738 0.52916 0.22738h-0.79375zm42.069 0 0.52917-0.22738h0.79375l-1.0583 0.45476h-0.79375zm-44.979-0.79375-0.52917-0.22738h0.79375l1.0583 0.45476h-0.79375zm47.89 0 0.52916-0.22738h0.79375l-0.52916 0.22738-0.52917 0.22738h-0.79375zm1.6702-0.44532 0.34726-0.13896 0.15986 0.15983 0.15985 0.15987-1.0142-0.0418 0.34727-0.13896zm-53.264-0.61301-0.52916-0.22739h0.79375l1.0583 0.45477h-0.79375zm55.298 0 0.52917-0.22739 1.0583 0.016-1.3229 0.42365-0.79375 0.016 0.52916-0.22739zm-56.538-0.44532 0.34727-0.13896 0.15985 0.15983 0.15985 0.15986-1.0142-0.0418 0.34727-0.13896zm-2.1994-0.49067-1.0583-0.36616 1.8521 0.31247 0.52917 0.21347 0.52916 0.21349-0.39687-3e-3 -0.39688-4e-3 -1.0583-0.36616zm61.648 0.17788 0.52917-0.23157 1.8521-0.33586-1.0583 0.46313-1.8521 0.33586zm-65.088-1.094-0.52917-0.22738h1.0583l0.52917 0.22738 0.52917 0.22739h-1.0583zm68.924 0 0.66146-0.21182 0.79375-0.016-1.0583 0.45477-1.0583-0.016zm-72.099-0.93599-1.0583-0.36615 0.92605 0.15623 0.92604 0.15624 0.52916 0.21346 0.52917 0.2135-0.39687-3e-3 -0.39688-4e-3 -1.0583-0.36615zm75.539 0.0101 0.92604-0.35661h0.79375l-0.92604 0.35661-0.92604 0.3566h-0.79375zm-78.978-0.92605-0.52916-0.22738h0.79375l0.52916 0.22738 0.52917 0.22739h-0.79375zm82.285 0 0.52917-0.22738h0.79375l-1.0583 0.45477h-0.79375zm-85.99-1.0583-0.52917-0.22738h0.79375l0.52917 0.22738 0.52916 0.22738h-0.79375zm89.694 0 0.52917-0.22738 1.0583 0.016-1.3229 0.42366-0.79375 0.016 0.52917-0.22738zm-92.604-0.79375-0.52917-0.22738h0.79375l1.0583 0.45476h-0.79375zm95.515 0.0356 0.52916-0.23156 1.8521-0.33586-1.0583 0.46312-1.8521 0.33586zm-99.219-1.094-0.52916-0.22738h0.79375l1.0583 0.45476h-0.79375zm103.06 0 0.66146-0.21183 0.79375-0.016-0.52916 0.22738-0.52917 0.22738-1.0583-0.016 0.66145-0.21236zm-106.49-0.93599-1.0583-0.36616 1.8521 0.31247 0.52917 0.21347 0.52916 0.21349-0.39687-3e-3 -0.39688-4e-3 -1.0583-0.36616zm109.93-4e-3 1.1906-0.37515 0.52917 0.0322-0.92604 0.35661-0.92604 0.3566-1.0583 6e-3 1.1906-0.37515zm-113.37-0.91249-0.52917-0.22738h1.0583l1.0583 0.45476h-1.0583zm116.68 0 0.52917-0.22738h0.79375l-1.0583 0.45476h-0.79375zm-57.872-12.432-0.0713-12.168 0.99231 0.3151-0.19856-0.32127-0.19856-0.32128 1.1246 0.35694v-0.62144l0.39688 0.15229 0.39687 0.1523v-0.56993l1.3673 0.34316-0.1876-0.30353-0.18759-0.30354 1.1246 0.35694v-0.54822l0.39687 0.15229 0.39688 0.1523v-0.64747l1.3069 0.24983-0.31484-0.50942 1.1246 0.35694v-0.54822l0.39688 0.15229 0.39687 0.1523v-0.62144l1.0583 0.3359v-0.60048l1.0583 0.3359v-0.51529l1.1411 0.2984-0.17403-0.28159-0.17403-0.28158 0.5709 0.14929 0.57091 0.1493-0.42598-0.68925 0.69278 0.13243 0.69277 0.13244-0.16375-0.26495-0.16374-0.26495 1.4462 0.36296-0.15483-0.25051-0.15482-0.25051 0.5709 0.14929 0.57091 0.1493-0.17403-0.28159-0.17403-0.28158 0.52953 0.13847 0.52953 0.13848v-0.6526l1.0583 0.27676v-0.51529l1.1246 0.35693-0.39711-0.64255 1.1246 0.35694v-0.62654l0.52953 0.13847 0.52953 0.13848-0.34424-0.557 1.4462 0.36297-0.28564-0.46218h1.6108l0.21423-0.34662 0.21422-0.34662 0.55662 0.14555 0.55661 0.14556-0.16579-0.26825-0.16579-0.26826 1.1246 0.35694v-0.54822l0.39688 0.15229 0.39687 0.1523v-0.6424l0.7768 0.29809 0.16303-0.26379 0.16304-0.26379 0.5069 0.16088 0.5069 0.16089v-0.54822l0.39687 0.15229 0.39688 0.1523v-0.53624l1.1411 0.2984-0.42598-0.68925 0.69277 0.13243 0.69278 0.13244-0.33132-0.53608 1.1411 0.2984v-0.43009l1.1411 0.2984-0.2068-0.33461-0.20679-0.33461 1.1246 0.35694v-0.62654l1.0583 0.27676v-0.43009l1.1411 0.2984-0.17403-0.28159-0.17403-0.28158 0.52953 0.13847 0.52953 0.13848v-0.6526l0.52954 0.13847 0.52953 0.13848-0.34424-0.557 1.4462 0.36297-0.1876-0.30353-0.18759-0.30354 1.1909 0.37797-0.16579-0.26825-0.16579-0.26826 1.0591 0.27695v-0.64825l1.3673 0.34316-0.1876-0.30353-0.18759-0.30354 1.1909 0.37797-0.39711-0.64255 1.1246 0.35694v-0.62655l1.0591 0.27695-0.17212-0.27849-0.17212-0.2785 0.72309 0.18148 0.72309 0.18149-0.37519-0.60707 1.1246 0.35694v-0.54822l0.39688 0.15229 0.39687 0.1523v-0.64747l0.65346 0.12491 0.65345 0.12492-0.16769-0.27133-0.16769-0.27132 0.88056 0.3379v-0.80837l0.29973 0.18524 0.29974 0.18525-0.17909-1.5587-0.1791-1.5587 0.28841 0.39688 0.2884 0.39687-0.35852-3.6461 0.24072 0.14877 0.24071 0.14878-0.178-3.7952 0.60126 0.79375-0.26444-3.4038 0.52766 0.75795-0.16828-1.6792-0.16828-1.6792 0.26576 0.16424 0.26575 0.16425-0.31162-3.717h0.67877l-0.17045-1.5214-0.17046-1.5214 0.57256 0.79375-0.16828-1.6792-0.16828-1.6792 0.6211 0.38386-0.19217-1.6557-0.19217-1.6557 0.28551 0.17645 0.2855 0.17645-0.16543-1.7715-0.16542-1.7715 0.34716 0.21455 0.34717 0.21456-0.14765-1.6282-0.14764-1.6282 0.27815 0.1719 0.27815 0.17191-0.17876-1.6932-0.17875-1.6931 0.5459 0.79375-0.17083-1.9182-0.17084-1.9182h0.60978l-0.17586-1.4963-0.17587-1.4963 0.34789 0.215 0.34788 0.215-0.1719-1.6952-0.17191-1.6952 0.27433 0.39687 0.27433 0.39688-0.16228-1.8521-0.16227-1.8521 0.5659 0.79375-0.1747-1.9597-0.17469-1.9597 0.34846 0.21537 0.34849 0.21537-0.17175-1.6431-0.17174-1.6431 0.30324 0.18742 0.30327 0.18742-0.17804-1.5147-0.17801-1.5147 0.55726 0.3444-0.18259-1.7821-0.18258-1.7821 0.23915 0.14864 0.23916 0.14865-0.0901-1.7258-0.0901-1.7258 0.66109 0.40858-0.1719-1.6952-0.17193-1.6952 0.2775 0.39688 0.27749 0.39687-0.16295-1.7198-0.16296-1.7198 0.26371 0.38627 0.26371 0.38628-0.15737-2.0811-0.15741-2.0811 0.61177 0.37809v-1.0896l-86.386-0.128 31.353-0.1408v-23.543h56.885v-1.6187l0.54832 0.33888-0.16282-1.8075-0.1628-1.8075 0.27927 0.39687 0.27926 0.39688-0.16819-1.8276-0.16817-1.8276 0.6949 0.42947-0.17711-1.8267-0.17711-1.8267 0.28866 0.39688 0.28863 0.39687-0.16007-1.7198-0.16008-1.7198 0.24818 0.37328 0.24818 0.37329-8e-3 -1.9608-8e-3 -1.9608 0.0182-1.4134 0.0183-1.4134 0.64164 0.39655-0.1719-1.6952-0.17192-1.6952 0.27066 0.39688 0.27065 0.39687-0.1492-1.8521-118.1-0.1334-0.10675 0.86048-0.10676 0.86048-0.0423-0.99219-0.0424-0.99219h59.267v-23.283h77.012l-0.15293 1.2568-0.1529 1.2568-1.0511 11.906-1.0511 11.906-0.38716 4.3656-0.38717 4.3656-1.5883 17.727-1.5884 17.727-1.3312 14.949-1.3311 14.949-0.38867 4.3656-0.38865 4.3656-1.5876 17.727-1.5876 17.727-0.84066 9.6573-0.84068 9.6573-0.1388 0.1798-8.1105 2.2823-26.194 7.2472-27.488 7.621h-0.41505zm-61.984 11.496-1.0583-0.36616 1.8521 0.31248 0.52916 0.21346 0.52917 0.21349-0.39687-3e-3 -0.39688-4e-3 -1.0583-0.36616zm123.16 0.0101 0.92604-0.3566h0.79375l-1.8521 0.71321h-0.79375zm-124.93-0.57761 0.34726-0.13896 0.15986 0.15984 0.15985 0.15986-1.0142-0.0418 0.34727-0.13896zm-1.6702-0.34853-0.52916-0.22739h0.79375l1.0583 0.45477h-0.79375zm129.91 0.0356 0.52917-0.23157 1.8521-0.33586-1.0583 0.46313-1.8521 0.33586zm3.3073-0.94388 0.92605-0.37441 1.0583-6e-3 -0.52917 0.21349-0.52916 0.21347-1.8521 0.32861 0.92604-0.37444zm-136.92-0.1501-0.52917-0.22738h0.79375l0.52917 0.22738 0.52916 0.22739h-0.79375zm-2.9104-0.79375-0.52917-0.22738h0.79375l0.52917 0.22738 0.52917 0.22739h-0.79375zm143.14 0.0175 0.52916-0.21346 0.92604-0.16431 0.92605-0.1643-0.92605 0.37443-0.92604 0.37442-1.0583 6e-3 0.52917-0.2135zm-146.98-1.0758-0.66146-0.21183 1.0583-0.016 1.0583 0.45476-0.79375-0.016zm150.94 0 0.52916-0.22738h0.79375l-0.52916 0.22738-0.52917 0.22738h-0.79375zm-152.09-0.44098-0.17639-0.17637 0.0372-1.345 0.0373-1.345 0.185 1.4552 0.185 1.4552-0.0918 0.1322zm153.72-0.15433 0.20934-0.33073 0.16589-1.3229 0.1659-1.3229 0.0746 2.4703-0.3212 0.83704h-0.50377zm-154.1-4.2995 5e-3 -1.0583 0.11507 0.59841 0.11506 0.59838-0.1204 0.45996-0.12041 0.45992 5e-3 -1.0583zm154.78-0.26459 5e-3 -1.0583 0.11507 0.59841 0.11507 0.59838-0.12041 0.45995-0.12042 0.45993 5e-3 -1.0583zm-155.38-5.8208-0.35105-3.8382 0.1323-0.1323 0.1323-0.13229 0.34276 3.8465 0.34277 3.8465-0.12402 0.12401-0.12402 0.12402zm155.75 1.4552 0.1365-2.5135 0.20603-1.5875 0.20605-1.5875 0.016 2.1167-0.70094 6.0854zm-156.21-7.276 5e-3 -1.0583 0.11506 0.5984 0.11507 0.5984-0.12041 0.45993-0.1204 0.45994 5e-3 -1.0583zm156.9-0.26459 5e-3 -1.0583 0.11506 0.5984 0.11507 0.5984-0.12041 0.45993-0.12041 0.45994 5e-3 -1.0583zm-157.37-4.227-0.19068-2.5433 0.13229-0.1323 0.13229-0.13229 0.19069 2.5434 0.19068 2.5433-0.26458 0.26458zm157.63 1.1843-8e-3 -1.1906 0.19695-1.5875 0.19698-1.5875 0.0127 1.3229 0.0127 1.3229-0.40232 2.9104-8e-3 -1.1906zm-95.101-4.1495 0.34727-0.13897 0.15985 0.15985 0.15985 0.15986-1.0142-0.0418 0.34726-0.13896zm-62.854-1.5391 5e-3 -1.0583 0.11506 0.5984 0.11507 0.5984-0.12041 0.45993-0.1204 0.45994 5e-3 -1.0583zm158.49-0.26458 5e-3 -1.0583 0.11506 0.59839 0.11507 0.5984-0.12041 0.45994-0.12041 0.45993 5e-3 -1.0583zm-158.89-3.5719-0.18721-1.7198-0.12385-2.3812-0.12384-2.3812 0.77092 7.1438-0.1488 1.0583zm159.15 0.52916-6e-3 -0.92604 0.35047-3.0427 0.35046-3.0427-0.1329 2.5136-0.13292 2.5135-0.2113 1.4552-0.21129 1.4552-6e-3 -0.92604zm-113.09 0.0838 0.34726-0.13897 0.15986 0.15985 0.15985 0.15986-1.0142-0.0418 0.34727-0.13896zm-6.6146-1.8521 0.34727-0.13896 0.3197 0.3197-1.0142-0.0418 0.34726-0.13896zm-8.3753-3.2588v-0.66146l0.13345 0.33073 0.13346 0.33073-0.13346 0.33073-0.13345 0.33073zm-0.23963-2.7781 5e-3 -1.0583 0.11507 0.5984 0.11506 0.5984-0.1204 0.45993-0.12041 0.45994 5e-3 -1.0583zm-31.501-0.79375 0.01-0.79375 0.24394 0.93612-0.13177 0.32569-0.13178 0.32569 0.01-0.79375zm160.59-0.13229v-0.66146l0.13345 0.33073 0.13346 0.33073-0.13346 0.33073-0.13345 0.33073zm-161.04-4.2333-0.19145-2.6749 0.25425-0.25425 0.18976 2.6766 0.18975 2.6766-0.12543 0.12543-0.12543 0.12544zm31.679 1.8521v-0.92604l0.242 0.92604-0.242 0.92604zm129.65-0.52916-8e-3 -1.1906 0.19331-1.7198 0.1933-1.7198 0.0116 1.3229 0.0116 1.3229-0.19695 1.5875-0.19698 1.5875-8e-3 -1.1906zm-129.96-2.5356 0.0209-0.50712 0.13896 0.34726 0.13897 0.34727-0.3197 0.3197 0.0209-0.50711zm48.613-1.3493 0.34727-0.13896 0.3197 0.3197-1.0142-0.0418 0.34727-0.13897zm0.84336-18.472v-18.653h-52.621l-0.2453-0.39688 81.602 0.1356 0.112 2.2456-0.23565-0.35855-0.23566-0.35855 0.13732 1.9192 0.13732 1.9192-0.67769-0.41884 0.24556 2.9611-0.51564-0.31868 0.18696 1.6525 0.18697 1.6525-0.26576-0.16424-0.26575-0.16425 0.15928 1.9 0.15929 1.9-0.51373-0.31751 0.11283 1.4744 0.11284 1.4744-0.66668-0.41203 0.17876 1.6931 0.17875 1.6932-0.58042-0.79375 0.32454 3.7042-0.55461-0.79375 0.17469 1.9597 0.1747 1.9597-0.34687-0.21437-0.34686-0.21437 0.14764 1.6282 0.14764 1.6282-0.54123-0.3345 0.10425 1.0932 0.10425 1.0932-1.0723 0.0838-0.92605-0.0776v0.55859l-1.1246-0.35694 0.19856 0.32128 0.19856 0.32127-0.5623-0.17846-0.5623-0.17847v0.62654l-1.0583-0.27676v0.51529l-1.0583-0.3359v0.54821l-0.39687-0.15229-0.39688-0.1523v0.53625l-1.0583-0.27676v0.6526l-1.0583-0.27676v0.43008l-1.1411-0.2984 0.2068 0.33461 0.20679 0.33461-1.1246-0.35694v0.62655l-1.0583-0.27676v0.51528l-0.52917-0.16795-0.52916-0.16795v0.54822l-0.79375-0.30459v0.53624l-1.0583-0.27676v0.6526l-1.0583-0.27676v0.51529l-1.1246-0.35694 0.35834 0.5798-0.87465-0.33563-0.40584 0.65666-1.889 0.0536 0.29784 0.48192-1.1246-0.35693v0.51528l-1.1411-0.2984 0.21299 0.34463 0.21299 0.34462-0.70079-0.13396-0.70078-0.13397v0.49145l-1.1246-0.35694 0.19856 0.32128 0.19856 0.32127-0.5623-0.17846-0.5623-0.17847v0.62144l-0.3884-0.14904-0.3884-0.14905-0.31276 0.50606h-0.49794zm-49.68 17.33v-0.92604l0.242 0.92604-0.242 0.92604zm-31.475-0.52916v-1.1906l0.11466 0.59531 0.11466 0.59532-0.22932 1.1906zm162.19-0.26459v-1.1906l0.11465 0.59531 0.11467 0.59531-0.11467 0.59531-0.11465 0.59532zm-130.97-2.249 5e-3 -1.0583 0.11506 0.5984 0.11507 0.5984-0.12041 0.45993-0.1204 0.45994 5e-3 -1.0583zm-31.476-1.0583 4e-3 -1.3229 0.11057 0.73125 0.11058 0.73124-0.11419 0.59167-0.11418 0.59168zm162.82-1.3229 0.13959-2.3812 0.22109-1.5875 0.22106-1.5875-0.13962 2.3812-0.1396 2.3812-0.22108 1.5875-0.22106 1.5875zm-163.27-2.4699-0.1955-2.4699 0.1286-0.1286 0.1286-0.12859 0.18705 2.2455 0.18705 2.2456-0.12015 0.35292-0.12016 0.35292zm31.619 1.3895 0.0209-0.50712 0.13896 0.34727 0.13897 0.34727-0.3197 0.3197 0.0209-0.50712zm-0.24369-2.4915v-0.66146l0.2669 0.66146-0.2669 0.66146zm23.837-0.39688 5e-3 -1.0583 0.11507 0.5984 0.11506 0.5984-0.1204 0.45993-0.12041 0.45994 5e-3 -1.0583zm-24.082-2.5135v-0.92604l0.242 0.92604-0.242 0.92604zm23.812-0.52916v-0.92605l0.121 0.46302 0.121 0.46303-0.242 0.92604zm-55.298-0.26459v-0.92604l0.242 0.92604-0.242 0.92604zm164.3-0.13229 0.01-0.79375 0.12197 0.46806 0.12198 0.46805-0.13179 0.3257-0.13176 0.32569 0.01-0.79375zm-133.08-2.249v-0.92604l0.242 0.92604-0.242 0.92604zm-31.795-3.3238-0.33283-3.8564 0.24638-0.24638 0.34277 3.8465 0.34276 3.8465-0.26625 0.26625zm55.588 3.3238v-0.66146l0.13345 0.33073 0.13346 0.33073-0.13346 0.33073-0.13345 0.33073zm109.56-0.79375-0.0101-1.1906 0.19696-1.5875 0.19698-1.5875 0.0101 1.1906 0.0101 1.1906-0.19696 1.5875-0.19698 1.5875zm-109.85-2.0064 0.0209-0.50712 0.13896 0.34727 0.13897 0.34726-0.15985 0.15986-0.15986 0.15985 0.0209-0.50712zm-0.21341-3.2852v-1.1906l0.11466 0.59531 0.11467 0.59532-0.11467 0.59531-0.11466 0.59531zm-23.843 0.26458v-0.66146l0.13346 0.33073 0.13345 0.33073-0.13345 0.33073-0.13346 0.33073zm134.44-0.66146 4e-3 -1.3229 0.11057 0.73125 0.11057 0.73124-0.1142 0.59167-0.11416 0.59168 4e-3 -1.3229zm-134.71-2.0505-0.0423-0.99219h24.077l-0.0307 0.59531-0.0307 0.59532-0.12101-0.46302-0.12099-0.46302h-23.476l-0.10671 0.85989-0.10672 0.8599zm-31.461-0.8599 5e-3 -1.0583 0.11506 0.5984 0.11507 0.5984-0.12041 0.45993-0.1204 0.45994 5e-3 -1.0583zm166.42-0.26458 5e-3 -1.0583 0.11506 0.59839 0.11507 0.5984-0.12041 0.45994-0.12041 0.45993 5e-3 -1.0583zm-166.89-4.227-0.19068-2.5434 0.26458-0.26458 0.19069 2.5433 0.19068 2.5434-0.26458 0.26458zm167.16 1.3166-0.0127-1.3229 0.20117-1.4552 0.20116-1.4552 8e-3 1.1906 8e-3 1.1906-0.19695 1.5875-0.19699 1.5875-0.0127-1.3229zm-167.48-5.8208 5e-3 -1.0583 0.11506 0.59839 0.11507 0.5984-0.12041 0.45994-0.1204 0.45993 5e-3 -1.0583zm168.01 0 5e-3 -1.0583 0.11506 0.59839 0.11507 0.5984-0.12041 0.45994-0.12041 0.45993 5e-3 -1.0583zm-168.61-5.8208-0.33442-3.8548 0.12482-0.12481 0.12482-0.12482 0.66566 7.7128-0.24646 0.24646zm168.88 2.5135v-1.1906l0.11465 0.59532 0.11467 0.59531-0.11467 0.59531-0.11465 0.59531zm0.26234-2.3812-8e-3 -1.1906 0.19331-1.7198 0.1933-1.7198 0.0116 1.3229 0.0116 1.3229-0.19695 1.5875-0.19698 1.5875-8e-3 -1.1906zm-137.63 0.11024 0.0209-0.50712 0.13897 0.34727 0.13896 0.34727-0.3197 0.3197 0.0209-0.50712zm-0.23389-2.6238 0.01-0.79375 0.12197 0.46805 0.12197 0.46806-0.13177 0.32569-0.13178 0.3257 0.01-0.79375zm-0.24944-2.9104 5e-3 -1.0583 0.11507 0.59839 0.11506 0.5984-0.1204 0.45994-0.12041 0.45993 5e-3 -1.0583zm-31.491-0.66146v-0.92604l0.242 0.92604-0.242 0.92604zm170.12-0.13229 0.01-0.79375 0.12197 0.46806 0.12197 0.46805-0.13178 0.3257-0.13177 0.32569 0.01-0.79375zm-170.58-4.3656-0.19145-2.6749 0.12712-0.12713 0.12713-0.12712 0.18976 2.6766 0.18975 2.6766-0.25086 0.25086zm31.669 1.9844 0.01-0.79375 0.12197 0.46806 0.12197 0.46805-0.13178 0.3257-0.13177 0.32569 0.01-0.79375zm139.19-0.66146-8e-3 -1.1906 0.19695-1.5875 0.19699-1.5875 0.0127 1.3229 0.0127 1.3229-0.20117 1.4552-0.20116 1.4552-8e-3 -1.1906zm-139.46-2.3812v-0.66146l0.13345 0.33073 0.13346 0.33073-0.13346 0.33073-0.13345 0.33073zm-0.24497-2.6458v-0.92604l0.242 0.92604-0.242 0.92604zm-31.48-0.39688 5e-3 -1.0583 0.23014 1.1968-0.12041 0.45993-0.12041 0.45994 5e-3 -1.0583zm171.72-0.13229v-1.1906l0.11465 0.59531 0.11467 0.59531-0.11467 0.59531-0.11465 0.59532zm-140.5-2.5135 5e-3 -1.0583 0.11506 0.59839 0.11507 0.5984-0.12041 0.45994-0.1204 0.45993 5e-3 -1.0583zm-31.817-3.7042-0.33442-3.8548 0.12481-0.12482 0.12482-0.12482 0.33284 3.8564 0.33283 3.8564-0.24646 0.24646zm172.58 2.5136v-1.1906l0.11464 0.59531 0.11467 0.59532-0.11467 0.59531-0.11464 0.59531zm0.26233-2.3812-8e-3 -1.1906 0.19331-1.7198 0.1933-1.7198 0.0116 1.3229 0.0117 1.3229-0.19696 1.5875-0.19698 1.5875-8e-3 -1.1906zm-141.32 0.26458v-0.66146l0.13345 0.33073 0.13346 0.33073-0.13346 0.33073-0.13345 0.33073zm-0.26458-2.6458v-0.66146l0.2669 0.66146-0.13345 0.33072-0.13345 0.33073zm23.837-0.39688 5e-3 -1.0583 0.11507 0.59839 0.11506 0.5984-0.1204 0.45994-0.12041 0.45993 5e-3 -1.0583zm-24.082-2.5135v-0.92604l0.242 0.92604-0.242 0.92604zm23.803-0.39688 0.01-0.79375 0.24394 0.93612-0.13178 0.32569-0.13177 0.32569 0.01-0.79375zm-55.298-0.26458 0.01-0.79375 0.12197 0.46806 0.12197 0.46805-0.13177 0.3257-0.13178 0.32569 0.01-0.79375zm173.83-0.26458 0.01-0.79375 0.12197 0.46805 0.12198 0.46806-0.13179 0.32569-0.13176 0.3257 0.01-0.79375zm-142.6-2.249v-0.92604l0.242 0.92604-0.242 0.92604zm-31.774-3.1346-0.33891-3.7961 0.30121-0.30121v0.98622l0.28931 2.9629 0.28931 2.9629-0.101 0.49069-0.10101 0.49069zm55.567 3.1346v-0.66146l0.13345 0.33073 0.13346 0.33073-0.13346 0.33073-0.13345 0.33073zm119.09-0.66146-0.0101-1.3229 0.19696-1.5875 0.19698-1.5875 0.0202 2.6458-0.19696 1.5875-0.19698 1.5875zm-119.37-2.1387 0.0209-0.50712 0.13896 0.34726 0.13897 0.34727-0.15985 0.15985-0.15986 0.15985 0.0209-0.50711zm-23.812-0.26459 0.0209-0.50712 0.13896 0.34727 0.13897 0.34726-0.15985 0.15986-0.15986 0.15985 0.0209-0.50712zm-0.23389-2.6238 0.01-0.79375 0.12197 0.46805 0.12197 0.46806-0.13178 0.32569-0.13177 0.3257 0.01-0.79375zm23.828-0.26459 5e-3 -1.0583 0.11506 0.5984 0.11507 0.5984-0.12041 0.45993-0.1204 0.45994 5e-3 -1.0583zm120.13-0.39687v-1.1906l0.11464 0.59532 0.11467 0.59531-0.11467 0.59531-0.11464 0.59531zm-144.2-2.249 5e-3 -1.0583 0.11507 0.59839 0.11507 0.5984-0.12041 0.45994-0.12041 0.45993 5e-3 -1.0583zm-31.808-3.7124-0.34276-3.8465 0.26466-0.26466 0.66884 7.7096-0.12399 0.12399-0.12398 0.12399zm55.596 3.3156v-0.66146l0.13345 0.33073 0.13346 0.33073-0.13346 0.33072-0.13345 0.33073zm120.69-0.79375v-1.4552l0.11023 0.7276 0.1102 0.72761-0.1102 0.7276-0.11023 0.7276zm-120.97-1.7418 0.0209-0.50712 0.13896 0.34726 0.13897 0.34727-0.15985 0.15985-0.15986 0.15985 0.0209-0.50711zm121.22-0.904-0.0127-1.1906 0.20117-1.4552 0.20116-1.4552 8e-3 1.0583 8e-3 1.0583-0.19695 1.5875-0.19699 1.5875-0.0127-1.1906zm-145.04 0.37483 0.0209-0.50712 0.13896 0.34727 0.13897 0.34726-0.31971 0.31971 0.0209-0.50712zm-0.23389-2.6238 0.01-0.79375 0.24394 0.93612-0.13178 0.32569-0.13177 0.32569 0.01-0.79375zm23.803 0.1323v-0.66146l0.13346 0.33073 0.13345 0.33073-0.13345 0.33072-0.13346 0.33073zm-24.057-2.9104v-0.92604l0.242 0.92604-0.242 0.92604zm-31.48-0.92604 5e-3 -1.0583 0.11506 0.5984 0.11507 0.5984-0.12041 0.45993-0.1204 0.45994 5e-3 -1.0583zm177.54 0 5e-3 -1.0583 0.11506 0.5984 0.11507 0.5984-0.12041 0.45993-0.12041 0.45994 5e-3 -1.0583zm-146.32-2.249v-0.92604l0.242 0.92604-0.242 0.92604zm-31.666-2.1299-0.18876-2.413 0.2493-0.2493 0.19082 2.4109 0.19081 2.4109-0.1267 0.1267-0.1267 0.12671zm178.25 1.3362-0.0101-1.1906 0.19696-1.5875 0.19698-1.5875 0.0101 1.1906 0.0101 1.1906-0.19695 1.5875-0.19699 1.5875zm-146.87-2.3812v-0.66146l0.13346 0.33073 0.13345 0.33073-0.13345 0.33073-0.13346 0.33073zm-31.712-3.175v-1.4552l0.11023 0.7276 0.11022 0.72761-0.11022 0.7276-0.11023 0.72761zm31.458 0.39687 0.01-0.79375 0.24394 0.93612-0.13177 0.32569-0.13178 0.32569 0.01-0.79375zm147.66-0.52916 4e-3 -1.3229 0.22114 1.4625-0.11419 0.59168-0.11417 0.59167 4e-3 -1.3229zm-147.91-2.1167 5e-3 -1.0583 0.11507 0.59839 0.11506 0.5984-0.1204 0.45994-0.12041 0.45993 5e-3 -1.0583zm-31.485-1.0583 5e-3 -1.0583 0.23014 1.1968-0.12041 0.45993-0.12041 0.45994 5e-3 -1.0583zm179.65 0 5e-3 -1.0583 0.23014 1.1968-0.12042 0.45993-0.12041 0.45994 5e-3 -1.0583zm-180.12-4.227-0.19068-2.5433 0.26458-0.26458 0.19068 2.5433 0.19069 2.5433-0.26459 0.26459zm31.666 1.7135v-0.66146l0.13346 0.33073 0.13345 0.33073-0.13345 0.33072-0.13346 0.33073zm148.72-0.39688-8e-3 -1.0583 0.19695-1.5875 0.19699-1.5875 0.0127 1.1906 0.0127 1.1906-0.20117 1.4552-0.20116 1.4552-8e-3 -1.0583zm-148.98-2.5135v-0.66146l0.13345 0.33073 0.13346 0.33073-0.13346 0.33073-0.13345 0.33073zm-31.73-3.175v-0.92604l0.242 0.92604-0.242 0.92604zm181.24-0.26458v-0.92605l0.121 0.46302 0.12099 0.46303-0.12099 0.46302-0.121 0.46302zm-181.83-5.9531-0.33442-3.8548 0.12481-0.12482 0.12482-0.12482 0.33284 3.8564 0.33283 3.8564-0.12323 0.12323-0.12323 0.12322zm182.09 2.9104-8e-3 -1.0583 0.70094-6.0854-0.13647 2.5135-0.1365 2.5135-0.20603 1.5875-0.20606 1.5875zm-182.57-8.7312 0.01-0.79375 0.12197 0.46805 0.12197 0.46806-0.13177 0.32569-0.13178 0.3257 0.01-0.79375zm183.36 0 0.01-0.79375 0.12197 0.46805 0.12198 0.46806-0.13179 0.32569-0.13176 0.3257 0.01-0.79375zm-183.79-4.3776-0.18975-2.6766 0.25086-0.25086 0.3829 5.3497-0.25425 0.25425zm184.07 1.4672-0.0116-1.3229 0.19696-1.5875 0.19698-1.5875 8e-3 1.1906 8e-3 1.1906-0.19331 1.7198-0.1933 1.7198-0.0117-1.3229zm-184.42-5.8208 5e-3 -1.0583 0.11507 0.5984 0.11506 0.5984-0.1204 0.45993-0.12041 0.45994 5e-3 -1.0583zm184.94 0 5e-3 -1.0583 0.23014 1.1968-0.12041 0.45993-0.12041 0.45994 5e-3 -1.0583zm-185.52-6.102-0.33283-3.8564 0.24646-0.24646 0.66884 7.7096-0.24964 0.24964zm185.9 1.3395 0.1396-2.3812 0.22108-1.5875 0.22106-1.5875-0.13962 2.3812-0.13959 2.3812-0.22109 1.5875-0.22106 1.5875zm-186.38-7.1438 5e-3 -1.0583 0.11506 0.5984 0.11507 0.5984-0.12041 0.45993-0.1204 0.45994 5e-3 -1.0583zm187.06-0.13229v-0.92605l0.121 0.46302 0.12099 0.46303-0.12099 0.46302-0.121 0.46302zm-187.39-2.607v-0.75493l-0.16999-1.6263-0.16998-1.6263h188.51l-0.18791 2.3151-0.1879 2.3151-0.27432 0.26458 0.17057-2.3151 0.17058-2.3151h-187.86l0.17287 2.249 0.17286 2.249h-0.34264zm20.174-20.345 3.1089-0.0838 6.2177 0.1676h-12.435zm25.995 2e-3 5.9533-0.0788v-35.699l-11.907-0.15746 12.039 0.0152v35.983l-12.039 0.016 5.9533-0.0787zm21.687-0.12996-0.12878-0.33572 0.1438-23.283 0.0633 11.84 0.0633 11.84h11.901l0.0729-11.84 0.0729-11.84-4e-3 11.906-4e-3 11.906-12.051 0.1422-0.12877-0.33571zm33.81 0.12978 5.7547-0.0788v-17.188l0.19844-1.8e-4 0.19844-1.77e-4 -0.1323 8.6653-0.13229 8.6653-11.642 0.016 5.7547-0.0788zm25.415-2e-3 3.1238-0.0839 5.9233 0.1686-12.171-5.3e-4 3.1238-0.0839zm22.229-5.3e-4 7.3609-0.0747 14.382 0.1496-29.104-1.5e-4zm4.7409-23.808-0.0633-11.967-12.039-0.15267 12.055-0.12185 0.12684 0.33073 0.12685 0.33073-0.0718 11.774-0.0718 11.774zm-30.582-12.044 0.12264-0.19844h12.373l0.24528 0.39688h-12.864zm-103.29-0.13144 3.1089-0.08379 6.2177 0.16759h-12.435zm45.527-7.41e-4 8.4196-0.07374 16.498 0.1476-33.338-1.14e-4zm33.201 5.56e-4 3.2563-0.08335 6.1874 0.16732-12.7-6.35e-4 3.2563-0.08335z" fill="#ea6528"/>
  <path d="m93.903 263.83-1.1906-0.31737-2.1167-0.59463-2.1167-0.59465-2.3812-0.66564-9.7896-2.691-2.9104-0.80129-6.35-1.7993-7.1438-1.9642-3.4396-0.9684-7.1438-1.9462-6.0854-1.7187-3.5719-0.99425-3.5719-0.99428-1.7198-0.48061-1.7198-0.48062-7.1438-1.9461-6.1993-1.789h-0.77652l-0.13211-0.46303-0.13212-0.46302-0.58614-6.8792-1.0505-11.642-0.39028-4.3656-0.39028-4.3656-0.41148-4.4979-0.41147-4.4979-0.49236-6.35-0.13757-1.0583-0.13757-1.0583-0.7656-9.2604-0.27933-3.0427-0.27934-3.0427-0.5352-5.9531-0.53521-5.9531-0.38674-4.3656-0.38675-4.3656-0.52297-5.8208-0.52298-5.8208-0.56728-6.0854-0.5083-6.6146-0.27395-2.5135-0.27394-2.5135-0.247-3.3073-0.247-3.3073-0.27164-2.7781-0.27165-2.7781-0.39939-4.3656-0.3994-4.3656-0.24842-3.0427-0.24842-3.0427-0.82022-8.9958-0.39358-4.3656-0.39359-4.3656-0.53231-5.9531-0.53231-5.9531-0.41552-4.7625-0.41551-4.7625-0.49553-5.424-0.49552-5.424-0.31914-4.101h187.9l-0.31914 4.101-0.49551 5.424-0.49554 5.424-0.4281 4.8948-0.42812 4.8948-0.50157 5.5562-0.5016 5.5562-0.40769 4.6302-0.4077 4.6302-0.53623 5.9531-0.53626 5.9531-0.52247 5.8208-0.5225 5.8208-0.82518 9.2604-0.37955 4.101-0.37951 4.101-0.27501 3.5719-0.27501 3.5719-0.13033 0.79375-0.13034 0.79375-0.24437 3.3073-0.24439 3.3073-0.41064 4.4979-0.41066 4.4979-0.39266 4.2333-0.39265 4.2333-0.54485 6.2177-0.54488 6.2177-0.50851 5.5562-0.5085 5.5562-0.42259 4.8948-0.42262 4.8948-0.50657 5.5562-0.5066 5.5562-0.42077 4.7625-0.42079 4.7625-0.49977 5.5562-0.49975 5.5562-0.31176 3.5719-0.31175 3.5719-0.20627 0.39688-0.20625 0.39687-3.6215 0.9724-3.4396 0.94581-7.1438 1.9729-3.175 0.9408-3.175 0.86456-9.7896 2.691-2.3812 0.66564-2.1167 0.59772-2.1167 0.5977-1.5875 0.40685-8.9958 2.497-0.52917 0.1371-0.52917 0.13714-6.35 1.7873-3.175 0.86164-3.4396 0.98398-9.7896 2.7167-1.5875 0.40206-3.7042 1.0176zm15.492-19.794 13.744-3.8105 26.194-7.2472 8.1105-2.2823 0.1388-0.1798 0.84068-9.6573 0.84066-9.6573 1.5876-17.727 1.5876-17.727 0.38865-4.3656 0.38867-4.3656 1.3311-14.949 1.3312-14.949 1.5884-17.727 1.5883-17.727 0.38717-4.3656 0.38716-4.3656 1.0511-11.906 1.0511-11.906 0.1529-1.2568 0.15293-1.2568h-77.012v23.283h-59.34l0.33764 2.7781 0.54736 6.35 0.39086 4.2333 0.39086 4.2333 0.2438 3.175 0.78606 8.4667 0.41586 4.6302 0.41587 4.6302 0.39659 4.3656 0.39658 4.3656 0.51742 6.6146 0.51328 4.7625 0.56618 7.1438 0.32014 2.9104 0.32013 2.9104 52.782 0.1348v37.256l-2.7781-0.67662-4.2333-1.1745-3.7042-0.98102-2.9104-0.81005-6.8792-1.8596-5.6598-1.4619-0.14305-0.52917-0.14305-0.52916-8e-3 -2.509-1.0214-10.191-0.35094-5.1594h-24.028l8e-3 0.59531 8e-3 0.59532 0.25095 1.9325 0.25094 1.9325 0.26847 3.4915 0.26845 3.4915 0.3896 4.101 0.38959 4.101 0.28256 3.175 0.28255 3.175 0.38724 4.7625 0.38725 4.7625 0.1327 0.57475 0.1327 0.57476 0.86002 0.25741 0.86001 0.25742 7.1438 1.9778 6.35 1.785 1.8521 0.50159 1.8521 0.5016 7.1438 1.9743 6.35 1.7822 3.175 0.8678 3.7042 1.0283 1.7198 0.48306 1.7198 0.48307 5.5562 1.5318 0.0688 12.09 0.0688 12.09h0.42012l13.744-3.8105zm-3.1893-23.442 0.52917-0.22739h0.79375l-1.0583 0.45478h-0.79375zm3.4396-0.93559 0.79375-0.36346 0.79375 0.016-1.8521 0.71323-0.52917-2e-3 0.79375-0.36345zm7.0115-1.9748 0.39688-0.25648 0.39687 0.0145 0.39688 0.0146-1.0583 0.45478-0.26458 0.0145-0.26458 0.0146zm7.3587-2.0328 0.34727-0.13896 0.3197 0.3197-1.0142-0.0418 0.34726-0.13896zm2.9104-0.79375 0.34727-0.13896 0.3197 0.3197-1.0142-0.0418 0.34726-0.13896zm3.0923-0.87759 0.52917-0.22739h0.79375l-1.0583 0.45478h-0.79375zm3.8365-1.0583 0.39687-0.25648 0.39688 0.0146 0.39687 0.0145-0.52916 0.22739-0.52917 0.22739-0.52917 0.0292zm9.851-3.7042v-0.92604l0.12101 0.46302 0.121 0.46302-0.121 0.46302-0.12101 0.46302zm0.26459-2.3812v-0.92604l0.242 0.92604-0.242 0.92604zm0.54345-6.7469 4e-3 -1.3229 0.11058 0.73124 0.11057 0.73124-0.11418 0.59168-0.11419 0.59167 4e-3 -1.3229zm0.25564-2.3812 5e-3 -1.0583 0.23014 1.1968-0.12041 0.45993-0.12041 0.45994 5e-3 -1.0583zm-44.831-0.31303 0.34727-0.13896 0.3197 0.3197-1.0142-0.0418 0.34726-0.13896zm4.1507-1.1422 0.52917-0.2274 0.26458-0.0145 0.26459-0.0146-0.39688 0.2565-0.39687 0.25647-0.39688-0.0145-0.39687-0.0146 0.52916-0.22739zm2.7285-0.70991 0.34726-0.13896 0.15986 0.15985 0.15985 0.15985-1.0142-0.0418 0.34727-0.13897zm38.191-0.34843v-0.66146l0.13346 0.33073 0.13345 0.33073-0.13345 0.33073-0.13346 0.33073zm-33.429-0.97449 0.34726-0.13896 0.15986 0.15985 0.15985 0.15985-1.0142-0.0418 0.34727-0.13896zm2.1167-0.52916 0.34727-0.13897 0.15985 0.15985 0.15985 0.15986-1.0142-0.0418 0.34726-0.13896zm31.602-2.5974 5e-3 -1.0583 0.11507 0.59839 0.11506 0.5984-0.1204 0.45994-0.12041 0.45993 5e-3 -1.0583zm-24.077-0.26458 5e-3 -1.0583 0.23014 1.1968-0.12041 0.45993-0.1204 0.45994 5e-3 -1.0583zm24.342-2.1167 5e-3 -1.0583 0.11507 0.59839 0.11507 0.5984-0.12041 0.45994-0.12041 0.45993 5e-3 -1.0583zm-24.068-0.52917 4e-3 -1.3229 0.11058 0.73124 0.11057 0.73124-0.11418 0.59168-0.11419 0.59167 4e-3 -1.3229zm24.327-2.249v-0.92605l0.121 0.46302 0.121 0.46303-0.242 0.92604zm-24.087-1.7198 0.01-0.79375 0.24394 0.93612-0.13177 0.32569-0.13178 0.32569 0.01-0.79375zm24.332-0.92604v-0.66146l0.2669 0.66146-0.2669 0.66146zm-24.052-1.7198 5e-3 -1.0583 0.11507 0.59839 0.11507 0.5984-0.12041 0.45994-0.1204 0.45993 5e-3 -1.0583zm24.351-2.1167 4e-3 -1.3229 0.11057 0.73124 0.11058 0.73124-0.11419 0.59168-0.11419 0.59167 4e-3 -1.3229zm-24.086-0.52916 5e-3 -1.0583 0.11506 0.5984 0.11507 0.5984-0.1204 0.45993-0.12041 0.45994 5e-3 -1.0583zm24.342-2.1167 5e-3 -1.0583 0.11507 0.59839 0.11507 0.5984-0.12041 0.45994-0.1204 0.45993 5e-3 -1.0583zm0.24944-2.3812 0.01-0.79375 0.12197 0.46806 0.12197 0.46805-0.13178 0.3257-0.13177 0.32569 0.01-0.79375zm-24.087-1.9844v-0.66146l0.13346 0.33073 0.13345 0.33073-0.13345 0.33072-0.13346 0.33073zm24.342-1.5875v-0.66146l0.13345 0.33073 0.13346 0.33073-0.13346 0.33072-0.13345 0.33073zm-24.052-0.92605 5e-3 -1.0583 0.11506 0.5984 0.11507 0.5984-0.1204 0.45993-0.12041 0.45994 5e-3 -1.0583zm0.27354-2.3812 4e-3 -1.3229 0.22114 1.4625-0.11418 0.59168-0.11419 0.59167 4e-3 -1.3229zm24.073 0.1323v-1.1906l0.11466 0.59531 0.11466 0.59532-0.22932 1.1906zm0.2539-2.3812v-0.92605l0.12101 0.46302 0.121 0.46303-0.121 0.46302-0.12101 0.46302zm-24.118-2.0064 0.0209-0.50712 0.13897 0.34727 0.13896 0.34727-0.3197 0.3197 0.0209-0.50712zm24.372-0.7717 0.01-0.79375 0.12197 0.46806 0.12198 0.46805-0.13178 0.3257-0.13178 0.32569 0.01-0.79375zm0.28508-3.8365v-1.1906l0.11464 0.59531 0.11467 0.59531-0.11467 0.59531-0.11464 0.59532zm0.25924-2.7781 5e-3 -1.0583 0.23014 1.1968-0.12042 0.45993-0.12041 0.45994 5e-3 -1.0583zm0.24942-2.3812 0.01-0.79375 0.12197 0.46805 0.12198 0.46806-0.13179 0.32569-0.13176 0.3257 0.01-0.79375zm0.54967-6.7469v-1.1906l0.11465 0.59531 0.11467 0.59531-0.11467 0.59531-0.11465 0.59532zm0.2539-2.3812v-0.92604l0.12099 0.46302 0.121 0.46302-0.121 0.46302-0.12099 0.46302zm0.24498-2.3812v-0.66146l0.13345 0.33073 0.13346 0.33073-0.13346 0.33073-0.13345 0.33073zm0.26458-3.7042v-0.66146l0.13345 0.33073 0.13346 0.33073-0.13346 0.33072-0.13345 0.33073zm-86.031-2.0443v-1.2506l-1.0241-10.596-0.42653-4.7625-0.42654-4.7625-0.1662-1.1906 90.282 0.1299-57.018 0.137v23.546h-31.221zm88.422-24.282 0.01-0.79375 0.24394 0.93612-0.13179 0.32569-0.13176 0.32569 0.01-0.79375zm0.25479-2.7781v-0.66146l0.13346 0.33073 0.13345 0.33073-0.13345 0.33073-0.13346 0.33073zm0.29488-3.7042v-1.1906l0.11464 0.59531 0.11467 0.59531-0.11467 0.59532-0.11464 0.59531zm0.25924-2.7781 5e-3 -1.0583 0.23014 1.1968-0.12042 0.45994-0.12041 0.45993 5e-3 -1.0583zm0.24942-2.3812 0.01-0.79375 0.12197 0.46805 0.12198 0.46806-0.13179 0.32569-0.13176 0.3257 0.01-0.79375zm0.54967-6.7469v-1.1906l0.11465 0.59531 0.11467 0.59531-0.11467 0.59532-0.11465 0.59531zm0.2539-2.3812v-0.92604l0.12099 0.46302 0.121 0.46302-0.121 0.46302-0.12099 0.46302zm-16.87-74.612v-17.859l0.1466 17.859-0.1466 17.859z" fill="#e14e26"/>
  <path d="m18.496 16.472v-17.859h12.171v11.642h10.848v-11.642h11.906v35.719h-11.906v-11.906h-10.848v11.906h-12.171zm50.8 5.9531v-11.906h-10.583v-11.906h33.073v11.906h-10.583v23.813h-11.906zm27.781-5.9531v-17.859l12.568 0.0178 6.6146 10.912 0.95564 1.5672 7.5332-12.365 12.545-0.14186v35.728h-11.906v-17.536l-8.0698 12.501-0.4687-0.1482-4.1303-6.3261-3.8677-6.0553-0.0697 8.7824-0.0697 8.7824h-11.635zm46.302 0v-17.859h11.906v23.805l16.801 0.1398 0.1424 11.774h-28.85z" fill="#242222"/>
 </g>
</svg>
