<?xml version="1.0" encoding="UTF-8" standalone="no"?>
<svg
   xmlns:dc="http://purl.org/dc/elements/1.1/"
   xmlns:cc="http://creativecommons.org/ns#"
   xmlns:rdf="http://www.w3.org/1999/02/22-rdf-syntax-ns#"
   xmlns:svg="http://www.w3.org/2000/svg"
   xmlns="http://www.w3.org/2000/svg"
   xmlns:sodipodi="http://sodipodi.sourceforge.net/DTD/sodipodi-0.dtd"
   xmlns:inkscape="http://www.inkscape.org/namespaces/inkscape"
   width="500"
   height="500"
   viewBox="0 0 132.29166 132.29167"
   version="1.1"
   id="svg882"
   sodipodi:docname="logo1.svg"
   inkscape:version="1.0.2 (e86c870879, 2021-01-15)">
  <sodipodi:namedview
     pagecolor="#ffffff"
     bordercolor="#666666"
     borderopacity="1"
     objecttolerance="10"
     gridtolerance="10"
     guidetolerance="10"
     inkscape:pageopacity="0"
     inkscape:pageshadow="2"
     inkscape:window-width="1366"
     inkscape:window-height="720"
     id="namedview11"
     showgrid="false"
     inkscape:zoom="0.51708065"
     inkscape:cx="271.49476"
     inkscape:cy="458.09947"
     inkscape:window-x="0"
     inkscape:window-y="0"
     inkscape:window-maximized="1"
     inkscape:current-layer="svg882"
     inkscape:document-rotation="0" />
  <defs
     id="defs876" />
  <metadata
     id="metadata879">
    <rdf:RDF>
      <cc:Work
         rdf:about="">
        <dc:format>image/svg+xml</dc:format>
        <dc:type
           rdf:resource="http://purl.org/dc/dcmitype/StillImage" />
        <dc:title />
      </cc:Work>
    </rdf:RDF>
  </metadata>
  <ellipse
     style="fill:none;fill-opacity:1;stroke:#ffffff;stroke-width:1.18891;stroke-miterlimit:4;stroke-dasharray:none;stroke-opacity:1"
     id="path1172"
     cx="66.145836"
     cy="66.145821"
     rx="65.295364"
     ry="65.834389" />
  <path
     id="path882"
     style="fill:#ffffff;fill-opacity:1;stroke-width:0.0207918"
     d="m 53.98482,19.13268 c -3.537132,-0.03091 -7.722732,1.205283 -12.924791,2.785876 5.07511,-1.221722 11.477992,9.166533 21.274152,9.438183 3.035064,0.08418 3.788561,1.884653 3.943945,5.726266 v 27.166298 l 0.07131,0.01963 c -1.3863,2.762544 -3.78756,6.686958 -8.736932,10.20041 -0.807136,0.465214 -1.614768,0.929814 -2.422076,1.394748 l 0.0031,0.0052 -2.446361,1.405599 -2.8975,-4.349088 C 48.937609,71.55671 47.110127,71.194893 45.752245,72.114481 L 26.425265,85.2031 c -1.357884,0.919591 -1.71719,2.761927 -0.805119,4.131014 l 6.765477,10.155454 c 0.912072,1.369092 2.739541,1.731432 4.097425,0.811842 L 55.810033,87.212241 c 1.357884,-0.919588 1.717177,-2.761919 0.805119,-4.131013 l -2.77916,-4.171839 0.424262,-0.245462 2.127004,-1.228865 c 1.004517,-0.580425 1.856079,-1.067467 2.086176,-1.193726 l 0.0026,0.0047 0.06563,-0.03772 c 4.607165,-3.899034 7.182421,-7.463945 8.68939,-10.297561 v 16.169554 h -0.40876 c 0.05833,0.02474 0.115501,0.04715 0.170016,0.06666 l 0.238744,0.08578 -0.0067,4.769734 c -0.0027,1.973304 -0.0051,2.858235 -0.0093,3.545003 -0.579434,0.0089 -1.031462,0.02183 -1.031462,0.03979 0,0.02757 -0.241432,0.0685 -0.536403,0.09095 -0.740256,0.05634 -2.088845,0.293444 -2.888194,0.507462 -1.618906,0.433454 -2.803205,1.096764 -3.137275,1.757 -0.175954,0.347742 -0.152811,0.785792 0.05891,1.12241 0.190272,0.302506 0.717658,0.721659 1.247471,0.991672 1.327025,0.676283 3.600439,1.160775 5.98103,1.274342 4.585382,0.218739 8.905819,-0.779386 9.846426,-2.274798 0.206351,-0.328075 0.227412,-0.769919 0.05271,-1.115176 -0.277214,-0.547899 -1.218112,-1.14377 -2.44688,-1.54926 -1.041823,-0.343807 -2.476722,-0.627957 -3.615798,-0.716235 -0.274346,-0.02125 -0.498679,-0.06092 -0.498679,-0.08837 0,-0.01476 -0.288263,-0.02695 -0.70745,-0.03617 3.4e-5,-2.64e-4 -3.2e-5,-0.01371 0,-0.01394 v -2.493904 -2.937288 c 0,-1.387197 0.0056,-2.559407 0.01241,-2.873211 h 0.0062 v -0.09095 c 0.01143,-0.01087 0.05401,-0.03444 0.109556,-0.06149 H 69.558097 V 66.134473 c 1.364998,3.014178 3.973123,7.133947 9.388059,11.716596 l 0.06563,0.03824 0.0026,-0.0047 c 0.230098,0.126257 1.081662,0.612786 2.086176,1.193207 l 2.126485,1.228865 0.0057,0.05891 c 0.0081,0.08494 -0.02611,0.657825 -0.05736,0.962215 -0.01468,0.143155 -0.07121,0.589566 -0.12609,0.992187 -0.0549,0.40263 -0.11308,0.870323 -0.12919,1.039212 -0.07238,0.75913 -0.03151,1.397021 0.124023,1.925466 0.294217,0.999588 1.030044,1.921838 2.3027,2.887162 0.460132,0.349012 0.705932,0.514186 1.691886,1.13688 l 0.265102,0.167431 -0.03204,0.174152 c -0.323757,1.755928 0.897745,3.453836 2.652551,3.688145 0.44685,0.05967 0.852638,0.0288 1.289328,-0.09818 0.645864,-0.187812 1.154438,-0.527941 1.589566,-1.062468 0.14491,-0.177996 0.380217,-0.592672 0.467156,-0.823206 0.41718,-1.105988 0.192511,-2.35598 -0.58136,-3.231843 -0.744892,-0.843058 -1.839291,-1.216216 -2.948657,-1.005107 -0.459899,0.08752 -0.975339,0.330009 -1.342554,0.631486 -0.06767,0.05556 -0.137806,0.10592 -0.155546,0.111622 -0.02779,0.009 -0.09729,-0.03084 -0.502296,-0.285771 -1.150945,-0.724485 -1.861404,-1.305015 -2.330606,-1.904277 -0.473231,-0.604415 -0.680529,-1.213747 -0.669726,-1.971456 0.0039,-0.271298 0.03254,-0.544221 0.135908,-1.305864 0.05118,-0.37701 0.101367,-0.766191 0.111623,-0.865063 0.01241,-0.119624 0.0259,-0.180372 0.04082,-0.180867 0.01233,-5.29e-4 2.002671,1.13741 4.422987,2.528528 2.420318,1.391121 6.078542,3.492968 8.129219,4.670515 l 3.728459,2.140955 -0.65113,1.145667 c -0.35815,0.630118 -0.64599,1.14826 -0.63975,1.151866 0.0292,0.01638 7.14351,0.03844 7.1577,0.02223 0.0171,-0.01958 -3.52971,-6.275474 -3.5574,-6.274554 -0.008,2.65e-4 -0.30886,0.506886 -0.66818,1.12603 -0.45151,0.778018 -0.66017,1.12604 -0.67541,1.126548 -0.0121,5.29e-4 -2.556353,-1.457968 -5.653919,-3.24063 -3.097565,-1.78268 -6.057977,-3.481289 -6.57841,-3.774963 -0.849169,-0.479129 -0.945552,-0.536716 -0.941546,-0.562756 0.0072,-0.04679 1.1366,-0.76363 1.563214,-0.992187 1.518499,-0.813541 3.090164,-0.780291 5.076174,0.107487 0.266081,0.118938 0.85209,0.41343 0.914156,0.459404 l 0.04186,0.031 -0.447001,0.804604 -0.447519,0.8046 2.305288,1.332219 2.305803,1.33222 1.32136,-2.324407 1.32085,-2.324923 -2.27273,-1.318781 c -1.250041,-0.725325 -2.290224,-1.323929 -2.311452,-1.33011 l -0.03824,-0.01138 -0.40876,0.710036 -0.409276,0.710033 -0.225312,-0.115755 c -1.077764,-0.555027 -1.690272,-0.812012 -2.480984,-1.040762 -1.737151,-0.502558 -3.247993,-0.391253 -4.735629,0.349332 -0.433342,0.215725 -0.727956,0.388903 -1.373558,0.806151 -0.612748,0.39602 -0.843872,0.530116 -1.091925,0.634587 -0.247409,0.104203 -0.530455,0.157334 -0.728636,0.136427 -0.07588,-0.008 -0.21572,-0.08716 -3.535701,-1.999361 -1.189063,-0.684874 -2.37836,-1.369938 -3.567226,-2.055172 C 74.69868,72.437331 72.305217,68.309405 70.94981,65.53553 l 0.03307,0.0088 V 37.083005 C 71.759718,33.593563 76.395522,30.90922 83.958832,37.012723 78.286611,25.997561 72.625718,26.786086 68.67863,37.083005 h -0.0925 C 67.979751,34.07284 67.740915,33.218704 66.486515,30.269984 62.938725,21.93028 59.154652,19.177908 53.984953,19.13268 Z M 46.846238,72.717004 55.670505,85.963222 36.16007,99.175852 27.335803,85.93015 Z M 30.006441,92.510625 a 1.0690126,0.53282122 56.473455 0 1 0.859377,0.639755 1.0690126,0.53282122 56.473455 0 1 0.151413,1.188558 1.0690126,0.53282122 56.473455 0 1 -1.034044,-0.590661 1.0690126,0.53282122 56.473455 0 1 -0.151413,-1.188558 1.0690126,0.53282122 56.473455 0 1 0.174667,-0.04909 z m 29.501556,2.094963 c -0.0439,0.0051 -0.103931,0.06706 -0.148312,0.174151 -0.07378,0.178023 -0.08542,0.506744 -0.07131,2.008661 0.01667,1.7629 0.01979,1.801501 0.157612,2.088761 0.194882,0.406064 0.919742,1.108655 1.492417,1.446939 1.453689,0.85874 3.602606,1.40963 6.115904,1.56787 1.396331,0.0879 3.472979,-0.0418 4.817795,-0.30128 2.137982,-0.41248 3.831513,-1.1796 4.686535,-2.122865 0.596133,-0.657643 0.673294,-1.02298 0.642337,-3.038575 -0.01799,-1.169234 -0.0386,-1.453812 -0.119888,-1.63866 -0.09038,-0.205515 -0.21704,-0.250418 -0.21704,-0.077 0,0.149747 -0.372494,0.575554 -0.726056,0.829924 -2.565413,1.845741 -9.821151,2.277578 -14.096812,0.838708 -0.781907,-0.263125 -1.251048,-0.487159 -1.736844,-0.829408 -0.313679,-0.220988 -0.737941,-0.709594 -0.737941,-0.850077 0,-0.07041 -0.02426,-0.101092 -0.05839,-0.09715 z m 17.432011,5.490102 c -0.06001,8e-4 -0.225348,0.13777 -0.427881,0.35605 -0.635447,0.68492 -1.586508,1.21857 -2.961576,1.6614 -4.694769,1.51192 -11.451807,0.68819 -13.631727,-1.6614 -0.217734,-0.23469 -0.3898,-0.37311 -0.439248,-0.35398 -0.172863,0.0669 -0.208288,0.48974 -0.191204,2.27686 0.01953,2.04001 0.01894,2.03616 0.608748,2.67839 1.040818,1.13348 3.22312,1.95535 6.141743,2.31252 1.014516,0.12416 4.018606,0.075 4.99763,-0.0817 2.648196,-0.42374 4.543785,-1.19262 5.495271,-2.2288 0.625661,-0.68138 0.702318,-1.0334 0.665591,-3.06596 -0.02559,-1.41601 -0.0793,-1.82647 -0.247012,-1.89136 -0.003,-0.001 -0.0064,-0.002 -0.01035,-0.002 z m -0.0078,5.66736 c -0.06983,-0.005 -0.156956,0.0734 -0.265618,0.22221 -0.337264,0.46177 -1.196258,1.06142 -2.040702,1.42471 -1.900695,0.81771 -4.36141,1.21509 -7.020242,1.1343 -0.638495,-0.0194 -1.477565,-0.076 -1.865003,-0.12557 -2.860508,-0.36621 -5.018465,-1.25595 -6.016685,-2.48099 -0.08784,-0.10782 -0.194384,-0.18276 -0.236681,-0.1664 -0.178675,0.0691 -0.217191,0.51309 -0.199469,2.29392 0.01712,1.72565 0.01984,1.76085 0.159163,2.04845 0.299545,0.61799 1.188352,1.35704 2.18023,1.81333 1.358262,0.62484 3.255047,1.05916 5.252907,1.20251 0.974141,0.0699 2.784705,0.0126 3.825089,-0.12092 2.69068,-0.34534 4.753203,-1.14226 5.789311,-2.23604 0.658871,-0.69558 0.738931,-1.04873 0.703834,-3.10679 -0.0227,-1.32887 -0.08764,-1.8892 -0.266134,-1.90272 z" />
</svg>
