<?xml version="1.0" encoding="UTF-8"?>
<svg width="480" height="480" version="1.1" viewBox="0 0 127 127" xmlns="http://www.w3.org/2000/svg" xmlns:cc="http://creativecommons.org/ns#" xmlns:dc="http://purl.org/dc/elements/1.1/" xmlns:rdf="http://www.w3.org/1999/02/22-rdf-syntax-ns#">
 <metadata>
  <rdf:RDF>
   <cc:Work rdf:about="">
    <dc:format>image/svg+xml</dc:format>
    <dc:type rdf:resource="http://purl.org/dc/dcmitype/StillImage"/>
    <dc:title/>
   </cc:Work>
  </rdf:RDF>
 </metadata>
 <path d="m104.61 111.88-12.886-10.027-0.23452-0.17167-0.23452-0.17168 2.8797 8.6351v0.1362l-71.662-0.054-1.9582-0.38135-0.98892-0.31969-0.98892-0.3197-2.2001-1.1216-1.6569-1.1812-0.88594-0.87659-0.88595-0.8766-0.58029-0.78052-0.5803-0.78043-0.44918-0.81081-0.44918-0.81082-0.30865-0.73172-0.30865-0.73173-0.25494-0.90776-0.25494-0.90778-0.13536-0.93307-0.13536-0.93308 0.027797-39.622 0.027797-39.622 0.38742-1.6443 0.3072-0.91806 0.3072-0.91806 0.78247-1.6303 0.60937-0.90721 0.60937-0.9072 1.1973-1.3283 0.65744-0.59266 0.65745-0.59266 1.8144-1.2172 0.82832-0.39756 0.82833-0.39756 2.0515-0.6731 2.1915-0.36915 82.224 0.04877 1.7532 0.40042 0.92043 0.31255 0.92042 0.31256 1.7532 0.8782 1.3149 0.87588 0.78893 0.62908 1.2912 1.2342 1.0072 1.2272 0.50204 0.77022 0.50203 0.77021 0.42087 0.89531 0.42086 0.89532 0.53016 1.6655 0.13915 0.67538 0.13915 0.67538 0.0906 0.85866 0.0906 0.85866-0.0496 102.84zm-54.752-29.674 1.3233-1.7737v-0.099l-0.65745-0.23236-1.6686-0.65591-2.1148-0.97869-2.0898-1.1632-2.4582-1.6309-2.1878-1.7492-2.045-1.9554-0.93504-1.0793 1.6652 1.1498 1.5779 0.94953 1.6655 0.89045 2.2791 1.0064 2.2956 0.84552 2.4791 0.71818 2.5887 0.59337 3.2434 0.53484 2.3668 0.26078 2.6298 0.21972 7.1881 4e-3 2.8051-0.22586 2.8928-0.3358 2.5824-0.43844 2.0635-0.45595 2.2256-0.60652 2.5957-0.88372 2.0842-0.8756 2.0592-1.0322 1.5545-0.91469 0.91803-0.62093 0.91804-0.62093 0.26415-0.16272-1.3032 1.4362-1.6737 1.5348-1.1396 0.97034-1.1396 0.87564-1.6655 1.1497-1.9717 1.1633-2.076 1.0407-2.2638 0.95073-0.92042 0.30349v0.16565l2.6282 3.4955 0.59247-0.04519 0.59247-0.04518 2.2791-0.26686 0.92042-0.17322 0.92042-0.17322 2.6301-0.67875 0.95594-0.31983 0.95592-0.31982 0.88477-0.3512 0.88477-0.35119 2.2791-1.0941 1.1396-0.68465 1.1396-0.68464 1.8079-1.3117 1.6108-1.3664 1.9856-2.0054-0.14158-1.789-0.1416-1.789-0.17633-1.6217-0.17633-1.6217-0.21666-1.534-0.21667-1.534-0.26354-1.5187-0.26353-1.5187-0.30837-1.5056-0.30837-1.5056-0.43097-1.7532-0.43098-1.7532-0.401-1.4025-0.401-1.4025-1.3799-4.12-0.70356-1.7555-0.70356-1.7555-1.2367-2.6668-0.66985-1.2505-0.66986-1.2503-0.80998-1.2272-1.4902-1.0214-2.3113-1.3824-2.9541-1.479-2.8869-1.1412-2.1038-0.62401-1.9285-0.45698-2.2791-0.3372-0.56803-6.63e-4 -0.79077 1.5745 0.4822 0.11364 3.2434 0.92394 2.4545 0.90489 3.5064 1.7226 2.6298 1.7546 1.1396 0.92423 1.1396 0.92424 0.96425 0.88555-5.5225-2.7045-2.5034-1.0588-2.4418-0.88996-2.5935-0.78069-2.7406-0.61437-2.7566-0.43161-3.0057-0.30489-6.3991 0.0034-2.8928 0.3004-1.8408 0.27059-2.2791 0.43592-2.6518 0.68436-2.6078 0.86279-2.6298 1.0579-1.8408 0.821-4.7006 2.3507h-0.09162l1.6365-1.419 2.0162-1.5321 1.6028-1.073 0.68882-0.40814 0.68882-0.40814 2.3668-1.1869 2.4545-0.96754 1.7532-0.55874 2.2415-0.57565 0.04149-0.04148 0.04148-0.04149-0.35065-0.75897-0.35065-0.75897-0.48359 0.001988-2.1915 0.33845-1.6655 0.37042-2.1541 0.60623-2.3165 0.85329-2.6298 1.1608-2.7174 1.5022-2.455 1.6313-1.1939 1.9946-1.5529 3.0746-1.3076 3.0616-0.52658 1.4025-0.52658 1.4025-0.53084 1.6217-0.53085 1.6217-0.80896 2.867-0.85844 3.5322-0.39206 1.9723-0.39205 1.9723-0.53318 3.4187-0.17701 1.4025-0.17702 1.4026-0.1303 1.2711-0.1303 1.2711-0.10378 1.4595-0.10378 1.4595 0.94779 1.0944 0.96425 0.87822 0.96425 0.87822 1.5779 1.2223 0.8766 0.58492 0.87659 0.58493 1.4025 0.81362 2.7174 1.3096 1.2021 0.44711 1.2021 0.44712 2.4381 0.69954 1.2167 0.25593 1.2167 0.25594 0.98096 0.14245 0.98096 0.14245 1.7198 0.14188 0.29004 0.02452 1.3233-1.7737zm2.3065-12.992-0.4631-0.11213-1.2666-0.62598-1.0991-0.99458-0.76384-1.0768-0.3261-0.65132-0.3261-0.65132-0.21458-0.83889-0.21457-0.83889-0.10182-1.7532 0.10382-0.77706 0.10382-0.77706 0.44982-1.4263 0.28653-0.56982 0.28653-0.56983 0.83562-1.1116 1.0414-0.86666 0.58353-0.29166 0.58353-0.29165 0.48213-0.11884 0.48213-0.11883 1.4902 0.0158 0.56978 0.19375 0.56978 0.19376 0.96425 0.54086 1.4025 1.4187 0.73652 1.313 0.26319 0.78969 0.26319 0.7897 0.10216 0.65668 0.10216 0.65668-0.04538 1.1396-0.04537 1.1396-0.19046 0.69866-0.19046 0.69866-0.28966 0.62692-0.28966 0.62692-0.35055 0.51622-0.35056 0.51622-1.2063 1.1377-1.2443 0.65347-1.1215 0.26436-1.1396-0.0124-0.46311-0.11213zm20.625 0.0433-0.35064-0.07622-0.98763-0.37093-1.2468-0.87562-1.0527-1.2671-0.39091-0.78893-0.39091-0.78893-0.3528-1.2933-0.19292-1.7918 0.09246-0.82421 0.09246-0.82421 0.135-0.51602 0.13499-0.51602 0.46035-1.1507 0.61219-1.0445 1.2729-1.3323 1.1131-0.66173 1.2272-0.37915h1.4902l0.61362 0.18957 0.61361 0.18958 1.1172 0.66307 1.3552 1.4308 0.79265 1.5497 0.3615 1.1396 0.10873 0.52596 0.10873 0.52596-9e-3 2.1915-0.30029 1.4026-0.52043 1.3515-0.87796 1.3449-0.93143 0.93143-1.0782 0.69688-1.091 0.37546-1.5779 0.0698-0.35064-0.07622z" fill="#8a9cfd" stroke-width=".087659"/>
</svg>
