<?xml version="1.0" encoding="UTF-8"?>
<svg width="507" height="507" version="1.1" viewBox="0 0 134.14 134.14" xmlns="http://www.w3.org/2000/svg" xmlns:cc="http://creativecommons.org/ns#" xmlns:dc="http://purl.org/dc/elements/1.1/" xmlns:rdf="http://www.w3.org/1999/02/22-rdf-syntax-ns#">
 <metadata>
  <rdf:RDF>
   <cc:Work rdf:about="">
    <dc:format>image/svg+xml</dc:format>
    <dc:type rdf:resource="http://purl.org/dc/dcmitype/StillImage"/>
    <dc:title/>
   </cc:Work>
  </rdf:RDF>
 </metadata>
 <g stroke-width=".26458">
  <path d="m-65.929 202.66c0-0.3638 0.06006-0.51263 0.13345-0.33073 0.0734 0.1819 0.0734 0.47956 0 0.66146s-0.13345 0.0331-0.13345-0.33073zm43.454-3.0427c5.3e-4 -2.0373 0.0419-2.8358 0.0923-1.7744 0.0503 1.0614 0.05 2.7283-7.9e-4 3.7042-0.0507 0.9759-0.0919 0.10749-0.0915-1.9298zm25.896 1.5364c0.25743-0.0671 0.61462-0.0627 0.79375 0.01 0.17913 0.0725-0.0315 0.12736-0.46805 0.12197-0.43657-5e-3 -0.58313-0.0647-0.3257-0.13177zm25.527 8e-3c0.1819-0.0734 0.47956-0.0734 0.66146 0s0.0331 0.13346-0.33073 0.13346c-0.3638 0-0.51263-0.0601-0.33073-0.13346zm-69.578-4.2522c0.62231-0.0559 1.5748-0.0551 2.1167 2e-3 0.54186 0.0568 0.03269 0.10258-1.1315 0.10162-1.1642-1e-3 -1.6075-0.0475-0.98519-0.10337zm61.484-97.437c0-0.3638 0.0601-0.51263 0.13345-0.33073 0.0734 0.1819 0.0734 0.47956 0 0.66146s-0.13345 0.0331-0.13345-0.33073zm-31.858-7.0544c0.18191-0.0734 0.47956-0.0734 0.66146 0s0.0331 0.13346-0.33073 0.13346c-0.3638 0-0.51263-0.0601-0.33073-0.13346zm-7.7391-11.202c0.26339-0.29104 0.53842-0.52917 0.61118-0.52917 0.0728 0-0.0832 0.23812-0.3466 0.52917-0.26339 0.29104-0.53842 0.52917-0.61118 0.52917-0.0728 0 0.0832-0.23812 0.3466-0.52917zm-49.923-4.6961c2.8109-0.04289 7.3352-0.04283 10.054 1.43e-4 2.7189 0.04297 0.41915 0.07806-5.1106 0.07798-5.5298-7.9e-5 -7.7544-0.03523-4.9435-0.07812zm32.279 3.2e-5c2.6652-0.04319 6.9515-0.04313 9.525 1.56e-4 2.5735 0.04328 0.39291 0.07862-4.8458 0.07853-5.2388-8.7e-5 -7.3444-0.0355-4.6792-0.07869zm33.32-1.5646c0.18191-0.0734 0.47956-0.0734 0.66146 0s0.0331 0.13345-0.33073 0.13345c-0.3638 0-0.51263-0.06006-0.33073-0.13345zm-49.095-18.742c0.0054-0.43656 0.06469-0.58313 0.13177-0.32569 0.06708 0.25743 0.06267 0.61462-0.0098 0.79375-0.07248 0.17913-0.12736-0.03149-0.12197-0.46806z" fill="#acd1e5"/>
  <path d="m-55.454 160.66c16.044-0.0377 42.297-0.0377 58.341 0s2.917 0.0685-29.17 0.0685c-32.087 0-45.214-0.0308-29.17-0.0685zm-38.168-67.27c0-32.233 0.03081-45.419 0.06847-29.303s0.03766 42.489 0 58.605-0.06847 2.9303-0.06847-29.303zm134.67 0c0-32.233 0.0308-45.419 0.0685-29.303s0.0377 42.489 0 58.605-0.0685 2.9303-0.0685-29.303zm-19.848 28.443c3e-5 -10.478 0.0328-14.725 0.0729-9.4394 0.0401 5.2858 0.0401 13.858-5e-5 19.05-0.0401 5.1917-0.0729 0.86689-0.0729-9.6106zm-20.182-16.669c5e-3 -0.43656 0.0647-0.58312 0.13177-0.32569 0.0671 0.25743 0.0627 0.61462-0.01 0.79375-0.0725 0.17913-0.12736-0.0315-0.12197-0.46806zm-10.698-12.755c0.32911-0.0633 0.80536-0.0609 1.0583 5e-3 0.25296 0.0662-0.0163 0.118-0.5984 0.11507-0.58208-3e-3 -0.78905-0.0571-0.45993-0.12041zm5.1563-17.458c0.25466-0.06655 0.67138-0.06655 0.92604 0s0.0463 0.121-0.46302 0.121c-0.50933 0-0.71769-0.05445-0.46302-0.121zm2.7812-0.0047c0.32911-0.06328 0.80536-0.06088 1.0583 0.0053 0.25296 0.06622-0.0163 0.118-0.5984 0.11507-0.58208-0.0029-0.78905-0.05712-0.45993-0.12041zm-62.442-30.427c0.32912-0.06329 0.80537-0.06088 1.0583 0.0053 0.25297 0.06622-0.01633 0.118-0.5984 0.11507-0.58208-0.0029-0.78905-0.05712-0.45994-0.12041zm8.7282-18.532c16.044-0.03766 42.297-0.03766 58.341 0s2.917 0.06848-29.17 0.06848c-32.087 0-45.214-0.03082-29.17-0.06848z" fill="#6daed2"/>
  <path d="m15.851 207.77c0.25466-0.0665 0.67138-0.0665 0.92604 0 0.25467 0.0666 0.0463 0.12101-0.46302 0.12101s-0.71768-0.0545-0.46302-0.12101zm2.6518-4.8447c0-0.65485 0.0516-0.92274 0.11466-0.59532 0.0631 0.32743 0.0631 0.86321 0 1.1906s-0.11466 0.0595-0.11466-0.59531zm-75.912-1.8521c0-1.3824 0.04459-1.948 0.0991-1.2568 0.0545 0.69123 0.0545 1.8223 0 2.5135-0.0545 0.69123-0.0991 0.12568-0.0991-1.2568zm78.862-3.0427c2.2e-4 -3.0559 0.0387-4.2698 0.0856-2.6976 0.0469 1.5723 0.0467 4.0726-2.7e-4 5.5563-0.0471 1.4837-0.0854 0.19728-0.0852-2.8587zm-61.297 3.3966c0.1819-0.0734 0.47956-0.0734 0.66146 0s0.03307 0.13345-0.33073 0.13345c-0.3638 0-0.51263-0.06-0.33073-0.13345zm20.275-3.3966c5.3e-4 -1.7462 0.0433-2.4262 0.0951-1.511s0.0514 2.344-1e-3 3.175c-0.0523 0.83104-0.0947 0.0822-0.0942-1.664zm-53.442-1.7198c0-2.11 0.04109-2.9732 0.09131-1.9182 0.05022 1.055 0.05022 2.7814 0 3.8365-0.05022 1.055-0.09131 0.19182-0.09131-1.9182zm83.829 1.5875c0-0.50932 0.0545-0.71768 0.121-0.46302 0.0666 0.25466 0.0666 0.67138 0 0.92604s-0.121 0.0463-0.121-0.46302zm7.6782-0.13229c3e-3 -0.58208 0.0571-0.78905 0.12041-0.45994 0.0633 0.32912 0.0609 0.80537-5e-3 1.0583-0.0662 0.25296-0.11801-0.0163-0.11507-0.5984zm5.0218 0.13229c0-0.50932 0.0544-0.71768 0.121-0.46302s0.0666 0.67138 0 0.92604-0.121 0.0463-0.121-0.46302zm8.1825 0c0-0.3638 0.0601-0.51263 0.13346-0.33073 0.0734 0.1819 0.0734 0.47956 0 0.66146s-0.13346 0.0331-0.13346-0.33073zm-52.622-4.2333c0-0.65484 0.0516-0.92274 0.11467-0.59531 0.0631 0.32742 0.0631 0.8632 0 1.1906s-0.11467 0.0595-0.11467-0.59531zm36.903 0.8831c0.18191-0.0734 0.47956-0.0734 0.66146 0s0.0331 0.13346-0.33073 0.13346c-0.3638 0-0.51263-0.0601-0.33073-0.13346zm-59.333-0.8831c0.26339-0.29104 0.53842-0.52917 0.61118-0.52917 0.07276 0-0.08321 0.23813-0.3466 0.52917-0.26339 0.29104-0.53842 0.52917-0.61118 0.52917s0.08321-0.23813 0.3466-0.52917zm-6.187-0.46302c0.01913-0.45373 0.07647-0.5521 0.15232-0.26135 0.07096 0.27202 0.25106 0.38864 0.43233 0.27994 0.17355-0.10407 0.15041 0.0113-0.05242 0.26135-0.49279 0.60751-0.56799 0.56795-0.53222-0.27994zm29.939-1.6536c0-0.65484 0.0516-0.92273 0.11466-0.59531 0.0631 0.32742 0.0631 0.8632 0 1.1906-0.0631 0.32743-0.11466 0.0595-0.11466-0.59531zm-62.448-0.71155c0.25466-0.0666 0.67138-0.0666 0.92604 0 0.25466 0.0666 0.0463 0.121-0.46302 0.121-0.50932 0-0.71768-0.0545-0.46302-0.121zm4.8035-1.2067-0.50403-0.59531 0.59531 0.50403c0.55945 0.47366 0.71576 0.6866 0.50403 0.6866-0.05021 0-0.3181-0.2679-0.59531-0.59532z" fill="#a3a3a3"/>
  <path d="m-53.672 108.73c0-17.681 0.03163-24.914 0.07028-16.073 0.03866 8.8404 0.03866 23.306 0 32.147-0.03866 8.8404-0.07028 1.6074-0.07028-16.073zm12.435 0c0-17.681 0.03163-24.914 0.07028-16.073 0.03866 8.8404 0.03866 23.306 0 32.147-0.03866 8.8404-0.07028 1.6074-0.07028-16.073zm42.33 14.552c0-9.6771 0.033-13.636 0.0734-8.7974 0.0404 4.8386 0.0404 12.756 0 17.595-0.0404 4.8386-0.0734 0.87974-0.0734-8.7974zm-22.308-17.198c0-0.3638 0.0601-0.51263 0.13346-0.33073 0.0734 0.18191 0.0734 0.47956 0 0.66146s-0.13346 0.0331-0.13346-0.33073zm42.358-4.101c3e-3 -0.58208 0.0571-0.78905 0.1204-0.45993 0.0633 0.32911 0.0609 0.80536-5e-3 1.0583-0.0662 0.25296-0.11801-0.0163-0.11507-0.5984zm-85.064-34.174c0.1819-0.0734 0.47956-0.0734 0.66146 0s0.03307 0.13345-0.33073 0.13345c-0.3638 0-0.51263-0.06006-0.33073-0.13345zm-8.1359-19.801c0.49366-0.50932 0.95709-0.92604 1.0298-0.92604s-0.27161 0.41672-0.76526 0.92604c-0.49366 0.50932-0.95709 0.92604-1.0298 0.92604s0.27161-0.41672 0.76526-0.92604z" fill="#3891c2"/>
  <path d="m-82.177 203.53c0.32742-0.0631 0.8632-0.0631 1.1906 0 0.32742 0.0631 0.05953 0.11466-0.59531 0.11466-0.65484 0-0.92273-0.0516-0.59531-0.11466zm12.573 3e-3c0.25743-0.0671 0.61462-0.0627 0.79375 0.01 0.17913 0.0725-0.03149 0.12736-0.46806 0.12197-0.43656-5e-3 -0.58312-0.0647-0.32569-0.13178zm29.496-3e-3c0.32742-0.0631 0.8632-0.0631 1.1906 0 0.32742 0.0631 0.05953 0.11466-0.59531 0.11466-0.65484 0-0.92273-0.0516-0.59531-0.11466zm23.151 4e-3c0.25466-0.0665 0.67138-0.0665 0.92604 0 0.25466 0.0666 0.0463 0.121-0.46302 0.121s-0.71768-0.0545-0.46302-0.121zm20.244-5e-3c0.32912-0.0633 0.80537-0.0609 1.0583 5e-3 0.25297 0.0662-0.0163 0.118-0.59839 0.11507-0.58209-3e-3 -0.78906-0.0571-0.45994-0.12041zm25.4 0c0.32912-0.0633 0.80537-0.0609 1.0583 5e-3 0.25297 0.0662-0.0163 0.118-0.59839 0.11507-0.58209-3e-3 -0.78906-0.0571-0.45994-0.12041zm-93.798-0.26697c0.40018-0.0606 1.055-0.0606 1.4552 0 0.40018 0.0606 0.07276 0.11023-0.7276 0.11023s-1.1278-0.0496-0.7276-0.11023zm4.8144-0.14901c-0.07145-0.18619-0.09475-2.6567-0.05178-5.4901l0.07812-5.1516 0.06009 5.344 0.06009 5.344 2.7781 0.1944-1.3974 0.0489c-0.92904 0.0325-1.4409-0.0645-1.5273-0.28958zm8.8164 0.14677c0.47555-0.0589 1.1899-0.0577 1.5875 3e-3 0.39758 0.0604 0.0085 0.10855-0.86464 0.10707-0.87312-2e-3 -1.1984-0.0509-0.72286-0.10977zm20.359-3e-3 1.3802-0.0969 0.08492-2.8308 0.08491-2.8308 0.05619 2.9766 0.05619 2.9766-3.0427-0.0978 1.3802-0.0969zm5.7464-0.15137c-0.073-0.19037-0.0949-1.768-0.0486-3.5057l0.0842-3.1596 0.1138 6.7192 2.7781 0.1944-1.3974 0.0489c-0.94427 0.0331-1.4404-0.0633-1.5302-0.29719zm19.138 0.15438c0.47555-0.0589 1.1899-0.0577 1.5875 3e-3 0.39758 0.0604 8e-3 0.10855-0.86463 0.10707-0.87313-2e-3 -1.1984-0.0509-0.72287-0.10977zm21.165 5e-3c0.32911-0.0633 0.80536-0.0609 1.0583 5e-3 0.25297 0.0662-0.0163 0.118-0.5984 0.11506-0.58208-3e-3 -0.78905-0.0571-0.45993-0.1204zm-7.3453-1.2681c0.34178-0.3638 0.68094-0.66145 0.7537-0.66145 0.0728 0-0.14734 0.29765-0.48911 0.66145-0.34178 0.36381-0.68094 0.66146-0.7537 0.66146-0.0728 0 0.14734-0.29765 0.48911-0.66146zm10.451 0.1323c0.26339-0.29105 0.53842-0.52917 0.61118-0.52917 0.0728 0-0.0832 0.23812-0.3466 0.52917-0.26339 0.29104-0.53842 0.52916-0.61118 0.52916-0.0728 0 0.0832-0.23812 0.3466-0.52916zm-86.58-0.71252c0.25743-0.0671 0.61462-0.0627 0.79375 0.01 0.17913 0.0725-0.03149 0.12736-0.46806 0.12197-0.43656-5e-3 -0.58313-0.0647-0.32569-0.13177zm51.844-3.587-0.0566-3.1089 0.99218 0.0423c0.96469 0.0412 0.96859 0.0453 0.14081 0.14842l-0.85138 0.10607-0.0843 2.9604-0.0842 2.9604zm-53.399-1.7859c0-1.9645 0.04165-2.7682 0.09256-1.7859 0.05091 0.98227 0.05091 2.5896 0 3.5719-0.05091 0.98226-0.09256 0.17859-0.09256-1.7859zm29.849 2.7145c0.9759-0.0508 2.6428-0.0511 3.7042-8e-4 1.0614 0.0504 0.26293 0.0919-1.7744 0.0923-2.0373 5.3e-4 -2.9057-0.0408-1.9298-0.0915zm46.579-0.73011c3e-3 -0.58208 0.0571-0.78905 0.12041-0.45993 0.0633 0.32912 0.0609 0.80537-5e-3 1.0583-0.0662 0.25297-0.118-0.0163-0.11507-0.5984zm28.31 0c3e-3 -0.58208 0.0571-0.78905 0.1204-0.45993s0.0609 0.80537-5e-3 1.0583c-0.0662 0.25297-0.11801-0.0163-0.11507-0.5984zm-92.08-0.13208c0-0.50932 0.05445-0.71768 0.121-0.46302 0.06655 0.25466 0.06655 0.67138 0 0.92604s-0.121 0.0463-0.121-0.46302zm58.463 0.13229c5e-3 -0.43656 0.0647-0.58312 0.13177-0.32569 0.0671 0.25743 0.0627 0.61462-0.01 0.79375-0.0725 0.17913-0.12736-0.0315-0.12197-0.46806zm8.2119-0.13229c0-0.50932 0.0545-0.71768 0.121-0.46302 0.0666 0.25466 0.0666 0.67138 0 0.92604s-0.121 0.0463-0.121-0.46302zm-11.132 0c0-0.3638 0.06-0.51263 0.13345-0.33073 0.0734 0.1819 0.0734 0.47956 0 0.66146s-0.13345 0.0331-0.13345-0.33073zm15.62-0.13229c5e-3 -0.43656 0.0647-0.58313 0.13177-0.32569 0.0671 0.25743 0.0627 0.61462-0.01 0.79375-0.0725 0.17913-0.12736-0.0315-0.12197-0.46806zm-102.1-1.7198c0-0.80037 0.0496-1.1278 0.11022-0.72761 0.06062 0.40019 0.06062 1.055 0 1.4552-0.06062 0.40019-0.11022 0.0728-0.11022-0.7276zm67.99-1.2417c0.25743-0.0671 0.61462-0.0627 0.79375 0.01 0.17913 0.0725-0.0315 0.12736-0.46806 0.12197-0.43656-5e-3 -0.58312-0.0647-0.32569-0.13177zm-8.9347-1.1396c0.26339-0.29104 0.53842-0.52917 0.61118-0.52917 0.07276 0-0.08321 0.23813-0.3466 0.52917-0.26339 0.29104-0.53842 0.52917-0.61118 0.52917s0.08321-0.23813 0.3466-0.52917zm-28.443-0.39688c0-0.3638 0.04565-0.66145 0.10145-0.66145 0.0558 0 0.15835 0.29765 0.22789 0.66145 0.06955 0.36381 0.02389 0.66146-0.10145 0.66146-0.12534 0-0.22789-0.29765-0.22789-0.66146zm76.516 0c5e-3 -0.43656 0.0647-0.58312 0.13178-0.32569 0.0671 0.25743 0.0627 0.61462-0.01 0.79375-0.0725 0.17913-0.12736-0.0315-0.12197-0.46806zm-35.417-2.5135c0-1.0914 0.0467-1.5379 0.10379-0.99219 0.0571 0.54571 0.0571 1.4387 0 1.9844s-0.10379 0.0992-0.10379-0.99219zm10.433-2.3084c0.47555-0.0589 1.1899-0.0577 1.5875 3e-3 0.39758 0.0604 8e-3 0.10855-0.86463 0.10707-0.87313-2e-3 -1.1984-0.0509-0.72287-0.10977zm-75.538-0.25618c0.25743-0.0671 0.61462-0.0627 0.79375 0.01 0.17913 0.0725-0.03149 0.12737-0.46806 0.12197-0.43656-5e-3 -0.58313-0.0647-0.32569-0.13177z" fill="#676767"/>
  <path d="m6.8226 133.91c-2.6119-0.81905-4.8012-2.6828-6.0771-5.1736l-0.74545-1.4552v-120.39l0.7268-1.4799c1.251-2.5473 3.3712-4.3375 6.0642-5.1204 1.2842-0.37333 7.4846-0.40873 60.819-0.34726l59.389 0.06845 1.7198 0.81877c2.0954 0.9976 3.7086 2.5673 4.6881 4.5619l0.73589 1.4985v120.39l-0.7741 1.5286c-0.955 1.8858-2.8583 3.7047-4.8567 4.6414l-1.5129 0.7091-59.531 0.0496c-48.709 0.0406-59.734-0.0139-60.646-0.3zm32.932-51.542-0.06721-32.081-19.976-0.13866v64.3h20.11zm32.415 13.626c0.12135-20.505 0.11264-20.395 1.914-24.056 1.1279-2.2923 2.9445-4.0326 5.1053-4.8912 1.2775-0.50758 2.0151-0.60094 4.8158-0.60953 2.8339-9e-3 3.4824 0.0708 4.5303 0.55536 2.5256 1.1678 4.125 3.244 5.1959 6.7452 0.3826 1.2507 0.44533 3.7694 0.52465 21.066l0.0901 19.645h20.351l-3e-3 -19.248c-3e-3 -19.075-0.15224-23.478-0.94464-27.814-1.4925-8.1671-5.0245-13.532-10.694-16.246-3.7129-1.7768-7.4719-2.5576-12.303-2.5555-7.5568 0.0034-14.138 3.1651-18.074 8.6836l-1.2407 1.7394-0.0726-4.4298-0.0725-4.4298-19.169 0.13888-0.0672 32.081-0.0672 32.081h20.073zm-39.362-54.883c3.8002-0.95031 7.1669-4.3528 8.1883-8.2754 1.0516-4.0386 0.0071-7.9239-2.9691-11.044-6.0454-6.3379-16.786-3.8369-19.381 4.513-0.94704 3.0474-0.52162 7.102 0.99941 9.5251 2.402 3.8267 6.7312 6.073 10.913 5.6628 0.65484-0.06422 1.6669-0.23587 2.249-0.38143z" fill="#0173b2"/>
 </g>
</svg>
