<?xml version="1.0" encoding="UTF-8"?>
<svg width="500" height="500" version="1.1" viewBox="0 0 132.29 132.29" xmlns="http://www.w3.org/2000/svg" xmlns:cc="http://creativecommons.org/ns#" xmlns:dc="http://purl.org/dc/elements/1.1/" xmlns:rdf="http://www.w3.org/1999/02/22-rdf-syntax-ns#">
 <metadata>
  <rdf:RDF>
   <cc:Work rdf:about="">
    <dc:format>image/svg+xml</dc:format>
    <dc:type rdf:resource="http://purl.org/dc/dcmitype/StillImage"/>
    <dc:title/>
   </cc:Work>
  </rdf:RDF>
 </metadata>
 <ellipse cx="66.146" cy="66.146" rx="65.295" ry="65.834" fill="#fff"/>
 <path d="m53.985 19.133c-3.5371-0.03091-7.7227 1.2053-12.925 2.7859 5.0751-1.2217 11.478 9.1665 21.274 9.4382 3.0351 0.08418 3.7886 1.8847 3.9439 5.7263v27.166l0.07131 0.01963c-1.3863 2.7625-3.7876 6.687-8.7369 10.2-0.80714 0.46521-1.6148 0.92981-2.4221 1.3947l0.0031 0.0052-2.4464 1.4056-2.8975-4.3491c-0.91206-1.3691-2.7395-1.7309-4.0974-0.81132l-19.327 13.089c-1.3579 0.91959-1.7172 2.7619-0.80512 4.131l6.7655 10.155c0.91207 1.3691 2.7395 1.7314 4.0974 0.81184l19.327-13.089c1.3579-0.91959 1.7172-2.7619 0.80512-4.131l-2.7792-4.1718 0.42426-0.24546 2.127-1.2289c1.0045-0.58042 1.8561-1.0675 2.0862-1.1937l0.0026 0.0047 0.06563-0.03772c4.6072-3.899 7.1824-7.4639 8.6894-10.298v16.17h-0.40876c0.05833 0.02474 0.1155 0.04715 0.17002 0.06666l0.23874 0.08578-0.0067 4.7697c-0.0027 1.9733-0.0051 2.8582-0.0093 3.545-0.57943 0.0089-1.0315 0.02183-1.0315 0.03979 0 0.02757-0.24143 0.0685-0.5364 0.09095-0.74026 0.05634-2.0888 0.29344-2.8882 0.50746-1.6189 0.43345-2.8032 1.0968-3.1373 1.757-0.17595 0.34774-0.15281 0.78579 0.05891 1.1224 0.19027 0.30251 0.71766 0.72166 1.2475 0.99167 1.327 0.67628 3.6004 1.1608 5.981 1.2743 4.5854 0.21874 8.9058-0.77939 9.8464-2.2748 0.20635-0.32808 0.22741-0.76992 0.05271-1.1152-0.27721-0.5479-1.2181-1.1438-2.4469-1.5493-1.0418-0.34381-2.4767-0.62796-3.6158-0.71624-0.27435-0.02125-0.49868-0.06092-0.49868-0.08837 0-0.01476-0.28826-0.02695-0.70745-0.03617 3.4e-5 -2.64e-4 -3.2e-5 -0.01371 0-0.01394v-5.4312c0-1.3872 0.0056-2.5594 0.01241-2.8732h0.0062v-0.09095c0.01143-0.01087 0.05401-0.03444 0.10956-0.06149h-0.10953v-15.946c1.365 3.0142 3.9731 7.1339 9.3881 11.717l0.06563 0.03824 0.0026-0.0047c0.2301 0.12626 1.0817 0.61279 2.0862 1.1932l2.1265 1.2289 0.0057 0.05891c0.0081 0.08494-0.02611 0.65782-0.05736 0.96222-0.01468 0.14316-0.07121 0.58957-0.12609 0.99219-0.0549 0.40263-0.11308 0.87032-0.12919 1.0392-0.07238 0.75913-0.03151 1.397 0.12402 1.9255 0.29422 0.99959 1.03 1.9218 2.3027 2.8872 0.46013 0.34901 0.70593 0.51419 1.6919 1.1369l0.2651 0.16743-0.03204 0.17415c-0.32376 1.7559 0.89774 3.4538 2.6526 3.6881 0.44685 0.05967 0.85264 0.0288 1.2893-0.09818 0.64586-0.18781 1.1544-0.52794 1.5896-1.0625 0.14491-0.178 0.38022-0.59267 0.46716-0.82321 0.41718-1.106 0.19251-2.356-0.58136-3.2318-0.74489-0.84306-1.8393-1.2162-2.9487-1.0051-0.4599 0.08752-0.97534 0.33001-1.3426 0.63149-0.06767 0.05556-0.13781 0.10592-0.15555 0.11162-0.02779 9e-3 -0.09729-0.03084-0.5023-0.28577-1.1509-0.72448-1.8614-1.305-2.3306-1.9043-0.47323-0.60442-0.68053-1.2137-0.66973-1.9715 0.0039-0.2713 0.03254-0.54422 0.13591-1.3059 0.05118-0.37701 0.10137-0.76619 0.11162-0.86506 0.01241-0.11962 0.0259-0.18037 0.04082-0.18087 0.01233-5.29e-4 2.0027 1.1374 4.423 2.5285 2.4203 1.3911 6.0785 3.493 8.1292 4.6705l3.7285 2.141-0.65113 1.1457c-0.35815 0.63012-0.64599 1.1483-0.63975 1.1519 0.0292 0.01638 7.1435 0.03844 7.1577 0.02223 0.0171-0.01958-3.5297-6.2755-3.5574-6.2746-8e-3 2.65e-4 -0.30886 0.50689-0.66818 1.126-0.45151 0.77802-0.66017 1.126-0.67541 1.1265-0.0121 5.29e-4 -2.5564-1.458-5.6539-3.2406-3.0976-1.7827-6.058-3.4813-6.5784-3.775-0.84917-0.47913-0.94555-0.53672-0.94155-0.56276 0.0072-0.04679 1.1366-0.76363 1.5632-0.99219 1.5185-0.81354 3.0902-0.78029 5.0762 0.10749 0.26608 0.11894 0.85209 0.41343 0.91416 0.4594l0.04186 0.031-0.447 0.8046-0.44752 0.8046 2.3053 1.3322 2.3058 1.3322 1.3214-2.3244 1.3208-2.3249-2.2727-1.3188c-1.25-0.72532-2.2902-1.3239-2.3115-1.3301l-0.03824-0.01138-0.40876 0.71004-0.40928 0.71003-0.22531-0.11576c-1.0778-0.55503-1.6903-0.81201-2.481-1.0408-1.7372-0.50256-3.248-0.39125-4.7356 0.34933-0.43334 0.21572-0.72796 0.3889-1.3736 0.80615-0.61275 0.39602-0.84387 0.53012-1.0919 0.63459-0.24741 0.1042-0.53046 0.15733-0.72864 0.13643-0.07588-8e-3 -0.21572-0.08716-3.5357-1.9994-1.1891-0.68487-2.3784-1.3699-3.5672-2.0552-5.1767-3.6748-7.5701-7.8027-8.9256-10.577l0.03307 0.0088v-28.461c0.77684-3.4894 5.4126-6.1738 12.976-0.070282-5.6722-11.015-11.333-10.227-15.28 0.070282h-0.0925c-0.60638-3.0102-0.84522-3.8643-2.0996-6.813-3.5478-8.3397-7.3319-11.092-12.502-11.137zm-7.1386 53.584 8.8243 13.246-19.51 13.213-8.8243-13.246zm-16.84 19.794a1.069 0.53282 56.473 0 1 0.85938 0.63976 1.069 0.53282 56.473 0 1 0.15141 1.1886 1.069 0.53282 56.473 0 1-1.034-0.59066 1.069 0.53282 56.473 0 1-0.15141-1.1886 1.069 0.53282 56.473 0 1 0.17467-0.04909zm29.502 2.095c-0.0439 0.0051-0.10393 0.06706-0.14831 0.17415-0.07378 0.17802-0.08542 0.50674-0.07131 2.0087 0.01667 1.7629 0.01979 1.8015 0.15761 2.0888 0.19488 0.40606 0.91974 1.1087 1.4924 1.4469 1.4537 0.85874 3.6026 1.4096 6.1159 1.5679 1.3963 0.0879 3.473-0.0418 4.8178-0.30128 2.138-0.41248 3.8315-1.1796 4.6865-2.1229 0.59613-0.65764 0.67329-1.023 0.64234-3.0386-0.01799-1.1692-0.0386-1.4538-0.11989-1.6387-0.09038-0.20552-0.21704-0.25042-0.21704-0.077 0 0.14975-0.37249 0.57555-0.72606 0.82992-2.5654 1.8457-9.8212 2.2776-14.097 0.83871-0.78191-0.26312-1.251-0.48716-1.7368-0.82941-0.31368-0.22099-0.73794-0.70959-0.73794-0.85008 0-0.07041-0.02426-0.10109-0.05839-0.09715zm17.432 5.4901c-0.06001 8e-4 -0.22535 0.13777-0.42788 0.35605-0.63545 0.68492-1.5865 1.2186-2.9616 1.6614-4.6948 1.5119-11.452 0.68819-13.632-1.6614-0.21773-0.23469-0.3898-0.37311-0.43925-0.35398-0.17286 0.0669-0.20829 0.48974-0.1912 2.2769 0.01953 2.04 0.01894 2.0362 0.60875 2.6784 1.0408 1.1335 3.2231 1.9554 6.1417 2.3125 1.0145 0.12416 4.0186 0.075 4.9976-0.0817 2.6482-0.42374 4.5438-1.1926 5.4953-2.2288 0.62566-0.68138 0.70232-1.0334 0.66559-3.066-0.02559-1.416-0.0793-1.8265-0.24701-1.8914-3e-3 -1e-3 -0.0064-2e-3 -0.01035-2e-3zm-0.0078 5.6674c-0.06983-5e-3 -0.15696 0.0734-0.26562 0.22221-0.33726 0.46177-1.1963 1.0614-2.0407 1.4247-1.9007 0.81771-4.3614 1.2151-7.0202 1.1343-0.6385-0.0194-1.4776-0.076-1.865-0.12557-2.8605-0.36621-5.0185-1.256-6.0167-2.481-0.08784-0.10782-0.19438-0.18276-0.23668-0.1664-0.17868 0.0691-0.21719 0.51309-0.19947 2.2939 0.01712 1.7256 0.01984 1.7608 0.15916 2.0484 0.29954 0.61799 1.1884 1.357 2.1802 1.8133 1.3583 0.62484 3.255 1.0592 5.2529 1.2025 0.97414 0.0699 2.7847 0.0126 3.8251-0.12092 2.6907-0.34534 4.7532-1.1423 5.7893-2.236 0.65887-0.69558 0.73893-1.0487 0.70383-3.1068-0.0227-1.3289-0.08764-1.8892-0.26613-1.9027z" stroke-width=".020792"/>
</svg>
