<?xml version="1.0" encoding="UTF-8"?>
<svg width="480" height="480" version="1.1" viewBox="0 0 127 127" xmlns="http://www.w3.org/2000/svg" xmlns:cc="http://creativecommons.org/ns#" xmlns:dc="http://purl.org/dc/elements/1.1/" xmlns:rdf="http://www.w3.org/1999/02/22-rdf-syntax-ns#">
 <metadata>
  <rdf:RDF>
   <cc:Work rdf:about="">
    <dc:format>image/svg+xml</dc:format>
    <dc:type rdf:resource="http://purl.org/dc/dcmitype/StillImage"/>
    <dc:title/>
   </cc:Work>
  </rdf:RDF>
 </metadata>
 <g transform="translate(135.16 -84.667)" stroke-width=".26458">
  <path d="m-134.37 148.17v-62.706h13.758v0.52917h-1.3474l-3.812 1.8762-2.1914 1.3067-2.3427 2.7702-1.6156 2.3812-1.5231 3.7042v100.54l0.65055 1.5875 0.65054 1.5875 1.0923 1.7198 1.0923 1.7198 2.3352 2.493 1.8521 1.081 3.175 1.585 0.66146 4.2e-4v0.52917h-12.435zm113.52 62.508 0.01685-0.19844 4.6175-2.2212 3.2763-3.196 1.847-2.7849 0.7351-1.7198 0.73511-1.7198 0.073581-48.622 0.073578-48.622-0.46352-4.6204-2.0372-4.2333-4.5256-4.5241-3.7404-1.9366-2.2127-0.35382v-0.46154h13.494v125.41h-11.906zm-43.267-18.427-5.8113-2.748-0.12718-0.4543 1.8645-1.1906h0.47671l3.966-2.6909 3.0612-3.2764 1.709-3.2147 1.3948-4.9732 0.21212-9.525 0.21212-9.525 0.02191-10.993 0.02191-10.993 0.635-0.635h13.162l-0.10636 21.497-0.10636 21.497-0.86853 4.7625-0.81952 2.249-0.81952 2.249-0.95686 1.7198-0.95686 1.7198-4.2679 4.2524-2.567 1.7188-2.5748 1.3047-0.94363-2e-3 -5.8113-2.748zm-24.852-16.053-1.8235-0.25247-3.4968-0.7983-4.8256-1.856-1.2219-0.80932-1.2218-0.80933-2.6855-2.4145-1.1342-1.7466-1.1342-1.7466-1.6194-4.2333-0.27102-1.4749-0.27103-1.4749-0.36124-4.4586 0.62444-5.8208 1.3563-3.9688 1.8091-3.8365h0.49796l0.72826-1.743 1.9544-1.7837 1.9544-1.7837 5.0541-2.5961 4.4712-1.2216h11.268l0.22914-1.0583 0.2046-9.7896 0.2046-9.7896h12.957l0.21194 1.4552 0.21194 1.4552-0.15202 60.741-0.76675 0.47374-1.7333 0.3028-1.7333 0.30279-5.8208 0.77274-11.642 0.21508zm9.7386-11.383 0.24226-0.22248 0.10401-7.4836 0.10401-7.4836-0.42794-6.5993-2.6194-0.97125-3.4971-0.033-4.563 1.3918-2.8367 2.5925-1.3687 2.5608-0.71885 2.9104 0.0075 2.7781 0.0075 2.7781 0.60555 1.7198 0.60555 1.7198 0.65847 0.86596 0.65847 0.86597 1.419 1.3283 2.7585 1.3579 3.856 0.40911 4.7625-0.26306 0.24226-0.22248zm22.433-40.246-0.3175-0.3175v-13.388h13.758v14.023h-13.123z" fill="#fafbfb"/>
  <path d="m-121.93 210.61v-0.26459l-0.66146-4.2e-4 -1.5875-0.79248-1.5875-0.79249-1.8521-1.081-2.3352-2.493-2.1845-3.4396-1.3011-3.175v-100.54l0.76156-1.8521 0.76157-1.8521 0.80781-1.1906 0.80782-1.1906 1.1714-1.3851 1.1714-1.3851 2.1914-1.3067 3.812-1.8762h1.3474v-0.52917h98.16v0.46154l2.2127 0.35382 3.7404 1.9366 4.5256 4.5241 1.0186 2.1167 1.0186 2.1167 0.46352 4.6204-0.073578 48.622-0.073581 48.622-1.4702 3.4396-0.9235 1.3925-0.9235 1.3924-3.2377 3.1583-4.5576 2.2589-0.08819 0.19844-0.0882 0.19844h-101.03zm65.863-16.263 1.2874-0.65237 1.2835-0.85943 1.2835-0.85942 2.1339-2.1262 2.1339-2.1262 1.9137-3.4396 1.639-4.4979 0.86853-4.7625 0.10636-21.497 0.10636-21.497h-13.162l-0.635 0.635-0.02191 10.993-0.02191 10.993-0.21212 9.525-0.21212 9.525-0.6974 2.4866-0.6974 2.4866-1.709 3.2147-3.0612 3.2764-3.966 2.6909h-0.47671l-1.8645 1.1906 0.12718 0.4543 11.623 5.496 0.94363 2e-3 1.2874-0.65237zm-16.519-18.5 2.9104-0.38637 3.4666-0.60559 0.76675-0.47374 0.15202-60.741-0.21194-1.4552-0.21194-1.4552h-12.957l-0.2046 9.7896-0.2046 9.7896-0.11457 0.52917-0.11457 0.52917h-11.268l-4.4712 1.2216-5.0541 2.5961-3.9087 3.5674-0.72826 1.743h-0.49796l-1.8091 3.8365-0.67813 1.9844-0.67813 1.9844-0.31222 2.9104-0.31222 2.9104 0.36124 4.4586 0.27103 1.4749 0.27102 1.4749 0.80968 2.1167 0.80968 2.1167 2.2684 3.4932 2.6855 2.4145 2.4437 1.6186 4.8256 1.856 3.4968 0.7983 3.6469 0.50494 11.642-0.21508zm-13.57-10.753-1.928-0.20455-1.3793-0.67897-1.3793-0.67898-1.419-1.3283-1.3169-1.7319-1.2111-3.4396-0.0075-2.7781-0.0075-2.7781 0.71885-2.9104 0.68435-1.2804 0.68435-1.2804 2.8367-2.5925 4.563-1.3918 1.7486 0.0165 1.7486 0.0164 2.6194 0.97126 0.42794 6.5993-0.10401 7.4836-0.10401 7.4836-0.24226 0.22248-0.24226 0.22247-4.7625 0.26307-1.928-0.20456zm42.806-47.221v-7.0115h-13.758v13.388l0.635 0.635h13.123z" fill="#082b1d"/>
 </g>
</svg>
