<?xml version="1.0" encoding="UTF-8"?>
<svg width="480" height="480" version="1.1" viewBox="0 0 127 127" xmlns="http://www.w3.org/2000/svg" xmlns:cc="http://creativecommons.org/ns#" xmlns:dc="http://purl.org/dc/elements/1.1/" xmlns:rdf="http://www.w3.org/1999/02/22-rdf-syntax-ns#">
 <metadata>
  <rdf:RDF>
   <cc:Work rdf:about="">
    <dc:format>image/svg+xml</dc:format>
    <dc:type rdf:resource="http://purl.org/dc/dcmitype/StillImage"/>
    <dc:title/>
   </cc:Work>
  </rdf:RDF>
 </metadata>
 <g transform="matrix(.44662 0 0 .44662 96.083 -139.46)" stroke-width=".26458">
  <path d="m-145.29 590.77-2.1719-2.4742 8e-3 -0.21027 8e-3 -0.21026 1.7734-1.1906 1.7734-1.1906 1.472-1.4901 1.472-1.49 0.86003-1.6136 0.86003-1.6136 0.85519-4.1115 0.0989-28.515 0.0989-28.515 9.6371 0.1442 0.0717 19.447 0.0717 19.447-0.24831 9.9219-0.24831 9.9219-0.57963 2.249-0.57964 2.249-1.8681 3.5866-3.4394 3.7148-3.2342 2.2935-3.3513 1.6797-0.58425 0.22214-0.58425 0.22212zm32.722-12.686-2.0151-0.33404-3.467-1.6546-2.4006-2.6701-0.67149-1.4194-0.67149-1.4194-0.28088-1.9388-0.28088-1.9387 0.17868-1.8377 0.17869-1.8377 0.49827-1.4483 0.49828-1.4483 1.6362-2.5498 1.401-1.2805 1.401-1.2805 4.0349-1.9937 2.7693-0.76158 4.2333-0.80482 8.599-0.31374v-5.7227l-0.54221-1.4492-0.5422-1.4492-1.9198-1.6856-1.8906-0.81462-6.1393-0.23994-4.3756 0.58885-5.6247 1.6488-0.77883 0.0738-0.94362-4.2333-0.15739-0.69438-0.15738-0.69437 3.6643-1.4002 3.6646-1.0566 5.7811-1.0492h6.5444l4.0787 0.81338 3.9434 1.9142 2.4949 2.4949 1.3009 2.5827 0.42986 1.9043 0.42985 1.9043v32.836h-7.3274l-0.56262-4.0095-0.11183-0.11181-0.11184-0.11184-2.5257 1.6887-2.5257 1.6887-3.089 1.1558-2.6636 0.51774-3.9688 0.1758zm9.1763-7.0341 1.793-0.5538 3.2934-2.0008 1.3618-0.99264 8e-3 -5.2668 8e-3 -5.2668-8.039 0.34795-3.4704 0.86092-2.1167 1.0501-0.62106 0.56546-0.62106 0.56545-1.0945 2.1167-0.11929 1.9959-0.1193 1.9959 0.57921 1.3464 0.5792 1.3464 1.578 1.5118 2.2201 0.90212 2.987 0.0296 1.793-0.5538zm72.372 7.0104-2.0101-0.2903-3.175-1.5006-1.4783-1.4749-1.4783-1.4749-0.60373-1.5856-0.60372-1.5856-0.28633-1.9223-0.28634-1.9223 0.3147-2.1591 0.31469-2.1591 1.5897-3.3972 3.576-3.5756 4.4979-2.1362 4.4979-1.0949 5.1385-0.55106h5.5771v-5.801l-0.52994-1.4164-0.52993-1.4164-1.4537-1.373-2.3519-1.2128-6.2232-0.22188-4.3895 0.62668-5.2917 1.5165-0.44687 0.17335-0.44687 0.17334-0.31334-1.1466-0.31333-1.1466-0.72096-3.4031 0.1766-0.1766 3.3877-1.3312 4.7625-1.2907 4.6995-0.80984 6.9421 4e-3 4.4439 1.0653 3.229 1.7065 2.5463 2.5236 0.655 1.4307 0.65503 1.4308 0.38896 1.8656 0.38899 1.8656-0.0682 16.345-0.0682 16.345-3.9688 0.169-3.3073-0.34333v-1.1052l-0.29482-1.693-0.29483-1.693-1.1301 1.0369-4.0408 2.6191-3.7059 1.3737-3.1012 0.34841-2.8589 0.0814-2.0102-0.29033zm8.7236-6.8829 1.4371-0.42638 2.6458-1.3222 2.7781-2.0755v-10.384l-8.039 0.34795-3.4704 0.86154-2.3812 1.202-1.1578 1.243-0.53978 1.1906-0.53978 1.1906-6e-3 1.7388-6e-3 1.7388 0.42756 1.2548 0.42757 1.2548 1.8452 1.792 2.1945 0.77792 2.9467 0.0418 1.4371-0.42638zm-51.447-8.2387-4.4434-14.486-0.36181-1.1906-0.36181-1.1906-1.0491-3.4396-2.6794-8.69v-0.1736h9.9398l0.76657 2.5797 0.76657 2.5797 1.4204 4.4979 2.14 6.8792 2.9231 9.3176 0.99802 4.1371 0.99803 4.1371 0.18545-0.1969 0.18545-0.19693 1.6064-4.7625 1.8603-6.0854 2.1052-8.2021 0.69476-3.3073 0.69475-3.3073 0.64398-3.8365 0.64399-3.8365 1e-3 -0.19844 1e-3 -0.19843h9.7055l-0.98497 4.8286-0.98496 4.8286-0.84099 3.3073-0.841 3.3073-1.2662 4.4979-1.5639 5.0271-2.9018 8.2021-1.453 3.4396-1.453 3.4396-1.1904 2.7781h-11.461l-4.4434-14.486zm69.156-28.244v-1.7198h-1.0583v-0.52917h2.9104v0.52917h-1.0583v3.4396h-0.79375zm1.9561 1.3013 0.1606-0.41851v-3.1317h0.98957l0.33335 1.1906 0.33335 1.1906h0.34443l0.3887-1.1216 0.38873-1.1216 0.92604-0.1768 8e-3 2.8169 0.15954 0.59532 0.15954 0.59531h-0.85547l-0.0138-1.3891-0.0138-1.3891-0.53914 1.4032-0.53914 1.4032-0.57748-0.1924-0.28282-0.82493-0.28281-0.82494-0.19844-0.19537-0.19843-0.19538v2.2049h-0.85037l0.1606-0.41852zm-63.869-109.48v-0.0988l2.1715-2.3158 2.0444-3.0978 0.53177-1.4213 0.53177-1.4213 0.26326-1.66 0.26325-1.66-0.75346-3.5824-1.6618-3.1179-3.823-4.6768-2.2137-3.2785-0.90989-1.813-0.90988-1.813-0.66002-1.9717-0.66001-1.9717-0.63582-3.6711 0.16952-2.1332 0.16953-2.1332 0.39072-1.4552 0.39071-1.4552 2.3595-4.7625 1.7598-2.1901 1.7598-2.1901 4.3168-3.7476 3.2159-2.3045 5.7306-3.5085 5.8102-2.8634 7.7329-3.1054 6.8792-2.2057 1.4552-0.47908-0.01 0.18468-0.01 0.18467-2.2296 1.382-8.7312 5.4337-5.8208 3.9893-5.7705 4.5073-4.708 4.7621-2.5505 3.8133-0.56311 1.6675-0.56311 1.6674v4.0477l0.49257 1.4317 0.49256 1.4317 1.6157 3.1726 3.4634 5.0271 2.9236 4.3031 0.99739 2.3268 0.29905 1.3944 0.29904 1.3944-6e-3 1.2438-6e-3 1.2437-0.26476 1.1906-0.26476 1.1906-1.1152 2.6458-1.6972 2.6458-2.949 3.4396-1.7619 1.4546-1.7619 1.4546-5.1214 3.5678-0.39687 6e-3v-0.0988zm-9.1408-8.9393-2.6332-2.4049-10.054-10.163-2.157-2.7603-2.157-2.7603-2.7894-4.4907-1.7535-3.7873-0.53251-2.2838-0.53251-2.2838v-3.475l0.84244-3.2514 0.90561-1.8521 0.90562-1.8521 1.1865-1.5875 1.1865-1.5875 4.5204-4.8791 5.9311-5.1045 8.4667-6.674 6.8792-5.6318 5.5754-5.4919 1.4857-1.8521 1.4858-1.8521 2.694-4.3501 1.8509-4.4712 1.1617-4.6724-0.0268-8.2021-0.87452-3.9153 0.14304-0.14303 0.14303-0.14304 0.45694 0.61718 0.45693 0.61717 1.9788 3.186 1.1125 2.956 0.50487 2.5891 0.50486 2.5891v2.8729l-0.52484 2.7075-0.52485 2.7075-1.3343 4.0066-2.4177 4.7525-3.4492 5.1448-4.8971 5.7031-5.2406 5.0403-7.3836 6.0722-4.5538 4.043-1.2759 1.4181-1.2759 1.4181-1.1605 1.5071-1.1605 1.5071-2.27 3.8649-1.1534 2.9104-0.40046 1.9355-0.40045 1.9355v3.4328l0.43236 1.9009 0.43235 1.9009 0.62682 1.6653 0.62681 1.6653 1.8915 3.756 6.1384 9.0598 3.1098 4.6432 2.1485 3.9832-0.21842 0.21842-2.6332-2.4049z" fill="#e33031"/>
  <path d="m-88.994 505.56-6.2177-0.35513-9.525-1.0936-6.67-1.2985-4.6992-1.3618-1.7277-1.0678v-0.27879l0.62571 0.15704 0.62572 0.15705 8.4059 1.0541 5.8208 0.53613 12.141 0.79892 21.197-2e-3 12.965-0.80062 5.8208-0.52857 7.6729-0.81181 5.0271-0.78471 5.0271-0.82967 6.6146-1.2923 7.1438-1.7974 6.6146-2.1949 5.4045-2.5573 1.0019-0.73293 1.002-0.73292 1.7119-1.5825 0.29525 0.29523-0.52105 1.3713-0.52107 1.3713-1.3673 1.7926-1.979 1.9085-4.4344 2.6487-4.2968 1.7659-5.1712 1.6444-5.4121 1.2699-6.0854 1.0883-5.5562 0.82175-7.1438 0.80596-16.404 1.0334-21.167-0.0616-6.2177-0.35512zm-5.6885-8.8582-5.2917-0.20268-11.112-0.84229-7.9375-0.8209-7.9375-1.0394-5.5562-0.81763-5.2917-1.041-3.4302-1.1688-2.2584-2.1582v-1.5986l1.4552-2.1578 2.5362-1.9321 3.02-1.707 4.7625-1.9086 1.7198-0.53324 1.7198-0.53323 2.9104-0.80099 4.7625-0.78816 1.6119-0.17205 1.6119-0.17204 1.4308 0.26574 1.4308 0.26575 1.5875 0.64336-1.3229 0.40217-2.2805 0.0528-5.657 1.2816-3.9688 1.416-1.1906 0.56161-1.1906 0.5616-2.2844 1.5207-0.4147 1.121 0.12703 0.48578 0.12704 0.48577 2.4489 1.2409 4.6432 1.4162 5.9364 1.2516 8.2021 1.0879 10.319 0.80095 16.933 0.57333 15.61-0.32173 5.5562-0.27984 12.171-0.78065 10.515-1.064 8.7998-1.3016 1.9844-0.36819 1.9844-0.36818 5.5126-1.4004 3.691-1.5508 1.039-0.72003 1.039-0.72003 0.37846-0.73187 0.37846-0.73186v-1.4815l-0.52427-0.8599-0.5243-0.85989h0.37817l1.2336 0.84177 1.2335 0.84177 0.85112 1.4408v1.1353l-0.74862 1.4289-0.88246 0.83593-0.88247 0.83593-2.7918 1.6298-4.8811 2.0678-5.2917 1.6234-7.6729 1.8229-6.0854 1.0897-6.8792 1.0514-6.8792 0.81739-9.525 0.79541-13.494 0.51863-12.171-0.0738-5.2917-0.20268zm13.626-18.154-1.7198-0.0814-7.6507-0.84115-4.7847-1.0395-1.4552-0.40482-1.4552-0.40483-1.3802-0.49988-1.3802-0.49989-3.5366-1.7244-1.2787-1.1497-1.2787-1.1497-0.59909-1.9996 0.9175-1.9335 1.9216-1.5131 2.6925-1.3576 3.2439-1.0928h0.58354l-1.8898 1.7823v1.3543l0.69785 0.54892 0.69784 0.54893 2.6373 0.7832 5.8888 0.78566 7.4083 0.62645 10.848-8e-3 7.9975-0.84205 10.259-1.693 9.8093 4.844h0.64172v0.464l-1.2568 0.53567-1.2568 0.53566-4.7625 1.6765-6.8792 1.7667-5.8208 1.0976-5.0271 0.54908-7.4083 0.50728-3.7042-0.0906-1.7198-0.0814zm-6.7469-21.265-4.2333-0.23529-7.5791-1.0733-3.798-0.83757-4.2328-1.3097-3.1755-1.599-1.9797-1.9104-0.3263-1.7393 1.0311-1.9943 3.9207-2.6649 4.2333-1.6378 0.92604-0.31088v0.42031l-0.68659 0.64144-0.6866 0.64143-0.74347 1.4289v1.5667l1.5711 1.322 2.53 0.81171 7.1438 0.83726 7.4083 0.43559 12.435 0.012 7.1438-0.4537 8.2021-1.0531 5.5562-0.83154 5.7934-1.0362 0.80749 0.75287 0.80749 0.75288 1.6771 1.1479 4.3337 2.3156-1.7775 0.57132-5.1641 1.327-7.8005 1.5777-6.6146 1.0308-5.0271 0.58793-6.6146 0.49543-10.848 0.24475-4.2333-0.2353zm54.636-1.545v-0.23885l2.8678-1.9035h0.32541l6.2758-3.9024 4.4216-3.332 4.4575-4.5396 2.2167-3.4396 0.55341-1.2631 0.5534-1.2631 0.31366-1.5944 0.31369-1.5944-0.16311-1.7466-0.16309-1.7466-0.78492-1.6774-0.78494-1.6773-2.6776-2.6776-4.0809-1.938-4.8216-0.21088-4.3109 1.1174h-0.2786v-0.46473l2.7848-1.9179 3.6975-1.1152 7.1438-0.074 3.8739 1.2172 3.725 2.2224 2.7546 2.9675 0.72737 1.5362 0.72736 1.5362 0.42159 1.8668 0.42156 1.8668-0.33142 1.9924-0.33139 1.9924-0.55295 1.3229-0.55295 1.3229-1.6672 2.6458-1.4327 1.638-1.4327 1.638-3.175 2.6068-3.8251 2.4698-5.1707 2.5765-2.1167 0.88878-3.7042 1.3527-6.0387 1.7783h-0.179zm-66.278-18.723-1.3229-0.0813-11.377-0.83738-6.9584-1.0092-5.1333-1.3337-2.4604-1.0879-0.7276-0.69677-0.7276-0.69678v-1.4337l1.9836-1.7416 5.8216-2.7477 5.2917-1.9026 5.5562-1.5817 5.7184-1.1019 5.3942-0.48649 3.7042 0.024-2.1167 0.68426-4.2333 1.188-5.8208 1.8301-4.9357 2.0963-1.9956 1.3206-0.34456 0.64381-0.34455 0.64381 0.37061 0.44889 0.37061 0.4489 2.3078 1.0231 5.6297 1.0237 9.2604 0.50039 13.758-3.4e-4 12.257-0.49446 11.026-0.84505 11.642-1.3112 12.965-1.8671 1.0512-0.23325 1.0512-0.23324 0.23483 0.23483-0.22048 0.1428-2.6458 1.2159-6.2183 3.4431-4.1005 0.96673-5.8208 1.0881-5.1358 0.81338-9.1517 1.0283-7.9375 0.56319-9.7896 0.52774-14.552-0.095-1.3229-0.0813z" fill="#176fb7"/>
 </g>
</svg>
