<?xml version="1.0" encoding="UTF-8"?>
<svg width="480" height="480" version="1.1" viewBox="0 0 127 127" xmlns="http://www.w3.org/2000/svg" xmlns:cc="http://creativecommons.org/ns#" xmlns:dc="http://purl.org/dc/elements/1.1/" xmlns:rdf="http://www.w3.org/1999/02/22-rdf-syntax-ns#">
 <metadata>
  <rdf:RDF>
   <cc:Work rdf:about="">
    <dc:format>image/svg+xml</dc:format>
    <dc:type rdf:resource="http://purl.org/dc/dcmitype/StillImage"/>
    <dc:title/>
   </cc:Work>
  </rdf:RDF>
 </metadata>
 <path d="m37.124 105.49-1.715-0.40393-1.2804-0.95595-1.2804-0.95596-0.9402-1.7531-0.94019-1.7531v-4.4479l2.0854-3.7104 3.3095-2.2677h5.1275l3.6353 2.4669 0.15757-1.1013 0.15754-1.1013 1.7774-0.33896v16.399l-0.88869-0.16928-0.88867-0.16948-0.15754-1.1013-0.15757-1.1013-3.6353 2.467h-1.2987l-1.3526 0.40191zm6.4123-3.821 1.6504-1.748v-5.0152l-2.6132-3.1056-1.9756-0.53198-1.9756-0.53199-3.5696 1.4915-2.0497 3.3619v3.5547l2.0475 3.3583 3.2808 1.4603 1.7774-0.27291 1.7774-0.27289zm29.824 3.859-1.5341-0.36791-2.5796-1.6902-1.1117-1.978-1.1117-1.978v-4.2938l2.1-3.693 2.6781-1.9815 2.8161-0.1981 2.8161-0.19807 3.7475 2.5594 0.15756-1.1013 0.15758-1.1013 1.7774-0.33896v16.399l-1.7328-0.33358-0.29786-1.2618-0.29785-1.2618-0.42183 0.68254-0.42183 0.68252-2.0956 0.95162-2.0956 0.9516-1.0156-0.0818zm3.2502-1.8772 1.5892-0.31783 3.0424-3.1118v-5.3153l-1.3022-1.5476-1.3022-1.5476-3.4894-0.96348-3.5109 0.96942-1.1051 1.552-1.1051 1.552-0.21415 2.1118-0.21411 2.1118 2.1069 3.3583 3.2808 1.4262 0.3174 0.0198 0.31738 0.0198 1.5892-0.31781zm-72.749 1.4333-0.25213-0.40797 2.9908-20.689 0.1453-0.14528 0.14529-0.1453 8.565 17.225 0.26584-5e-3 0.26584-6e-3 8.0249-16.745h0.71351l2.8924 20.785-0.33449 0.33449-0.33449 0.33448-0.72392-0.27779-0.72392-0.27781-0.91197-7.1483-0.91197-7.1483h-0.60964l-3.5257 7.1094-3.5257 7.1094h-0.78406l-7.5705-14.981-0.03469 0.50783-0.03469 0.50782-2.0154 14.19v0.28329h-1.4635zm46.911-7.7171v-8.1251h2.0313v2.2083l2.3506-2.2083h2.7275l-0.0082 0.38086-0.0082 0.38086-0.37308 0.58358-0.37309 0.58358-2.5296 0.35621-0.7472 1.5235-0.7472 1.5234-0.20242 5.459-0.20241 5.459h-1.919v-8.1251zm10.156 0v-8.1251h2.0313v16.25h-2.0313zm27.17 7.5515-0.27804-0.72458 0.13799-10.142 0.138-10.142 10.156 0.27638 2.2844 1.1314 2.2844 1.1315 2.2888 3.4542 1.1458 4.163-0.55466 2.7018-0.55465 2.7018-2.1082 3.4111-4.3034 2.0832-10.359 0.67886zm10.509-2.2848 1.37-0.25756 1.5236-1.5584 1.5236-1.5584 0.48738-2.2852 0.48739-2.2852-0.64233-2.4763-0.64234-2.4762-1.7611-1.946-1.6042-0.74688-1.6042-0.7469-7.6172-0.35546-0.14049 8.1047-0.1403 8.1047 0.26693 0.69562 0.26695 0.69563 6.8563-0.65057zm12.087-8.0573v-11.066l7.1876 0.66804 1.4228 0.73575 1.4228 0.73576 0.31545 0.82204 0.31544 0.82204v3.867l-0.94151 1.1627-0.94153 1.1627 1.9572 1.8618 1.9572 1.8618v3.2546l-0.7703 1.4896-0.77032 1.4896-1.5213 0.78672-1.5214 0.78672-8.1121 0.62556zm9.1157 7.1337 1.1676-1.2429v-2.6911l-2.0049-2.0049-3.962-0.91902-2.2852-0.02202v8.1251h5.9168zm-1.4778-10.202 0.99503-0.9005v-2.7321l-0.92579-0.83782-0.9258-0.83784-4.75-0.65106v7.3796l4.6116-0.51979zm-57.288-5.4002-0.62419-0.6242v-1.196l0.69735-0.57876 0.69736-0.57876 0.85356 0.32754 0.85357 0.32755-0.15451 1.3273-0.1545 1.3273-1.5446 0.29213zm2.7319-5.1184 0.36908-0.63478 2.7373-3.5547 0.83132-1.6252 0.83129-1.6252v-0.86949l-12.949-1.7431-9.6485 0.05617-5.0782 1.7698-3.1703 2.162-3.1704 2.1619-4.8312 2.1009-8.1992 0.537-2.211-1.1833v-1.403l2.793-2.0838-1.0296-0.01542-1.0296-0.01529-1.1371-0.79647-1.1371-0.79647 0.25421-0.41134 0.25421-0.41131 3.7778-1.7927 10.619-1.2998 1.3159-0.97269 1.3159-0.97268 4.4743-6.3759 6.1898-4.5983 3.0469-1.386 3.0469-1.386 11.534-2.7372 7.1063-2.4042 4.0479-2.8052 3.9613-4.5003 3.1156-5.0411 3.1156-5.0411 2.4929-2.7276 2.4929-2.7276 4.4893-2.1732 4.4791-0.67304 4.4791-0.673 4.3355-1.2989 1.6083 1.6084-0.35493 2.4566-0.35495 2.4566-9.9825 9.6485-0.542 2.0313-0.54198 2.0313-5.2595 21.328 0.08536 2.4544 0.08536 2.4543 1.4559 3.4846 0.78466 0.3011 0.78465 0.3011v0.80761l-3.1984 1.115h-4.4856l-1.1092-0.57128-1.1092-0.57128-1.1237-1.023-1.1237-1.0229-2.4947 1.6346-1.9454 2.7928-1.9454 2.7928-2.2852 1.2367-2.2852 1.2367-5.5164 1.62h-3.4303l0.3691-0.63478zm9.5456-3.6269 2.2476-1.3172 3.5472-4.1441 1.8618-3.8181 1.8618-3.818 0.18502 0.18502 0.18503 0.18502 0.26246 1.4474 0.26247 1.4473 0.25106 0.25107 0.25107 0.25109 1.4705-1.2021 1.4705-1.2021 2.5702-3.5547 3.2491-7.6173 2.0053-8.3016 2.0053-8.3016 0.7184-1.3892 0.71838-1.3892 7.4975-5.6431 0.81653-1.686 0.81656-1.686-0.2481-0.40142-0.24809-0.40141h-1.9209l-0.41167-0.73561-0.41168-0.73563-4.0514 0.9392-3.9447 0.02202-4.0299 1.2074-2.4593 2.2112-2.4594 2.2112-8.1184 12.906-4.3791 4.1874-4.5703 2.5981-5.586 2.1891-11.172 2.4408-9.4967 4.6757-1.9673 1.7774-1.9673 1.7773-5.154 6.9523-1.6254 0.51178-1.6254 0.51177-10.482 1.0053-0.72579 0.60237-0.72581 0.60236v0.89127h4.6061l-0.48637 0.90877-0.48635 0.90878-2.6177 1.401v0.84402h7.1348l5.8145-2.0436 6.0584-3.7395 5.1135-2.5959 14.727 0.36698 9.1407 0.14098 1.6506-3.4278 1.6506-3.4278h1.0152l-0.0082 0.88868-0.0082 0.88867-0.77469 3.3008-0.77468 3.3008-1.6607 2.793-1.6608 2.793-0.91077 1.3881-0.9108 1.3881 4.6661-1.4043 2.2476-1.3172zm20.614-48.269v-0.73292l2.2573-1.5811h1.8053v1.8281l-1.2188 1.2188h-2.8438zm6.2715 0.19972 0.10148-0.55859h0.96486l0.1783 0.67284 0.17831 0.67286-0.48502-0.69224-0.485-0.69222-0.2773 0.57796-0.27728 0.57799zm3.1557-1.3492-0.34672-0.91058 0.63101 0.62631 0.63099 0.62631-0.56854 0.56856zm-2.0116-0.06429-0.26153-0.42318h1.4341l-0.26156 0.42318-0.26152 0.42319h-0.38795zm2.2375-1.3486-0.62752-0.75612-0.57724 0.3458-0.57723 0.34578 1.4143-1.7429 0.3085 0.30848 0.30851 0.30852 0.016 0.67707 0.8061 1.2695h-0.44339l-0.62754-0.75614zm-11.391 43.997-0.74814-1.4467-0.59726-2.3719-0.59726-2.3719-0.78357 0.64481-0.78359 0.64481-1.4295 1.9678-1.4296 1.9677 0.61128 0.98905 1.5894 0.69169 1.5894 0.6917 1.6634 0.01996 1.6634 0.01982-0.74814-1.4467z" fill="#0f2c58" stroke-width=".50782"/>
</svg>
