<?xml version="1.0" encoding="UTF-8"?>
<svg width="480" height="480" version="1.1" viewBox="0 0 127 127" xmlns="http://www.w3.org/2000/svg" xmlns:cc="http://creativecommons.org/ns#" xmlns:dc="http://purl.org/dc/elements/1.1/" xmlns:rdf="http://www.w3.org/1999/02/22-rdf-syntax-ns#">
 <metadata>
  <rdf:RDF>
   <cc:Work rdf:about="">
    <dc:format>image/svg+xml</dc:format>
    <dc:type rdf:resource="http://purl.org/dc/dcmitype/StillImage"/>
    <dc:title/>
   </cc:Work>
  </rdf:RDF>
 </metadata>
 <g transform="translate(-327.45 -88.372)" stroke-width=".26458">
  <path d="m375.87 181.27v-25.636l-0.40234-0.15439-0.40235-0.1544-13.351 4e-3 -1.9844-0.018v-11.112h45.519l-0.0714 5.5752-0.0714 5.5752-15.875 0.0944-0.135 51.461h-13.227zm42.73 25.473-0.79375-0.12176-4.4979-0.80037-5.8967-1.8254-0.17263-0.44985-0.17262-0.44985 0.115-11.138 0.15308-0.7395 0.15308-0.73951 3.3535 2.3649 1.9105 0.94397 1.9104 0.94398 4.2026 1.1479 3.8365 0.0235 3.8365 0.0236 1.5871-0.5984 1.5871-0.59839 1.191-1.191 1.191-1.191v-4.4454l-1.5938-2.2945-4.4916-2.9748-10.054-5.1147-4.1105-2.9126-2.3172-2.9524-1.4314-2.9233-1.0916-3.2306-6e-3 -3.3073-6e-3 -3.3073 0.96036-3.175 0.82584-1.7073 0.82585-1.7073 3.9688-4.0112 3.9688-1.9473 2.9104-1.0382 4.2333-0.96566 10.583 4e-3 3.9688 0.95007 3.175 0.7914 0.61298 0.30545 0.61297 0.30545-0.0838 5.8774-0.0838 5.8774-0.32211 0.32107-3.9112-2.0052-2.6458-0.88383-3.8086-0.8286h-5.4729l-3.005 0.7827-1.32 0.94832-1.32 0.94832-1.0808 1.7487v3.4683l0.87263 1.145 0.87262 1.145 1.9203 1.2696 1.9203 1.2696 6.7172 3.4842 4.2333 2.4141 1.8521 1.3286 1.3899 1.1574 1.3899 1.1574 2.2793 3.0004 0.44264 0.95671 0.44264 0.95672 0.86528 3.6428 4e-3 6.6146-0.45214 1.7198-0.45215 1.7198-0.80691 1.5187-0.80692 1.5187-3.2376 3.3676-2.9092 1.8496-3.6062 1.4333-4.5959 1.0459-9.525 0.20469-0.79375-0.12176z" fill="#f9fcfc"/>
  <path d="m328.25 151.87v-62.706h125.41v125.41h-125.41zm60.919 29.303 0.0675-25.731 15.875-0.0944 0.0714-5.5752 0.0714-5.5752h-45.519v11.112l1.9844 0.018 13.351-4e-3 0.80469 0.30879v51.273h13.227l0.0675-25.731zm42.053 24.961 2.2979-0.52296 3.6062-1.4333 2.9092-1.8496 3.2376-3.3676 1.6138-3.0374 0.90428-3.4396-4e-3 -6.6146-0.43265-1.8214-0.43264-1.8214-0.44264-0.95671-0.44264-0.95672-1.1396-1.5002-1.1396-1.5002-2.7798-2.3148-1.8521-1.3286-2.1167-1.207-2.1167-1.207-6.7172-3.4842-3.8406-2.5392-1.7453-2.2901v-3.4683l0.54039-0.87438 0.54039-0.87436 2.64-1.8966 3.005-0.7827h5.4729l3.8086 0.8286 2.6458 0.88383 3.9112 2.0052 0.16106-0.16053 0.16105-0.16053 0.0838-5.8774 0.0838-5.8774-0.61297-0.30545-0.61297-0.30546-3.175-0.7914-1.9844-0.47503-1.9844-0.47504-10.583-4e-3 -4.2333 0.96566-2.9104 1.0382-3.9688 1.9473-1.9844 2.0056-1.9844 2.0056-0.82584 1.7073-0.82585 1.7073-0.96036 3.175 6e-3 3.3073 6e-3 3.3073 0.54579 1.6153 0.54578 1.6153 0.71571 1.4617 0.71571 1.4617 2.3172 2.9524 4.1105 2.9126 10.054 5.1147 4.4916 2.9748 1.5938 2.2945v4.4454l-1.191 1.191-1.191 1.191-1.5871 0.5984-1.5872 0.59824-3.8365-0.0235-3.8365-0.0236-4.2026-1.1479-3.8209-1.8879-3.3535-2.3649-0.15308 0.7395-0.15308 0.73951-0.115 11.138 0.17262 0.44985 0.17263 0.44985 5.8967 1.8254 4.4979 0.80037 1.5875 0.24352 9.525-0.20469 2.2979-0.52296z" fill="#0072bf"/>
 </g>
</svg>
