<?xml version="1.0" encoding="UTF-8"?>
<svg width="480" height="480" version="1.1" viewBox="0 0 127 127" xmlns="http://www.w3.org/2000/svg" xmlns:cc="http://creativecommons.org/ns#" xmlns:dc="http://purl.org/dc/elements/1.1/" xmlns:rdf="http://www.w3.org/1999/02/22-rdf-syntax-ns#">
 <metadata>
  <rdf:RDF>
   <cc:Work rdf:about="">
    <dc:format>image/svg+xml</dc:format>
    <dc:type rdf:resource="http://purl.org/dc/dcmitype/StillImage"/>
    <dc:title/>
   </cc:Work>
  </rdf:RDF>
 </metadata>
 <path d="m56.82 122.94-2.4311-0.295-1.9681-0.38974-1.9681-0.38975-5.0938-1.415-5.2026-2.0072-6.0232-3.0628-5.063-3.3827-3.6233-2.9439-4.5568-4.4021-3.7785-4.5524-3.5565-5.2971-3.0626-6.023-1.0019-2.6013-1.0018-2.6013-1.2336-4.3109-0.4628-2.2437-0.46281-2.2437-0.67899-5.7855v-7.1833l0.67899-5.7855 0.46281-2.2437 0.4628-2.2437 1.2336-4.3109 1.0018-2.6013 1.0019-2.6013 1.5314-3.0116 1.5314-3.0116 3.3827-5.063 2.9439-3.6233 4.4021-4.5568 4.5524-3.7785 2.6485-1.7783 2.6485-1.7782 6.023-3.0626 5.2026-2.0037 4.3109-1.2336 4.4875-0.92561 5.7855-0.67899h7.1833l5.7855 0.67899 4.4875 0.92561 4.3109 1.2336 5.2026 2.0037 6.023 3.0626 5.2971 3.5565 4.5524 3.7785 4.4021 4.5568 2.9439 3.6233 1.6914 2.5315 1.6914 2.5315 1.5314 3.0116 1.5314 3.0116 2.0037 5.2026 1.2336 4.3109 0.46281 2.2437 0.4628 2.2437 0.679 5.7855v7.1833l-0.679 5.7855-0.4628 2.2437-0.46281 2.2437-1.2336 4.3109-2.0037 5.2026-1.5313 3.0115-1.5313 3.0115-3.5565 5.2971-3.7785 4.5524-4.5568 4.4021-3.6233 2.9439-5.063 3.3827-6.0232 3.0628-5.2026 2.0037-4.3109 1.2336-2.2437 0.46281-2.2437 0.4628-5.7855 0.67899-7.875-0.0502zm14.37-6.1577 3.1401-0.44089 5.9855-1.6405 0.36361-0.3636-0.32995-0.79348-0.32995-0.79348-15.362-42.126-0.12917-0.20901-0.12917-0.209-15.443 44.859-0.0035 0.15345-0.0035 0.15346 4.978 1.1692 3.7046 0.55462 5.0938 0.32684 5.3253-0.20013 3.1401-0.4409zm-30.633-5.1317-0.10532-0.28941-24.217-66.451-0.17251-0.19432-0.17252-0.19432-1.8691 4.7878-0.71976 2.702-0.71976 2.702-0.92627 6.1728-0.0093 4.3992-0.0093 4.3992 0.47918 3.2558 0.47918 3.2559 1.5844 5.7809 0.86128 2.189 0.86128 2.189 2.2956 4.5932 2.2951 3.7005 3.1848 4.2373 4.2776 4.5199 4.3982 3.6711 2.2197 1.4864 2.2197 1.4865 3.473 1.8832 0.39685 8e-3 -0.10532-0.28942zm51.766-2.9902 2.1219-1.4274 3.2415-2.5774 3.8809-3.7135 3.6584-4.3767 1.4986-2.2511 1.4986-2.2511 2.7525-5.2448 0.95573-2.4137 0.95575-2.4137 1.5881-5.7946 0.47873-3.2559 0.47872-3.2558v-8.5668l-0.47872-3.2558-0.47873-3.2559-1.5881-5.7946-1.8221-4.5958-0.82209-1.6207-0.82208-1.6208 0.12442 3.1257 0.12442 3.1257-0.27368 2.5469-0.27369 2.5469-0.93626 4.6307-1.449 4.2834-1.449 4.2834-15.358 44.326v0.24436h0.27111zm-35.997-28.617 5.6411-16.841-7.9607-21.764-0.32568-0.33838-6.1585-0.63764-0.50245-0.50244-0.50245-0.50245v-2.1111l1.3716-1.1798 5.806 0.32748 8.7983 0.37748 9.0299-0.38437 5.8571-0.32644 0.60234 0.60234 0.60234 0.60234v1.8475l-1.0604 1.2328-4.3807 0.434-2.3305 0.32707 18.384 54.642 0.14622 0.46307 0.14622 0.46307 5.2567-17.365 0.84512-2.3154 0.84513-2.3154 1.3796-5.1643 0.6803-3.8656 2.27e-4 -2.9265 2.36e-4 -2.9265-0.3606-1.9009-0.3606-1.9009-1.1895-3.3111-0.88138-1.7583-0.88138-1.7583-3.3532-5.5132-1.5367-3.3195-0.6912-2.932-0.0035-1.3069-0.0035-1.3069 0.91506-2.9626 0.72541-1.0952 0.72542-1.0952 1.9544-1.6015 1.091-0.48259 1.091-0.48258 2.7661-0.31713-3.9597-3.2415-4.7297-3.1713-6.483-3.189-2.2586-0.81007-2.2586-0.81008-4.5127-1.1373-4.2699-0.73441-6.4963-0.40667-6.4965 0.40667-4.2699 0.73441-4.5127 1.1373-4.5172 1.6202-6.483 3.1902-4.8622 3.2519-4.4384 3.7055-4.3055 4.548-3.4563 4.6307 1.2379 0.1712 1.2379 0.1712 5.0938-0.22397 10.221-0.52594 1.0474 0.56055 0.66325 1.5874-0.27856 1.1099-1.0858 1.0201-4.0845 0.42516-2.458 0.25608 0.07132 0.31267 0.07132 0.31266 18.523 55.132 0.11577-2.28e-4 0.11577-2.36e-4 5.6411-16.841z" fill="#0186bd" stroke-width=".23154"/>
</svg>
