<?xml version="1.0" encoding="UTF-8" standalone="no"?>
<!-- Created with Inkscape (http://www.inkscape.org/) -->

<svg
   version="1.1"
   id="svg2"
   width="400"
   height="400"
   viewBox="0 0 400 400"
   xmlns="http://www.w3.org/2000/svg"
   xmlns:svg="http://www.w3.org/2000/svg">
  <defs
     id="defs6" />
  <g
     id="g8">
    <path
       style="fill:#002e06;fill-opacity:1"
       d="M -1.25e-6,200 V 1.5000001e-7 H 200 400 V 200 400 H 200 -1.25e-6 Z M 224.22724,340.06711 C 231.93548,337.11453 234,334.32558 234,326.86514 c 0,-5.93348 -0.76131,-7.0626 -2.96866,-4.4029 -0.66745,0.80423 -3.76005,2.46444 -6.87244,3.68935 -4.73806,1.86471 -7.6116,2.22712 -17.6589,2.22712 -10.0473,0 -12.92084,-0.36241 -17.6589,-2.22712 -3.11239,-1.22491 -6.20499,-2.88512 -6.87244,-3.68935 -2.20096,-2.652 -2.96866,-1.53606 -2.96866,4.31525 0,8.66453 3.19868,11.94662 14.5,14.8781 7.55776,1.96042 23.63154,1.12947 30.72724,-1.58848 z m -9.89501,-15.0945 c 8.08309,-1.16861 16.17273,-4.42776 18.21006,-7.33645 C 233.4416,316.35222 234,313.16181 234,309.30763 v -6.24736 l -3.67211,2.49197 c -12.50394,8.4854 -36.75773,7.92147 -49.07789,-1.14111 L 179,302.75606 v 6.67834 c 0,6.18057 0.22913,6.88762 3.07407,9.48607 1.69074,1.54425 5.62824,3.53799 8.75,4.43052 9.72457,2.78033 13.6301,3.04974 23.50816,1.62162 z M 222.5,306.47448 c 2.75,-0.92405 6.4625,-2.78173 8.25,-4.12818 3.09146,-2.32866 3.25,-2.77024 3.25,-9.05218 0,-6.29568 -0.084,-6.52804 -1.79965,-4.97544 -8.30552,7.51639 -42.12574,7.98934 -49.95151,0.69852 -1.19087,-1.10946 -2.40903,-2.0172 -2.70703,-2.0172 -0.95713,0 -0.5772,11.06535 0.44554,12.97636 4.10936,7.67841 28.09105,11.34404 42.51265,6.49812 z m -84.95313,-21.57527 c 16.47422,-11.05544 30.96563,-21.03388 32.20313,-22.17432 3.69283,-3.40318 3.0227,-8.2519 -2.25,-16.27973 -2.475,-3.76825 -4.5,-7.11528 -4.5,-7.43783 0,-0.32255 3.2625,-2.32704 7.25,-4.45442 8.72271,-4.65367 24.11711,-19.70258 29.03917,-28.38747 L 202.5,200.5 l 0.26264,36.40403 c 0.14445,20.02222 0.13148,36.53518 -0.0288,36.69547 -0.1603,0.1603 -3.42405,0.79189 -7.2528,1.40353 -18.60027,2.97141 -20.30437,11.82226 -2.98103,15.48301 12.84344,2.71406 31.59209,1.0477 37.5,-3.33296 6.81748,-5.05511 0.95271,-9.90714 -15.25,-12.61662 l -3.75,-0.62709 0.0349,-36.20468 0.0349,-36.20469 3.57443,6.28221 c 7.29014,12.81274 20.82705,26.00196 34.35245,33.47012 l 3.1736,1.75233 -0.63551,7.24767 c -0.76788,8.75728 0.69559,11.76115 8.441,17.32568 4.10291,2.94764 5.02431,4.15667 5.02431,6.59272 0,3.82416 4.803,8.82927 8.47274,8.82927 9.13714,0 13.80732,-9.87379 7.60418,-16.07692 -2.22548,-2.22548 -3.84831,-2.92308 -6.8,-2.92308 -2.1323,0 -4.39875,0.52183 -5.03653,1.15961 -0.87949,0.87949 -2.14376,0.50834 -5.23353,-1.53637 -5.12351,-3.39058 -7.51379,-8.10755 -6.59371,-13.01199 0.37261,-1.98619 0.81506,-3.61125 0.98322,-3.61125 0.63699,0 10.55673,5.47082 22.60363,12.4661 6.875,3.99211 12.95,7.43317 13.5,7.64681 3.58362,1.392 12.5,7.28398 12.5,8.26004 0,0.65012 -0.7209,2.21127 -1.602,3.46921 -0.8811,1.25795 -1.39027,2.4989 -1.1315,2.75767 0.25877,0.25878 5.19804,0.34218 10.97614,0.18534 L 325.74828,281.5 320.87953,273 c -2.6778,-4.675 -5.09617,-8.95 -5.37413,-9.5 -0.30418,-0.60186 -0.73587,-0.50765 -1.08427,0.23662 -0.31838,0.68014 -1.33088,2.12897 -2.25,3.21961 -1.6623,1.97251 -1.69491,1.97095 -6.17113,-0.29425 -2.475,-1.25248 -10.125,-5.53194 -17,-9.50992 -6.875,-3.97797 -13.48632,-7.77704 -14.69183,-8.44237 -3.15958,-1.7438 -2.97015,-2.88541 0.8157,-4.91579 4.07433,-2.18508 9.72525,-2.30161 14.51733,-0.29935 2.76239,1.1542 3.42138,1.89431 2.89379,3.25 -0.37575,0.9655 -0.76233,2.15752 -0.85908,2.64895 -0.24926,1.26606 12.66244,8.66815 13.558,7.77259 0.40665,-0.40665 2.33613,-3.39105 4.28773,-6.63201 4.05209,-6.72916 4.15939,-6.46617 -4.64793,-11.39236 -5.60149,-3.13307 -5.63235,-3.13783 -7,-1.08042 L 296.5,240.12783 292,238.08588 c -6.98214,-3.16827 -13.42449,-2.76201 -21.14144,1.33318 l -6.44285,3.41905 -11.95785,-6.61621 c -10.06584,-5.56937 -13.46787,-8.12771 -21.50133,-16.16906 -6.25367,-6.2598 -10.64882,-11.6694 -12.75,-15.69282 L 215,198.22005 l 0.002,-43.36003 c 10e-4,-39.29045 0.16566,-43.68532 1.75,-46.826 4.97693,-9.86587 20.48516,-9.58263 33.85941,0.61841 l 3.64003,2.77639 -2.57165,-5.07491 c -3.74861,-7.39752 -11.8924,-15.887959 -17.17399,-17.905018 -4.94271,-1.887638 -8.30727,-1.438191 -12.71174,1.698074 -3.23688,2.304866 -9.7973,11.588874 -12.30185,17.409044 l -1.69719,3.94399 -1.69474,-6.02638 c -2.876,-10.225238 -8.20084,-22.371477 -13.08143,-29.83833 -8.79446,-13.454746 -20.69084,-19.64582 -34.99268,-18.210786 -6.843,0.686621 -22.70688,4.421142 -29.52617,6.950767 -3.99367,1.481456 -3.99509,1.483917 -0.89894,1.554267 3.99014,0.09066 10.22368,3.438679 21.56592,11.582981 13.27661,9.533288 25.46492,15.247503 35.33302,16.565083 9.82806,1.31224 11.98176,2.310528 13.95475,6.468288 1.32462,2.79143 1.54525,9.87594 1.54525,49.61859 v 46.36222 l -3.65931,5.48665 c -4.96427,7.44327 -8.59181,11.56069 -15.47814,17.56837 C 174.66228,224.99087 161.99973,233 159.64804,233 c -0.77722,0 -3.34755,-3.0375 -5.71185,-6.75 -5.35835,-8.41385 -6.37469,-9.25 -11.24334,-9.25 -2.8715,0 -5.1686,0.90347 -8.55887,3.36627 -2.54869,1.85144 -16.14414,11.06805 -30.21211,20.48135 -14.067982,9.41329 -26.420482,18.04585 -27.450002,19.18347 -3.72808,4.11947 -2.55611,7.44537 8.44679,23.97098 C 97.817628,303.37544 99.292671,305 103.98396,305 c 3.03323,0 8.39394,-3.21053 33.56291,-20.10079 z M 104.54392,294.75 c -1.96682,-2.8875 -4.603759,-6.825 -5.859859,-8.75 -1.256113,-1.925 -5.554473,-8.33099 -9.551913,-14.23553 -3.99743,-5.90454 -6.98376,-11.19555 -6.63627,-11.7578 0.34749,-0.56225 8.14057,-6.04286 17.317963,-12.17913 9.177389,-6.13628 22.180969,-14.89291 28.896849,-19.45918 l 12.21069,-8.30232 12.68935,18.71698 c 6.97915,10.29434 12.88547,19.45152 13.12517,20.34929 0.32113,1.20277 -5.57331,5.65158 -22.40005,16.90637 -12.55972,8.40073 -25.593,17.22869 -28.96284,19.61769 -3.36985,2.389 -6.38035,4.34363 -6.69002,4.34363 -0.30967,0 -2.17225,-2.3625 -4.13907,-5.25 z M 89.657428,283.9213 c -2.15776,-3.08064 -0.89959,-4.6079 1.67504,-2.03328 1.51448,1.51448 1.78821,2.3913 0.99437,3.18514 -0.79384,0.79384 -1.52868,0.47676 -2.66941,-1.15186 z"
       id="path293" />
  </g>
</svg>
