<?xml version="1.0" encoding="UTF-8"?>
<svg width="256" height="256" version="1.1" viewBox="0 0 256 256" xml:space="preserve" xmlns="http://www.w3.org/2000/svg" xmlns:cc="http://creativecommons.org/ns#" xmlns:dc="http://purl.org/dc/elements/1.1/" xmlns:rdf="http://www.w3.org/1999/02/22-rdf-syntax-ns#"><metadata><rdf:RDF><cc:Work rdf:about=""><dc:format>image/svg+xml</dc:format><dc:type rdf:resource="http://purl.org/dc/dcmitype/StillImage"/><dc:title/></cc:Work></rdf:RDF></metadata>
<desc>Created with Fabric.js 1.7.22</desc>

<g transform="translate(128 128) scale(.72)" fill="#553d7b">
	<g transform="translate(-175.05 -175.05) scale(3.89)" fill="#553d7b" stroke-linecap="round">
	<path d="m89.363 43.325c-4.784-5.356-7.661-12.692-8.057-30.226-0.055-2.419-2.032-4.358-4.452-4.358h-63.708c-2.42 0-4.397 1.939-4.452 4.358-0.396 17.534-3.273 24.87-8.057 30.226-0.849 0.951-0.849 2.399 0 3.35 4.784 5.356 7.661 12.692 8.057 30.226 0.055 2.419 2.032 4.358 4.452 4.358h63.708c2.42 0 4.397-1.939 4.452-4.358 0.396-17.534 3.273-24.87 8.057-30.226 0.849-0.951 0.849-2.399 0-3.35zm-29.723 9.834c0 6.705-5.454 12.16-12.159 12.16h-13.121c-2.209 0-4-1.791-4-4v-32.638c0-2.209 1.791-4 4-4h13.12c6.705 0 12.159 5.455 12.159 12.16 0 3.142-1.208 5.999-3.17 8.16 1.963 2.159 3.171 5.017 3.171 8.158z"/>
	<path d="m47.48 32.681h-9.12v8.319h9.121c2.293 0 4.159-1.866 4.159-4.16s-1.867-4.159-4.16-4.159z"/>
	<path d="m47.48 49h-9.12v8.319h9.121c2.293 0 4.159-1.866 4.159-4.16 0-2.293-1.867-4.159-4.16-4.159z"/>
</g>
</g>
</svg>
