<?xml version="1.0" encoding="UTF-8" standalone="no"?>
<svg
   xmlns:dc="http://purl.org/dc/elements/1.1/"
   xmlns:cc="http://creativecommons.org/ns#"
   xmlns:rdf="http://www.w3.org/1999/02/22-rdf-syntax-ns#"
   xmlns:svg="http://www.w3.org/2000/svg"
   xmlns="http://www.w3.org/2000/svg"
   width="443"
   height="284"
   viewBox="0 0 117.21041 75.141669"
   version="1.1"
   id="svg1750">
  <defs
     id="defs1744">
    <rect
       x="-214.41779"
       y="59.515555"
       width="117.75108"
       height="58.118517"
       id="rect2379" />
    <rect
       x="-82.170093"
       y="21.262386"
       width="69.57213"
       height="20.35026"
       id="rect2373" />
    <rect
       x="28.650345"
       y="12.407232"
       width="47.192877"
       height="55.686187"
       id="rect877" />
    <rect
       x="28.650345"
       y="12.407232"
       width="47.192879"
       height="55.686188"
       id="rect877-3" />
    <rect
       x="28.650345"
       y="12.407232"
       width="47.192879"
       height="55.686188"
       id="rect890" />
    <rect
       x="28.650345"
       y="12.407232"
       width="47.192879"
       height="55.686188"
       id="rect877-3-7" />
    <rect
       x="28.650345"
       y="12.407232"
       width="47.192879"
       height="55.686188"
       id="rect926" />
    <rect
       x="28.650345"
       y="12.407232"
       width="47.192879"
       height="55.686188"
       id="rect877-3-7-3" />
    <rect
       x="28.650345"
       y="12.407232"
       width="47.192879"
       height="55.686188"
       id="rect963" />
    <rect
       x="28.650345"
       y="12.407232"
       width="47.192879"
       height="55.686188"
       id="rect877-3-9" />
    <rect
       x="28.650345"
       y="12.407232"
       width="47.192879"
       height="55.686188"
       id="rect1048" />
    <rect
       x="28.650345"
       y="12.407232"
       width="47.192879"
       height="55.686188"
       id="rect877-3-7-3-0" />
    <rect
       x="28.650345"
       y="12.407232"
       width="47.192879"
       height="55.686188"
       id="rect1183" />
    <rect
       x="28.650345"
       y="12.407232"
       width="47.192879"
       height="55.686188"
       id="rect877-3-7-9" />
    <rect
       x="28.650345"
       y="12.407232"
       width="47.192879"
       height="55.686188"
       id="rect1186" />
    <rect
       x="28.650345"
       y="12.407232"
       width="47.192879"
       height="55.686188"
       id="rect877-3-3" />
    <rect
       x="28.650345"
       y="12.407232"
       width="47.192879"
       height="55.686188"
       id="rect1189" />
    <rect
       x="28.650345"
       y="12.407232"
       width="47.192879"
       height="55.686188"
       id="rect877-6" />
    <rect
       x="28.650345"
       y="12.407232"
       width="47.192879"
       height="55.686188"
       id="rect1192" />
    <rect
       x="-214.41779"
       y="59.515556"
       width="117.75108"
       height="58.118519"
       id="rect2379-7" />
    <rect
       x="-214.41779"
       y="59.515556"
       width="117.75108"
       height="58.118519"
       id="rect2427" />
  </defs>
  <metadata
     id="metadata1747">
    <rdf:RDF>
      <cc:Work
         rdf:about="">
        <dc:format>image/svg+xml</dc:format>
        <dc:type
           rdf:resource="http://purl.org/dc/dcmitype/StillImage" />
        <dc:title></dc:title>
      </cc:Work>
    </rdf:RDF>
  </metadata>
  <g
     id="layer1">
    <g
       id="g1580">
      <g
         id="g2056"
         transform="matrix(0.39476474,0.32973455,-0.32973455,0.39476474,37.024086,-19.424034)">
        <g
           id="g2148">
          <text
             xml:space="preserve"
             id="text2371"
             style="font-style:normal;font-weight:normal;font-size:20.5758px;line-height:1.25;font-family:sans-serif;letter-spacing:0px;word-spacing:0px;white-space:pre;shape-inside:url(#rect2373);fill:#000000;fill-opacity:1;stroke:none;"><tspan
               style="visibility:hidden"
               x="-82.169922"
               y="59.818042"><tspan>!</tspan></tspan></text>
          <g
             id="g1048"
             transform="matrix(0.22476256,0,0,0.22476256,90.731092,60.167414)"
             style="fill:#000000">
            <path
               style="fill:#000000;fill-opacity:1;stroke-width:0.514395"
               d="m 345.08186,109.02441 c 2.38494,-2.10964 6.38222,-5.44844 8.88286,-7.41956 2.50064,-1.971117 0.54933,-0.24504 -4.33624,3.83572 -4.88557,4.08076 -6.93154,5.69349 -4.54662,3.58384 z m 24.75849,-21.311882 c 0.29704,-0.416691 0.91884,-0.936061 1.38177,-1.154155 0.46294,-0.21809 0.2199,0.122843 -0.54008,0.757629 -0.75997,0.634785 -1.13874,0.813221 -0.84169,0.396526 z m 4.8717,-5.200682 c -0.0685,-0.08198 -0.0173,-0.652564 0.11381,-1.267966 0.21599,-1.014089 0.24162,-1.011789 0.27356,0.02455 0.0335,1.088414 -0.11597,1.568343 -0.38737,1.243412 z m -2.19109,-5.959564 c -0.45342,-0.542841 -0.5493,-0.83976 -0.21307,-0.659818 0.33623,0.179942 0.70721,0.624085 0.82439,0.986983 0.11719,0.362899 -0.15791,0.215677 -0.61132,-0.327165 z M 80.728221,316.92641 c -0.634786,-0.75998 -0.813222,-1.13874 -0.396527,-0.8417 0.416691,0.29705 0.936061,0.91885 1.154155,1.38178 0.21809,0.46293 -0.122843,0.2199 -0.757628,-0.54008 z M 331.49836,46.475046 c -4.62487,-5.536979 -6.46133,-7.848487 -4.08103,-5.136683 2.3803,2.711803 6.16428,7.242059 8.40884,10.067234 2.24457,2.825174 0.29705,0.606427 -4.32781,-4.930551 z M 83.88729,268.93842 c 0.179942,-0.33623 0.624085,-0.70721 0.986984,-0.8244 0.362898,-0.11719 0.215676,0.15791 -0.327165,0.61133 -0.542841,0.45342 -0.839761,0.5493 -0.659819,0.21307 z m 18.95009,-15.82841 c 0.17994,-0.33623 0.62408,-0.70721 0.98698,-0.8244 0.3629,-0.11719 0.21568,0.15791 -0.32716,0.61133 -0.54285,0.45342 -0.83977,0.5493 -0.65982,0.21307 z m 34.75964,-29.04758 c 0.18973,-0.35208 0.54196,-0.62248 0.7827,-0.60088 0.24077,0.0216 0.0855,0.30968 -0.34497,0.64016 -0.47574,0.3652 -0.64742,0.34979 -0.43775,-0.0393 z m 19.72186,-16.4591 c 0.17994,-0.33623 0.62408,-0.70721 0.98698,-0.8244 0.3629,-0.11719 0.21568,0.15791 -0.32717,0.61133 -0.54284,0.45342 -0.83976,0.5493 -0.65981,0.21307 z M 192.47331,178.226 c 0.18973,-0.35209 0.54196,-0.62249 0.78271,-0.60089 0.24076,0.0216 0.0855,0.30968 -0.34497,0.64016 -0.47575,0.3652 -0.64743,0.3498 -0.43775,-0.0393 z m 20.51145,-17.11863 c 0.17994,-0.33622 0.62408,-0.7072 0.98698,-0.82439 0.3629,-0.11719 0.21567,0.15791 -0.32717,0.61133 -0.54284,0.45341 -0.83976,0.54929 -0.65981,0.21306 z M 346.12228,43.978483 c -1.81248,-2.172354 -2.44623,-3.065516 -1.40797,-1.985092 1.03826,1.080421 2.52134,2.857694 3.29561,3.949584 0.77438,1.091801 -0.0751,0.207818 -1.88774,-1.964403 z M 132.72644,225.4049 c -1.01409,-0.21599 -1.01179,-0.24161 0.0246,-0.27356 0.62891,-0.0194 1.19949,0.0318 1.26797,0.11381 0.2714,0.32493 -0.22748,0.38659 -1.29252,0.15975 z m 27.77144,-28.05578 c -0.81615,-0.97711 -1.07304,-1.44115 -0.57087,-1.03119 0.50218,0.40996 1.16994,1.20941 1.48392,1.77657 0.31397,0.56716 -0.0969,0.23174 -0.91305,-0.74538 z m -54.81126,45.11189 c -0.81615,-0.97711 -1.07304,-1.44115 -0.57086,-1.03119 0.50218,0.40995 1.16994,1.20941 1.48391,1.77657 0.31398,0.56715 -0.0969,0.23173 -0.91305,-0.74538 z M 214.60443,151.4854 c -0.45342,-0.54284 -0.5493,-0.83976 -0.21307,-0.65982 0.33623,0.17994 0.70721,0.62408 0.8244,0.98698 0.11718,0.3629 -0.15791,0.21568 -0.61133,-0.32716 z m -112.42091,88.70735 c -1.01409,-0.21599 -1.01179,-0.24161 0.0246,-0.27356 0.62891,-0.0194 1.1995,0.0318 1.26797,0.11381 0.2714,0.32493 -0.22748,0.38659 -1.29252,0.15975 z m 79.46163,-65.45194 c -0.0685,-0.082 -0.0173,-0.65256 0.11381,-1.26797 0.21599,-1.01408 0.24162,-1.01178 0.27356,0.0246 0.0335,1.08841 -0.11597,1.56834 -0.38737,1.24341 z M 43.217345,271.85179 c -4.987598,-5.97125 -6.973107,-8.45987 -4.412236,-5.53026 2.560866,2.9296 6.641628,7.81517 9.06836,10.85682 2.426728,3.04165 0.331474,0.64469 -4.656124,-5.32656 z m 31.111531,-10.34483 c 0.179942,-0.33623 0.624085,-0.70721 0.986983,-0.8244 0.362899,-0.11718 0.215677,0.15791 -0.327164,0.61133 -0.542841,0.45342 -0.839761,0.5493 -0.659819,0.21307 z m 22.30322,-18.64975 c 0.300515,-0.42094 0.838984,-0.85954 1.196615,-0.97463 0.357617,-0.11511 0.111743,0.22929 -0.546386,0.76535 -0.658137,0.53605 -0.950728,0.63024 -0.650212,0.2093 z m 33.156454,-27.69187 c 0.29705,-0.41669 0.91885,-0.93606 1.38178,-1.15415 0.46293,-0.21809 0.2199,0.12284 -0.54008,0.75763 -0.75998,0.63478 -1.13874,0.81322 -0.8417,0.39652 z m 20.53546,-17.15529 c 0.30051,-0.42095 0.83898,-0.85954 1.19661,-0.97463 0.35762,-0.11511 0.11175,0.22929 -0.54638,0.76535 -0.65814,0.53604 -0.95073,0.63024 -0.65022,0.2093 z m 32.96786,-27.51645 c 0.17995,-0.33623 0.62409,-0.7072 0.98699,-0.82439 0.3629,-0.11719 0.21567,0.15791 -0.32717,0.61132 -0.54284,0.45342 -0.83976,0.5493 -0.65982,0.21307 z m 21.71364,-18.13672 c 0.17995,-0.33623 0.62409,-0.7072 0.98699,-0.82439 0.3629,-0.11719 0.21567,0.15791 -0.32717,0.61132 -0.54284,0.45342 -0.83976,0.5493 -0.65982,0.21307 z M 361.99788,-0.11250508 c 0.0566,-0.96880662 0.19166,-1.83566022 0.30023,-1.92634382 0.10857,-0.090684 0.15112,0.6277786 0.0946,1.59658527 -0.0566,0.96880664 -0.19166,1.83566023 -0.30023,1.92634383 -0.10856,0.090684 -0.15112,-0.62777864 -0.0946,-1.59658528 z m 0.68287,-7.60779632 c 0.0303,-0.7625442 0.14388,-1.460639 0.25245,-1.5513226 0.10857,-0.090684 0.17262,0.4590199 0.14234,1.221564 -0.0303,0.7625442 -0.14388,1.4606391 -0.25244,1.5513227 -0.10857,0.090684 -0.17263,-0.45902 -0.14235,-1.2215641 z m -13.42756,7.19423689 c 0.0303,-0.76254419 0.14388,-1.46063899 0.25245,-1.55132259 0.10856,-0.090684 0.17262,0.4590199 0.14234,1.22156405 -0.0303,0.76254417 -0.14388,1.46063902 -0.25245,1.55132262 -0.10856,0.0906836 -0.17262,-0.45901991 -0.14234,-1.22156408 z M 362.68402,-11.327241 c -0.0685,-0.08198 -0.0172,-0.652563 0.11382,-1.267966 0.21599,-1.014088 0.24161,-1.011788 0.27356,0.02455 0.0335,1.088414 -0.11597,1.568342 -0.38738,1.243411 z m -12.57752,1.7926146 c -0.0685,-0.081979 -0.0173,-0.6525636 0.11381,-1.2679656 0.21599,-1.014089 0.24162,-1.011789 0.27356,0.02455 0.0335,1.0884141 -0.11596,1.5683424 -0.38737,1.2434116 z M 71.057077,220.61607 c 15.657357,-13.17514 41.239983,-34.54349 56.850273,-47.48521 15.6103,-12.94172 2.79974,-2.16205 -28.467917,23.95481 -31.26765,26.11687 -44.039712,36.70555 -28.382356,23.5304 z m -41.943716,19.64756 c 0.412213,-0.50462 1.125835,-1.0946 1.585835,-1.31106 0.459993,-0.21646 0.122714,0.19643 -0.749477,0.9175 -0.872205,0.72109 -1.248564,0.89819 -0.836351,0.39357 z m 21.786024,-18.89525 c 3.923013,-3.38618 10.318752,-8.72817 14.21276,-11.87107 3.894,-3.14291 0.684264,-0.3724 -7.132752,6.1567 -7.81702,6.52909 -11.003024,9.10056 -7.080008,5.71437 z M 353.48005,-44.940683 c -0.45342,-0.542841 -0.5493,-0.839761 -0.21307,-0.659819 0.33623,0.179942 0.70721,0.624085 0.8244,0.986984 0.11719,0.362898 -0.15791,0.215676 -0.61133,-0.327165 z m -15.59981,-0.374579 c -1.54162,-1.845659 -2.10428,-2.657506 -1.25035,-1.804104 0.85393,0.853406 2.11525,2.363491 2.80295,3.355745 0.68769,0.992257 -0.011,0.294019 -1.5526,-1.551641 z m 2.73923,-15.022367 c -0.45342,-0.542841 -0.5493,-0.839761 -0.21307,-0.659819 0.33623,0.179942 0.7072,0.624085 0.82439,0.986984 0.11719,0.362899 -0.15791,0.215676 -0.61132,-0.327165 z M 22.209697,187.02212 c 3.487435,-3.02413 9.17257,-7.77253 12.633631,-10.55198 3.461066,-2.77946 0.607712,-0.30517 -6.340785,5.49842 -6.948497,5.8036 -9.780278,8.07769 -6.292846,5.05356 z M -1.2297021,205.9517 c 0.52156752,-0.58921 1.49868136,-1.40537 2.17136406,-1.81367 0.67267944,-0.4083 0.24594234,0.0738 -0.94830792,1.0713 -1.19425024,0.99752 -1.74462704,1.33159 -1.22305614,0.74237 z M 278.53977,-35.963861 c -0.45342,-0.542841 -0.5493,-0.839761 -0.21307,-0.659819 0.33623,0.179942 0.70721,0.624085 0.8244,0.986984 0.11718,0.362899 -0.15791,0.215676 -0.61133,-0.327165 z M -11.718647,205.4745 c -0.536048,-0.65814 -0.630241,-0.95073 -0.2093,-0.65021 0.420941,0.30051 0.859534,0.83898 0.974668,1.19658 0.115111,0.35762 -0.229293,0.11174 -0.765348,-0.54639 z M 299.4253,-64.970364 l -4.41739,-0.499229 4.43568,0.295413 c 4.12038,0.274411 4.80187,0.366626 4.51016,0.610285 -0.0611,0.05102 -2.09888,-0.131891 -4.52845,-0.406469 z M -23.082669,192.51379 c -2.448457,-2.93134 -3.38795,-4.18244 -2.087759,-2.78021 1.30019,1.40222 3.303474,3.80059 4.45174,5.32971 1.148267,1.52912 0.08448,0.38184 -2.363981,-2.5495 z m 330.833929,-269.13018 -1.49403,-0.260098 1.51647,0.01012 c 1.42511,0.0095 1.92374,0.132417 1.6078,0.396306 -0.0749,0.06257 -0.80852,-0.0033 -1.63024,-0.146328 z m -6.48082,-0.953961 -1.86394,-0.286245 1.88512,0.05027 c 1.76193,0.04698 2.28097,0.156202 1.97134,0.414825 -0.0707,0.05907 -0.96735,-0.02141 -1.99252,-0.178846 z m -6.21169,-0.173417 c -1.01409,-0.215989 -1.01179,-0.241616 0.0246,-0.273561 1.08841,-0.03355 1.56834,0.115968 1.24341,0.387373 -0.082,0.06847 -0.65257,0.01726 -1.26797,-0.113812 z m -28.89115,20.825546 c 0.18973,-0.352087 0.54196,-0.622484 0.78271,-0.600889 0.24076,0.02161 0.0855,0.309685 -0.34497,0.640162 -0.47574,0.365202 -0.64742,0.349796 -0.43775,-0.03929 z m -5.94024,-11.123836 c 0.18974,-0.352087 0.54196,-0.622484 0.78271,-0.600889 0.24076,0.02161 0.0855,0.309685 -0.34497,0.640161 -0.47574,0.365202 -0.64742,0.349796 -0.43775,-0.03929 z m -3.4881,2.243275 c 0.18973,-0.352087 0.54196,-0.622484 0.7827,-0.600889 0.24077,0.02161 0.0855,0.309685 -0.34497,0.640161 -0.47574,0.365202 -0.64742,0.349796 -0.43775,-0.03929 z M -10.623668,156.17396 c 0.300515,-0.42094 0.838983,-0.85953 1.196614,-0.97463 0.3576178,-0.11511 0.1117436,0.2293 -0.5463861,0.76535 -0.6581359,0.53605 -0.9507269,0.63024 -0.6502119,0.2093 z m 20.729267,-17.29393 c 0.179943,-0.33623 0.624085,-0.7072 0.986984,-0.82439 0.362899,-0.11719 0.215676,0.15791 -0.327165,0.61133 -0.542841,0.45341 -0.8397607,0.54929 -0.659819,0.21306 z m 34.140732,-28.53477 c 0.297048,-0.41669 0.918848,-0.93606 1.381777,-1.15416 0.462933,-0.21809 0.219898,0.12285 -0.54008,0.75763 -0.759977,0.63479 -1.138741,0.81322 -0.841697,0.39653 z M 64.587098,93.373354 c 0.179943,-0.336229 0.624085,-0.707207 0.986984,-0.824396 0.362899,-0.11719 0.215676,0.15791 -0.327165,0.611328 -0.542841,0.453418 -0.839761,0.549297 -0.659819,0.213068 z M 97.354957,66.003395 c 0.179942,-0.336229 0.624084,-0.707207 0.986983,-0.824397 0.362899,-0.117189 0.215676,0.15791 -0.327165,0.611328 -0.542841,0.453418 -0.839761,0.549297 -0.659818,0.213069 z M 119.0686,47.866675 c 0.17994,-0.336229 0.62408,-0.707207 0.98698,-0.824397 0.3629,-0.117189 0.21568,0.15791 -0.32716,0.611328 -0.54284,0.453418 -0.83976,0.549297 -0.65982,0.213069 z M -19.499186,156.0091 c -0.634785,-0.75998 -0.813222,-1.13874 -0.396527,-0.8417 0.416691,0.29705 0.936061,0.91885 1.154155,1.38178 0.218091,0.46293 -0.122843,0.2199 -0.757628,-0.54008 z m 54.057447,-45.15248 c -0.453418,-0.54284 -0.549297,-0.83976 -0.213068,-0.65982 0.336229,0.17994 0.707207,0.62408 0.824396,0.98698 0.11719,0.3629 -0.15791,0.21568 -0.611328,-0.32716 z M 88.644967,65.679696 c -0.453418,-0.542841 -0.549297,-0.83976 -0.213068,-0.659818 0.336228,0.179942 0.707207,0.624085 0.824396,0.986983 0.117189,0.362899 -0.15791,0.215677 -0.611328,-0.327165 z M 120.62324,38.969254 c -0.45342,-0.542841 -0.5493,-0.839761 -0.21307,-0.659819 0.33623,0.179943 0.70721,0.624085 0.8244,0.986984 0.11719,0.362899 -0.15791,0.215676 -0.61133,-0.327165 z M -18.797692,147.60675 c 0.179943,-0.33623 0.624085,-0.70721 0.986984,-0.8244 0.362899,-0.11719 0.215676,0.15791 -0.327165,0.61133 -0.542841,0.45342 -0.839761,0.5493 -0.659819,0.21307 z M 1.926355,130.27603 c 0.3005153,-0.42094 0.8389835,-0.85953 1.1966145,-0.97463 0.3576178,-0.11511 0.1117436,0.22929 -0.5463861,0.76535 -0.6581363,0.53605 -0.9507271,0.63024 -0.6502119,0.2093 z m 34.536804,-28.85709 c 0.412212,-0.50462 1.125835,-1.0946 1.585835,-1.31106 0.459993,-0.216464 0.122713,0.19643 -0.749477,0.9175 -0.872206,0.72109 -1.248564,0.89819 -0.836352,0.39357 z M 56.407854,84.76935 c 0.300515,-0.420941 0.838984,-0.859534 1.196615,-0.974629 0.357617,-0.11511 0.111743,0.229293 -0.546387,0.765349 -0.658136,0.536048 -0.950727,0.630241 -0.650211,0.2093 z M 89.770513,56.923148 c 0.179942,-0.336228 0.624085,-0.707207 0.986984,-0.824396 0.362899,-0.117189 0.215676,0.15791 -0.327165,0.611328 -0.542841,0.453418 -0.839761,0.549297 -0.659819,0.213068 z M 110.88935,39.262671 c 0.30052,-0.420941 0.83899,-0.859534 1.19662,-0.974629 0.35762,-0.115111 0.11174,0.229293 -0.54639,0.765349 -0.65813,0.536047 -0.95073,0.630241 -0.65021,0.209299 z M -50.205748,165.76108 c 0.524312,-0.592 1.414625,-1.33153 1.978452,-1.64342 0.563844,-0.31188 0.134838,0.1725 -0.953297,1.07636 -1.088321,0.90368 -1.549486,1.15904 -1.025171,0.56704 z M -84.93598,176.6522 c -1.014089,-0.21599 -1.011789,-0.24162 0.02455,-0.27356 0.628907,-0.0194 1.199491,0.0318 1.267966,0.11381 0.271404,0.32493 -0.227478,0.38659 -1.292519,0.15975 z m -4.366982,-0.0387 -1.494033,-0.2601 1.516472,0.0101 c 1.425109,0.01 1.923738,0.13242 1.607803,0.39631 -0.07491,0.0626 -0.808523,-0.003 -1.630242,-0.14633 z m -6.875614,-0.6242 -1.86394,-0.28625 1.885119,0.0503 c 1.76193,0.047 2.280965,0.1562 1.971339,0.41482 -0.07072,0.0591 -0.967351,-0.0214 -1.992518,-0.17884 z m 8.376001,-12.02294 -1.494033,-0.2601 1.516472,0.0101 c 0.834058,0.006 1.567667,0.0714 1.630242,0.14633 0.263889,0.31593 -0.24866,0.34808 -1.652681,0.10365 z m 23.452964,-20.76243 c -0.816153,-0.97711 -1.07304,-1.44115 -0.570865,-1.03119 0.502179,0.40996 1.16994,1.20941 1.483913,1.77657 0.313977,0.56716 -0.0969,0.23174 -0.913048,-0.74538 z M 223.49935,-101.91881 c -0.63479,-0.75998 -0.81323,-1.13874 -0.39653,-0.8417 0.41669,0.29705 0.93606,0.91885 1.15415,1.38178 0.21809,0.46293 -0.12284,0.2199 -0.75762,-0.54008 z m -319.271997,265.16982 -1.494034,-0.2601 1.516472,0.0101 c 1.42511,0.01 1.923739,0.13241 1.607804,0.3963 -0.07492,0.0626 -0.808524,-0.003 -1.630242,-0.14632 z m 30.240026,-34.28404 c 0.521568,-0.58921 1.498681,-1.40537 2.171364,-1.81367 0.672679,-0.4083 0.245942,0.0738 -0.948308,1.07131 -1.19425,0.99751 -1.744627,1.33158 -1.223056,0.74236 z m 22.360403,-19.36843 c 3.256175,-2.83189 8.674715,-7.35782 12.041201,-10.057638 3.366485,-2.699817 0.702339,-0.382825 -5.920321,5.148878 -6.622661,5.5317 -9.377055,7.74064 -6.12088,4.90876 z m -87.788832,51.04073 c -0.45342,-0.54284 -0.5493,-0.83976 -0.21307,-0.65982 0.33623,0.17994 0.70721,0.62408 0.8244,0.98698 0.11719,0.3629 -0.15791,0.21568 -0.61133,-0.32716 z m 7.27297,-10.48723 c -0.36521,-0.47574 -0.3498,-0.64742 0.0393,-0.43775 0.35208,0.18973 0.62248,0.54195 0.60087,0.78272 -0.0216,0.24076 -0.30969,0.0855 -0.64016,-0.34497 z m -5.21532,-5.64142 c -1.26783,-1.52141 -1.67542,-2.15444 -0.90579,-1.40673 0.76964,0.74773 1.80695,1.99252 2.30512,2.76623 0.4982,0.77369 -0.13151,0.16192 -1.39933,-1.3595 z m -16.46079,-1.05173 c -0.36521,-0.47574 -0.3498,-0.64743 0.0393,-0.43776 0.35208,0.18974 0.62248,0.54196 0.60087,0.78273 -0.0216,0.24076 -0.30969,0.0855 -0.64016,-0.34497 z m 75.081917,-69.5267 c 4.126465,-3.555264 10.966262,-9.26833 15.199549,-12.695704 4.233286,-3.427374 0.857091,-0.518519 -7.502661,6.464118 -8.359752,6.982638 -11.823353,9.786849 -7.696888,6.231586 z M -93.89068,93.010111 c 0.409956,-0.502179 1.209412,-1.169941 1.776571,-1.483914 0.567155,-0.313977 0.231736,0.0969 -0.745378,0.913049 -0.977114,0.816152 -1.441152,1.07304 -1.031193,0.570865 z m -17.42171,-6.087449 c -1.44936,-1.738411 -1.93265,-2.457783 -1.07364,-1.598875 0.859,0.858912 2.04496,2.281148 2.63531,3.160656 0.5905,0.879377 -0.11232,0.176636 -1.56183,-1.561653 z m -30.56368,22.259788 c -0.0685,-0.082 -0.0173,-0.65256 0.11381,-1.26796 0.21599,-1.01409 0.24161,-1.01179 0.27356,0.0246 0.0335,1.08841 -0.11597,1.56834 -0.38737,1.24341 z m 0.84545,-9.419175 c -0.0685,-0.08198 -0.0173,-0.652564 0.11381,-1.267966 0.21599,-1.014088 0.24162,-1.011787 0.27356,0.02456 0.0335,1.088414 -0.11596,1.568341 -0.38737,1.24341 z m -13.17528,3.885415 c 0.20102,-2.37967 0.45432,-4.400864 0.56289,-4.491547 0.10857,-0.09068 0.0329,1.782117 -0.1681,4.161787 -0.20102,2.37967 -0.45432,4.40086 -0.56288,4.49155 -0.10857,0.0907 -0.0329,-1.78212 0.16809,-4.16179 z m 304.99657,-273.52047 c -4.62487,-5.53698 -6.46133,-7.84849 -4.08103,-5.13669 2.3803,2.71181 6.16428,7.24206 8.40884,10.06724 2.24457,2.82517 0.29705,0.60642 -4.32781,-4.93055 z m -273.8413,243.755334 c -0.3652,-0.475743 -0.34979,-0.647423 0.0393,-0.43775 0.35209,0.189733 0.62248,0.541955 0.60089,0.782707 -0.0216,0.240765 -0.30968,0.08552 -0.64016,-0.34497 z m 18.11601,-30.62053 c 0.30052,-0.420941 0.83899,-0.859533 1.19659,-0.974668 0.35761,-0.11511 0.11174,0.229293 -0.54639,0.765349 -0.65814,0.536048 -0.95073,0.630241 -0.65021,0.2093 z M -84.405356,26.11558 c 0.300516,-0.420941 0.838984,-0.859534 1.196582,-0.974668 0.357618,-0.115111 0.111743,0.229293 -0.546386,0.765348 -0.658137,0.536048 -0.950727,0.630241 -0.650212,0.2093 z m 33.162652,-27.6997178 c 0.300515,-0.4209411 0.838983,-0.8595339 1.196581,-0.9746682 0.357618,-0.1151107 0.111744,0.2292929 -0.546386,0.7653486 -0.658136,0.5360478 -0.950727,0.630241 -0.650212,0.2092999 z m 20.52926,-17.1474442 c 0.300516,-0.420941 0.838984,-0.859534 1.196582,-0.974668 0.357618,-0.115111 0.111744,0.229292 -0.546386,0.765348 -0.658136,0.536048 -0.950727,0.630241 -0.650212,0.2093 z M 2.667064,-46.606566 c 0.1897322,-0.352087 0.5419585,-0.622484 0.7827067,-0.600889 0.2407647,0.02161 0.085523,0.309685 -0.3449706,0.640161 -0.4757431,0.365203 -0.6474224,0.349797 -0.4377493,-0.03929 z m 21.890578,-18.291213 c 0.300516,-0.420941 0.838984,-0.859534 1.196582,-0.974668 0.357618,-0.115111 0.111743,0.229293 -0.546386,0.765349 -0.658137,0.536048 -0.950727,0.630241 -0.650212,0.2093 z M -80.72434,21.911894 c -0.06847,-0.08198 -0.01726,-0.652564 0.113811,-1.267966 0.215989,-1.014089 0.241617,-1.011789 0.273562,0.02455 0.03355,1.088414 -0.115969,1.568343 -0.387373,1.243412 z M -55.960492,0.30758045 c -1.014088,-0.21598939 -1.011788,-0.2416168 0.02455,-0.27356186 1.088414,-0.0335489333 1.568342,0.11596853 1.243411,0.38737301 -0.08198,0.0684744 -0.652563,0.0172594 -1.267966,-0.11381115 z M -1.4789927,-45.199099 c -1.0140886,-0.215989 -1.0117883,-0.241617 0.024555,-0.273562 1.08841394,-0.03355 1.56834232,0.115969 1.2434115,0.387373 -0.0819789,0.06847 -0.65256359,0.01726 -1.2679665,-0.113811 z M -82.275757,17.428722 c -0.816153,-0.977114 -1.07304,-1.441152 -0.570865,-1.031193 0.502179,0.409956 1.16994,1.209413 1.483913,1.776571 0.313977,0.567155 -0.0969,0.231736 -0.913048,-0.745378 z m 54.15174,-45.901473 c -0.816152,-0.977114 -1.07304,-1.441152 -0.570865,-1.031193 0.502179,0.409956 1.16994,1.209413 1.483914,1.776571 0.313977,0.567155 -0.0969,0.231736 -0.913049,-0.745378 z m 54.766066,-45.074138 c -0.453418,-0.542841 -0.549297,-0.839761 -0.213068,-0.659819 0.336228,0.179942 0.707207,0.624085 0.824396,0.986984 0.117189,0.362899 -0.15791,0.215676 -0.611328,-0.327165 z m -87.383602,67.6269255 c 0.03028,-0.7625442 0.14388,-1.460639 0.252448,-1.5513226 0.108568,-0.090684 0.172624,0.4590199 0.142345,1.2215641 -0.03028,0.7625441 -0.143879,1.460639 -0.252448,1.5513226 -0.108568,0.090684 -0.172624,-0.4590199 -0.142345,-1.2215641 z M -112.31905,34.036294 c 0.17994,-0.336229 0.62408,-0.707208 0.98698,-0.824396 0.3629,-0.117188 0.21568,0.157908 -0.32717,0.611326 -0.54284,0.453418 -0.83975,0.5493 -0.65981,0.21307 z m 18.950084,-15.82841 c 0.179942,-0.33623 0.624084,-0.707208 0.986984,-0.824397 0.362899,-0.117188 0.215674,0.157909 -0.327167,0.611327 -0.542841,0.453418 -0.839758,0.5493 -0.659817,0.21307 z m 34.759631,-29.047586 c 0.189732,-0.352087 0.541961,-0.622481 0.782723,-0.600869 0.240762,0.02161 0.08552,0.309686 -0.34497,0.640162 -0.475737,0.36521 -0.647423,0.349795 -0.437752,-0.03929 z m 19.721868,-16.459093 c 0.179942,-0.33623 0.624084,-0.707208 0.986984,-0.824397 0.3629,-0.117188 0.215674,0.157909 -0.327167,0.611327 -0.542841,0.453418 -0.839758,0.549299 -0.659817,0.21307 z M -3.7330423,-56.67614 c 0.1897318,-0.352087 0.5419605,-0.622481 0.7827232,-0.600869 0.2407621,0.02161 0.085523,0.309686 -0.3449706,0.640162 -0.4757365,0.36521 -0.6474227,0.349795 -0.4377517,-0.03929 z M 16.778412,-73.79475 c 0.179942,-0.33623 0.624085,-0.707208 0.986984,-0.824397 0.3629,-0.117188 0.215675,0.157909 -0.327166,0.611327 -0.542841,0.453418 -0.839759,0.549299 -0.659818,0.21307 z M 130.19361,-213.65868 c -0.81615,-0.97711 -1.07304,-1.44115 -0.57087,-1.03119 0.50218,0.40996 1.16994,1.20941 1.48392,1.77657 0.31397,0.56716 -0.0969,0.23174 -0.91305,-0.74538 z M -161.01406,27.567221 c -0.45342,-0.542841 -0.5493,-0.839761 -0.21307,-0.659819 0.33623,0.179942 0.70721,0.624085 0.8244,0.986984 0.11719,0.362899 -0.15791,0.215676 -0.61133,-0.327165 z M 117.31033,-215.42383 c 0.29704,-0.4167 0.91884,-0.93607 1.38177,-1.15416 0.46294,-0.21809 0.2199,0.12284 -0.54008,0.75763 -0.75998,0.63478 -1.13874,0.81322 -0.84169,0.39653 z m -24.825716,20.02777 c 2.275915,-2.01949 6.095542,-5.2099 8.488056,-7.0898 2.39252,-1.8799 0.53041,-0.22759 -4.138026,3.67181 -4.668432,3.89939 -6.625946,5.43749 -4.35003,3.41799 z"
               id="path1054" />
            <path
               style="fill:#000000;fill-opacity:1;stroke-width:0.514395"
               d="m 89.367917,321.94165 c -0.991409,-0.21116 -0.999994,-0.2423 -0.07533,-0.27325 C 90.12074,321.6407 116.2215,300.0473 215.72686,217.06823 L 341.11755,112.503 215.80219,217.34148 C 96.856656,316.85098 90.429956,322.16785 89.367917,321.94165 Z M 366.08522,90.825364 c 0.63619,-0.680556 1.70364,-1.569092 2.37212,-1.974524 0.66848,-0.405428 0.14796,0.151387 -1.15671,1.237378 -1.3048,1.085835 -1.85161,1.417703 -1.21541,0.737146 z m 6.80785,-6.32872 c 0.18973,-0.352086 0.54196,-0.622483 0.7827,-0.600889 0.24077,0.02161 0.0855,0.309686 -0.34497,0.640162 -0.47574,0.365202 -0.64742,0.349796 -0.43775,-0.03929 z m -3.10785,-11.356248 c -1.26799,-1.521273 -1.67542,-2.154441 -0.90579,-1.406725 0.76964,0.747723 1.80694,1.992519 2.30516,2.766192 0.49818,0.7737 -0.13152,0.161929 -1.39934,-1.35949 z M 65.978325,299.08616 c -7.708107,-9.2283 -10.809748,-13.04667 -6.892536,-8.48528 3.917212,4.5614 10.223845,12.11182 14.014739,16.77873 3.790894,4.6669 0.585903,0.93485 -7.122203,-8.29345 z m -1.664812,-22.0675 c -13.874591,-16.61093 -19.501859,-23.447 -12.505044,-15.19124 6.996819,8.25575 18.348757,21.84651 25.22653,30.2017 6.877776,8.35518 1.153105,1.60048 -12.721486,-15.01046 z M 359.35595,79.170718 c -0.72109,-0.872206 -0.89819,-1.248565 -0.39357,-0.836352 0.50462,0.412212 1.0946,1.125835 1.31106,1.585835 0.21647,0.459993 -0.19642,0.122713 -0.9175,-0.749477 z M 86.235896,266.93574 c 0.632546,-0.67702 1.787317,-1.64156 2.566158,-2.14343 0.778843,-0.50187 0.261309,0.0521 -1.150078,1.23094 -1.411386,1.17889 -2.048623,1.58951 -1.41608,0.91249 z M 99.863678,255.5569 c 0.524312,-0.592 1.414622,-1.33153 1.978452,-1.64342 0.56384,-0.31188 0.13488,0.17247 -0.9533,1.07636 -1.088318,0.90368 -1.549484,1.15904 -1.025169,0.56704 z m 39.280412,-32.80178 c 0.40996,-0.50218 1.20941,-1.16994 1.77657,-1.48391 0.56716,-0.31398 0.23174,0.0969 -0.74538,0.91304 -0.97711,0.81616 -1.44115,1.07304 -1.03119,0.57087 z m 14.80129,-12.37009 c 0.52157,-0.58922 1.49868,-1.40537 2.17137,-1.81367 0.67268,-0.40831 0.24594,0.0738 -0.94831,1.0713 -1.19425,0.99752 -1.74463,1.33158 -1.22306,0.74237 z m 40.26894,-33.63537 c 0.52157,-0.58922 1.49868,-1.40537 2.17136,-1.81367 0.67268,-0.40831 0.24594,0.0738 -0.94831,1.0713 -1.19425,0.99752 -1.74462,1.33158 -1.22305,0.74237 z m 15.20398,-12.70477 c 0.63619,-0.68056 1.70365,-1.56909 2.37212,-1.97453 0.66848,-0.40542 0.14797,0.15139 -1.15671,1.23738 -1.30479,1.08584 -1.8516,1.41771 -1.21541,0.73715 z M 78.24494,270.91158 c -1.014089,-0.21599 -1.011789,-0.24162 0.02455,-0.27356 1.088414,-0.0335 1.568343,0.11597 1.243412,0.38737 -0.08198,0.0685 -0.652564,0.0173 -1.267966,-0.11381 z M 107.173,247.66873 c -0.0685,-0.082 -0.0173,-0.65256 0.11381,-1.26796 0.21599,-1.01409 0.24162,-1.01179 0.27357,0.0246 0.0336,1.08842 -0.11597,1.56834 -0.38738,1.24341 z m 78.25608,-68.29537 c -1.01409,-0.21599 -1.01179,-0.24162 0.0246,-0.27356 1.08841,-0.0335 1.56834,0.11597 1.24341,0.38737 -0.082,0.0685 -0.65256,0.0173 -1.26796,-0.11381 z M 74.782503,268.94448 c -0.453418,-0.54285 -0.549296,-0.83977 -0.213068,-0.65982 0.336229,0.17994 0.707207,0.62408 0.824397,0.98698 0.117189,0.3629 -0.15791,0.21568 -0.611329,-0.32716 z M 211.08148,149.90395 c -1.01409,-0.21599 -1.01179,-0.24162 0.0246,-0.27356 0.6289,-0.0194 1.19949,0.0318 1.26796,0.11381 0.27141,0.32493 -0.22748,0.38659 -1.29252,0.15975 z M 342.35444,39.697259 c -0.3652,-0.475743 -0.3498,-0.647422 0.0393,-0.437749 0.35208,0.189732 0.62248,0.541959 0.60089,0.782707 -0.0216,0.240761 -0.30969,0.08552 -0.64016,-0.344971 z M 77.265834,259.00505 c 0.963467,-0.94282 2.651209,-2.35254 3.750538,-3.13271 1.099328,-0.78017 0.311034,-0.009 -1.751762,1.71422 -2.062796,1.72299 -2.962244,2.36131 -1.998776,1.41849 z m 15.203373,-12.69113 c 0.632547,-0.67701 1.787318,-1.64156 2.566158,-2.14343 0.778844,-0.50186 0.261309,0.0521 -1.150077,1.23095 -1.411387,1.17889 -2.048624,1.5895 -1.416081,0.91248 z m 40.868783,-34.14505 c 0.9698,-0.94856 2.56953,-2.2831 3.55512,-2.96546 0.98544,-0.68254 0.19197,0.0936 -1.76327,1.72466 -1.95521,1.63112 -2.7615,2.18954 -1.7917,1.24098 z m 13.22453,-11.03833 c 0.63619,-0.68055 1.70365,-1.56909 2.37213,-1.97452 0.66848,-0.40543 0.14796,0.15139 -1.15671,1.23738 -1.3048,1.08583 -1.85161,1.4177 -1.21542,0.73714 z m 39.66631,-33.13885 c 0.96347,-0.94282 2.65121,-2.35254 3.75054,-3.13271 1.09933,-0.78016 0.31103,-0.009 -1.75176,1.71422 -2.0628,1.72299 -2.96225,2.36131 -1.99878,1.41849 z m 12.43534,-10.38819 c 1.07335,-1.03192 2.93875,-2.59003 4.14533,-3.46246 1.20658,-0.87243 0.32838,-0.0281 -1.95155,1.87623 -2.27994,1.90436 -3.26714,2.61816 -2.19378,1.58623 z M 334.2693,28.264457 c 0.52431,-0.592 1.41462,-1.331529 1.97845,-1.643424 0.56385,-0.311875 0.13488,0.172471 -0.9533,1.076363 -1.08832,0.903677 -1.54948,1.159037 -1.02517,0.567041 z m -17.45091,0.64705 c -3.6277,-4.342435 -5.09892,-6.221052 -3.26939,-4.174695 1.82953,2.046353 4.79765,5.599254 6.59596,7.89521 1.79816,2.296081 0.30128,0.621795 -3.32642,-3.720643 z m 45.43629,-31.1238063 c -0.0568,-0.067944 0.0384,-1.1276013 0.21137,-2.3547941 l 0.31455,-2.2312592 -0.0878,2.2516093 c -0.0819,2.0988174 -0.18333,2.6394457 -0.43809,2.334444 z m -12.11803,-3.240633 c 0.10654,-1.8399692 0.24556,-3.3886992 0.30892,-3.4416221 0.29644,-0.2476091 0.27909,0.368637 -0.0975,3.4605987 l -0.40514,3.3264253 z M 176.63346,132.43152 c 11.40536,-9.62528 30.14818,-25.28057 41.65071,-34.789522 11.50253,-9.508955 2.17087,-1.633723 -20.73702,17.500512 -22.90789,19.13424 -32.31905,26.9143 -20.91369,17.28901 z M 316.82102,9.8077449 c -0.63479,-0.7599774 -0.81322,-1.1387416 -0.39653,-0.841697 0.41669,0.2970478 0.93606,0.9188476 1.15416,1.3817771 0.21809,0.462933 -0.12285,0.219897 -0.75763,-0.5400801 z M 26.312807,243.28926 c 0.189732,-0.35208 0.541954,-0.62248 0.782707,-0.60089 0.240761,0.0216 0.08552,0.30969 -0.344971,0.64017 -0.475743,0.3652 -0.647422,0.34979 -0.437749,-0.0393 z m 6.144701,-5.8331 c 0.74312,-0.7653 2.075547,-1.87824 2.960951,-2.47319 0.885407,-0.59495 0.277399,0.0312 -1.351124,1.39145 -1.628523,1.36026 -2.352943,1.84704 -1.609827,1.08174 z M 190.18666,105.52798 71.779503,204.09131 189.81652,105.33281 C 268.18781,39.761592 308.04635,6.6384836 308.4273,6.7652943 c 0.31557,0.1050449 0.48213,0.1928697 0.37014,0.1951722 -0.11199,0.0023 -53.48685,44.3576775 -118.61078,98.5675135 z M 352.01077,-46.729475 c -0.53605,-0.658136 -0.63024,-0.950727 -0.2093,-0.650212 0.42094,0.300516 0.85953,0.838984 0.97463,1.196615 0.11511,0.357618 -0.2293,0.111743 -0.76535,-0.546386 z m -11.13208,5.22104 c -0.3652,-0.475743 -0.3498,-0.647423 0.0393,-0.43775 0.35209,0.189733 0.62248,0.541959 0.60089,0.782707 -0.0216,0.240762 -0.30969,0.08552 -0.64016,-0.344971 z m -6.37165,-7.691606 c -0.45342,-0.542841 -0.54929,-0.839761 -0.21307,-0.659819 0.33623,0.179942 0.70721,0.624085 0.8244,0.986984 0.11719,0.362898 -0.15791,0.215676 -0.61133,-0.327165 z m 7.79048,-9.188059 c -0.63479,-0.759978 -0.81323,-1.138742 -0.39653,-0.841697 0.41669,0.297048 0.93606,0.918847 1.15415,1.381777 0.21809,0.462933 -0.12284,0.219897 -0.75762,-0.54008 z m -3.94516,-3.798002 c -0.36521,-0.475743 -0.3498,-0.647422 0.0393,-0.437749 0.35209,0.189732 0.62249,0.541958 0.60089,0.782707 -0.0216,0.240761 -0.30968,0.08552 -0.64016,-0.344971 z M 84.069795,135.35453 C 200.0857,37.994271 280.9511,-29.551361 281.0091,-29.146018 281.04447,-28.89909 226.99529,16.39862 160.89982,71.515566 94.804418,126.6326 60.230873,155.36009 84.069795,135.35453 Z M 2.9132715,202.48642 c 0.6325463,-0.67702 1.7873172,-1.64156 2.5661576,-2.14343 0.7788437,-0.50187 0.2613094,0.0521 -1.1500773,1.23094 -1.4113866,1.17889 -2.0486232,1.58951 -1.4160803,0.91249 z m -7.7928739,5.86591 c 0.1897322,-0.35209 0.5419546,-0.62248 0.7827068,-0.60089 0.2407613,0.0216 0.085523,0.30969 -0.3449707,0.64016 -0.4757431,0.36521 -0.6474224,0.3498 -0.4377493,-0.0393 z M 276.44692,-38.572267 c -0.90368,-1.088321 -1.15904,-1.549486 -0.56704,-1.025171 0.592,0.524311 1.33153,1.414625 1.64342,1.978452 0.31187,0.563844 -0.1725,0.134838 -1.07636,-0.953298 z M -14.150497,202.47902 c -0.99752,-1.19425 -1.331584,-1.74463 -0.742369,-1.22306 0.589218,0.52157 1.405371,1.49869 1.813672,2.17137 0.408304,0.67268 -0.07378,0.24594 -1.071303,-0.94831 z M 304.82144,-64.450859 c -1.01409,-0.215989 -1.01179,-0.241617 0.0245,-0.273562 1.08842,-0.03355 1.56834,0.115969 1.24341,0.387373 -0.082,0.06847 -0.65256,0.01726 -1.26796,-0.113811 z M -29.667795,164.50262 c -13.693224,-16.3938 -19.246244,-23.14108 -12.34005,-14.99395 6.906198,8.14713 18.109745,21.56024 24.896771,29.80691 6.78703,8.24667 1.136503,1.58084 -12.556721,-14.81296 z M 241.55532,-62.041503 c -13.69322,-16.3938 -19.24624,-23.141076 -12.34005,-14.993943 6.9062,8.147129 18.10974,21.560238 24.89677,29.806908 6.78703,8.246667 1.1365,1.580834 -12.55672,-14.812965 z m 63.64716,-14.791775 c -1.01409,-0.21599 -1.01179,-0.241617 0.0246,-0.273562 1.08842,-0.03355 1.56835,0.115968 1.24342,0.387373 -0.082,0.06847 -0.65257,0.01726 -1.26797,-0.113811 z m -7.59495,-0.693601 -1.49403,-0.260099 1.51647,0.01012 c 0.83406,0.0056 1.56767,0.07141 1.63024,0.146329 0.26389,0.315934 -0.24865,0.348076 -1.65268,0.10365 z M -32.967707,180.66354 c -3.173926,-3.79989 -4.41314,-5.40384 -2.753803,-3.56435 1.659333,1.83949 4.256181,4.94849 5.770775,6.90888 1.514589,1.9604 0.156954,0.45536 -3.016972,-3.34453 z M 255.55488,-64.809508 c 0.18973,-0.352087 0.54196,-0.622483 0.7827,-0.600889 0.24077,0.02161 0.0855,0.309685 -0.34497,0.640162 -0.47574,0.365202 -0.64742,0.349796 -0.43775,-0.03929 z M -7.6831635,153.69156 c 0.8534057,-0.85392 2.3634907,-2.11525 3.3557446,-2.80294 0.9922571,-0.68769 0.2940188,0.011 -1.5516407,1.5526 -1.8456595,1.54162 -2.6575062,2.10427 -1.8041039,1.25034 z M 4.9502276,143.13929 c 0.8534057,-0.85393 2.3634907,-2.11525 3.3557445,-2.80295 0.9922571,-0.68769 0.2940188,0.011 -1.5516406,1.5526 -1.8456595,1.54162 -2.6575062,2.10428 -1.8041039,1.25035 z M 47.598027,107.51626 c 0.858912,-0.859 2.281148,-2.04496 3.160656,-2.63531 0.879377,-0.5905 0.176636,0.11232 -1.561653,1.56182 -1.73841,1.44936 -2.457783,1.93265 -1.598874,1.07364 z M 60.025236,97.139552 c 0.743119,-0.765299 2.075547,-1.878234 2.960951,-2.473189 0.885407,-0.59495 0.277399,0.0312 -1.351125,1.391457 -1.628523,1.360254 -2.352942,1.847036 -1.609826,1.081732 z M 100.10556,63.658371 c 0.85891,-0.859002 2.28115,-2.04496 3.16065,-2.635305 0.87938,-0.590503 0.17664,0.112317 -1.56165,1.561821 -1.738408,1.449359 -2.457781,1.932643 -1.59887,1.073638 z m 14.40117,-12.025498 c 0.74312,-0.7653 2.07555,-1.878235 2.96096,-2.473189 0.8854,-0.59495 0.27739,0.0312 -1.35113,1.391456 -1.62852,1.360254 -2.35294,1.847037 -1.60983,1.081733 z M 12.797021,135.48235 c -0.06848,-0.082 -0.01726,-0.65257 0.113811,-1.26797 0.215989,-1.01409 0.241616,-1.01179 0.273562,0.0246 0.03355,1.08841 -0.115969,1.56834 -0.387373,1.24341 z M 67.27852,89.975669 c -0.06848,-0.08198 -0.01726,-0.652564 0.113811,-1.267967 0.215989,-1.014088 0.241617,-1.011788 0.273562,0.02456 0.03355,1.088414 -0.115969,1.568342 -0.387373,1.243412 z M 92.502196,67.317045 c -1.014088,-0.21599 -1.011788,-0.241617 0.02456,-0.273562 1.088414,-0.03355 1.568342,0.115968 1.243412,0.387373 -0.08198,0.06847 -0.652564,0.01726 -1.267967,-0.113811 z m -4.838238,-5.092378 c -0.06847,-0.08198 -0.01726,-0.652563 0.113811,-1.267966 0.21599,-1.014088 0.241617,-1.011788 0.273562,0.02455 0.03355,1.088414 -0.115968,1.568342 -0.387373,1.243411 z M 116.77053,36.99301 c -1.01408,-0.215989 -1.01178,-0.241617 0.0246,-0.273562 0.62891,-0.01938 1.19949,0.03183 1.26797,0.113811 0.2714,0.324931 -0.22748,0.386592 -1.29253,0.159751 z m -83.523036,70.01378 c -0.06847,-0.082 -0.01726,-0.65256 0.113811,-1.26796 0.21599,-1.01409 0.241617,-1.01179 0.273562,0.0246 0.03355,1.08842 -0.115968,1.56835 -0.387373,1.24341 z m -49.704833,38.60529 c 0.628003,-0.67261 1.870405,-1.71278 2.760916,-2.31147 0.890488,-0.5987 0.376667,-0.0484 -1.141824,1.22294 -1.518635,1.27115 -2.247075,1.76117 -1.619069,1.08856 z m 13.4383254,-11.23252 c 0.8589119,-0.859 2.28114774,-2.04496 3.1606561,-2.6353 0.8793765,-0.59051 0.17663532,0.11231 -1.561653,1.56182 -1.7384103,1.44936 -2.457783,1.93264 -1.5988745,1.07364 z M 40.013475,98.435881 c 0.858912,-0.859002 2.281147,-2.04496 3.160656,-2.635305 0.879376,-0.590503 0.176635,0.112317 -1.561653,1.561821 -1.73841,1.449359 -2.457783,1.932643 -1.598875,1.073638 z m 11.044112,-9.224129 c 0.853406,-0.853927 2.363491,-2.115253 3.355745,-2.802948 0.992257,-0.687691 0.294019,0.01098 -1.551641,1.552601 -1.845659,1.541621 -2.657506,2.104277 -1.804104,1.250347 z M 92.521006,54.577994 c 0.858912,-0.859001 2.281148,-2.04496 3.160657,-2.635305 0.879376,-0.590503 0.176635,0.112317 -1.561653,1.561822 -1.738411,1.449358 -2.457784,1.932642 -1.598875,1.073637 z M 105.53909,43.705072 c 0.8534,-0.853926 2.36349,-2.115253 3.35574,-2.802947 0.99226,-0.687691 0.29402,0.01098 -1.55164,1.5526 -1.84566,1.541622 -2.65751,2.104278 -1.8041,1.250347 z M -58.10976,156.294 c 0.300515,-0.42094 0.838984,-0.85953 1.196615,-0.97463 0.357617,-0.11511 0.111743,0.2293 -0.546386,0.76535 -0.658137,0.53605 -0.950728,0.63024 -0.650212,0.2093 z m -34.446056,20.0205 -1.863939,-0.28624 1.885119,0.0503 c 1.76193,0.047 2.280964,0.15621 1.971338,0.41483 -0.07072,0.0591 -0.967351,-0.0214 -1.992518,-0.17885 z m 31.35372,-29.37237 c -1.085835,-1.30479 -1.417703,-1.8516 -0.737146,-1.21541 0.680557,0.63619 1.569093,1.70365 1.974524,2.37212 0.405428,0.66848 -0.151386,0.14797 -1.237378,-1.15671 z M 226.83807,-98.005241 c -1.36025,-1.628523 -1.84703,-2.352939 -1.08173,-1.609827 0.7653,0.74312 1.87824,2.075548 2.47319,2.960952 0.59495,0.885407 -0.0312,0.277398 -1.39146,-1.351125 z m -318.288293,262.002361 -1.863939,-0.28625 1.885119,0.0503 c 1.76193,0.047 2.280965,0.1562 1.971339,0.41482 -0.07072,0.0591 -0.967352,-0.0214 -1.992519,-0.17884 z m 24.152628,-25.0331 c -0.453418,-0.54284 -0.549297,-0.83976 -0.213069,-0.65982 0.336229,0.17994 0.707207,0.62409 0.824397,0.98698 0.117189,0.3629 -0.15791,0.21568 -0.611328,-0.32716 z M 220.87322,-104.13764 c -0.3652,-0.47574 -0.3498,-0.64742 0.0393,-0.43775 0.35209,0.18973 0.62248,0.54196 0.60089,0.78271 -0.0216,0.24076 -0.30969,0.0855 -0.64016,-0.34497 z M -68.523004,132.15719 c 0.189732,-0.35209 0.541954,-0.62248 0.782707,-0.60089 0.240761,0.0216 0.08552,0.30968 -0.344971,0.64016 -0.475743,0.3652 -0.647422,0.3498 -0.437749,-0.0393 z m 7.139989,-6.66193 c 0.636191,-0.68056 1.703647,-1.5691 2.372124,-1.97453 0.668481,-0.40543 0.147963,0.15139 -1.156709,1.23738 -1.304797,1.08583 -1.851606,1.4177 -1.215415,0.73715 z M 95.548245,-5.7689749 -25.425036,94.937829 95.178129,-5.9641234 C 175.26019,-72.964331 215.97407,-106.80191 216.35505,-106.67509 c 0.31556,0.10504 0.48212,0.19286 0.37011,0.19515 -0.112,0.002 -54.64161,45.322224 -121.176915,100.7109651 z M -132.43033,158.85048 c -0.53606,-0.65813 -0.63025,-0.95073 -0.2093,-0.65022 0.42094,0.30052 0.85953,0.83899 0.97464,1.1966 0.11512,0.35762 -0.22929,0.11175 -0.76534,-0.54638 z m 6.44218,-10.7428 c -0.53606,-0.65813 -0.63024,-0.95072 -0.2093,-0.65021 0.42094,0.30051 0.85953,0.83898 0.97465,1.1966 0.11511,0.35761 -0.2293,0.11174 -0.76535,-0.54639 z m -5.78541,-6.89666 c -0.45341,-0.54285 -0.5493,-0.83976 -0.21307,-0.65982 0.33623,0.17994 0.70721,0.62408 0.8244,0.98698 0.11719,0.3629 -0.15791,0.21568 -0.61133,-0.32716 z m -12.19832,3.82168 c -0.53606,-0.65812 -0.63025,-0.95072 -0.2093,-0.65021 0.42094,0.30052 0.85953,0.83899 0.97464,1.1966 0.11512,0.35762 -0.22929,0.11174 -0.76534,-0.54639 z m 9.73152,-7.51405 c -0.36521,-0.47574 -0.34979,-0.64743 0.0393,-0.43775 0.35209,0.18973 0.62248,0.54195 0.60087,0.78272 -0.0216,0.24076 -0.30968,0.0855 -0.64016,-0.34497 z M 10.45257,6.4960617 C 42.487929,-20.356667 94.985591,-64.20631 127.11404,-90.947589 c 32.12845,-26.741281 5.9177,-4.77087 -58.246112,48.823137 C 4.7041188,11.469556 -21.582793,33.348787 10.45257,6.4960617 Z M -90.147641,89.868427 c 0.74312,-0.7653 2.075548,-1.878235 2.960951,-2.473189 0.885407,-0.59495 0.277399,0.0312 -1.351124,1.391456 -1.628523,1.360254 -2.352943,1.847037 -1.609827,1.081733 z m -6.804218,5.04352 c 0.189732,-0.352086 0.541954,-0.62248 0.782707,-0.600889 0.240761,0.02161 0.08552,0.309685 -0.344971,0.640162 -0.475743,0.365202 -0.647422,0.349796 -0.437749,-0.03929 z m -8.418221,-1.558796 c -0.53605,-0.658137 -0.63024,-0.950728 -0.2093,-0.650212 0.42094,0.300515 0.85954,0.838983 0.97467,1.196581 0.11511,0.357618 -0.22929,0.111744 -0.76535,-0.546386 z m 6.364552,-11.850854 C -99.335855,81.317424 -110.68839,67.802555 -124.23337,51.469252 l -24.62726,-29.696914 25.07455,29.824337 25.074559,29.824334 79.536238,-66.263279 79.536241,-66.263274 -79.382946,66.471982 c -63.215141,52.933738 -79.50527,66.403528 -79.98354,66.135859 z M 165.45921,-152.2987 c -3.62769,-4.34244 -5.09892,-6.22106 -3.26939,-4.1747 1.82953,2.04636 4.79765,5.59926 6.59597,7.89521 1.79816,2.29608 0.30127,0.6218 -3.32642,-3.72064 z M -116.58373,80.601959 c -1.63349,-1.953238 -2.27609,-2.858216 -1.42795,-2.011093 0.84813,0.847119 2.18464,2.445209 2.97019,3.551163 0.78538,1.106099 0.0914,0.413004 -1.54206,-1.540221 z m -25.14129,23.177971 c 0.18006,-3.10959 0.27272,-3.71908 0.52033,-3.42264 0.0529,0.0634 -0.0861,1.61209 -0.30891,3.44162 l -0.40514,3.32643 z M -153.348,98.657681 c -0.0685,-0.08198 -0.0173,-0.652564 0.11381,-1.267966 0.21599,-1.014088 0.24161,-1.011787 0.27356,0.02456 0.0336,1.088414 -0.11597,1.568341 -0.38737,1.24341 z m 51.75987,-58.22031 c 1.08043,-1.038263 2.857698,-2.521336 3.949588,-3.295611 1.091801,-0.774383 0.207819,0.0751 -1.964403,1.887743 -2.172355,1.812488 -3.065515,2.446234 -1.985095,1.407975 z m 13.019902,-10.865057 c 0.632546,-0.677016 1.787317,-1.64156 2.566158,-2.14343 0.778843,-0.501866 0.261309,0.05206 -1.150078,1.230947 -1.411386,1.178887 -2.048623,1.589504 -1.41608,0.912483 z m 39.874141,-33.3056127 c 0.632546,-0.6770165 1.787317,-1.6415602 2.566157,-2.1434305 0.778844,-0.5018664 0.26131,0.05206 -1.150077,1.2309473 -1.411387,1.1788868 -2.048623,1.5895037 -1.41608,0.9124832 z m 13.223932,-11.0488853 c 0.74312,-0.7653 2.075547,-1.878235 2.960951,-2.473189 0.885407,-0.59495 0.277399,0.0312 -1.351124,1.391456 -1.628523,1.360254 -2.352943,1.847037 -1.609827,1.081733 z M 5.4009053,-48.927195 c 1.0804205,-1.038263 2.8576935,-2.521336 3.9495835,-3.295611 1.0918012,-0.774382 0.2078185,0.0751 -1.964403,1.887743 -2.1723534,1.812488 -3.0655154,2.446234 -1.9850915,1.407975 z M 18.42909,-59.809227 c 1.08042,-1.038263 2.857693,-2.521336 3.949583,-3.295611 1.091801,-0.774382 0.207819,0.0751 -1.964403,1.887743 -2.172353,1.812488 -3.065515,2.446234 -1.985091,1.407975 z m -46.885715,38.528987 c 0.189732,-0.352087 0.541959,-0.622484 0.782707,-0.600889 0.240765,0.02161 0.08552,0.309685 -0.344971,0.640161 -0.475743,0.365202 -0.647422,0.349796 -0.437749,-0.03929 z m 55.962873,-48.296874 c 0.03028,-0.762545 0.143879,-1.460639 0.252448,-1.551323 0.108568,-0.09068 0.172624,0.45902 0.142345,1.221564 -0.03028,0.762544 -0.14388,1.460639 -0.252448,1.551323 -0.108568,0.09068 -0.172624,-0.45902 -0.142345,-1.221564 z M -113.73316,43.31313 c -0.3652,-0.475741 -0.34979,-0.647423 0.0393,-0.437749 0.35209,0.189735 0.62248,0.541955 0.60089,0.782707 -0.0216,0.240765 -0.30968,0.08552 -0.64016,-0.344972 z m 53.980474,-45.3674497 c -0.453418,-0.5428411 -0.549297,-0.839761 -0.213069,-0.6598188 0.336229,0.1799422 0.707207,0.6240849 0.824397,0.9869837 0.117189,0.3628988 -0.15791,0.2156761 -0.611328,-0.3271649 z M -6.0525055,-49.172129 c -0.068476,-0.08198 -0.017261,-0.652566 0.1138111,-1.267966 0.215989,-1.014089 0.2416164,-1.011789 0.2735602,0.02455 0.033548,1.088413 -0.1159688,1.568342 -0.3873713,1.243413 z M -86.503411,15.095432 c -1.014087,-0.215988 -1.011787,-0.241616 0.02456,-0.27356 1.088414,-0.03355 1.568341,0.115966 1.24341,0.387371 -0.08198,0.06847 -0.652563,0.01726 -1.267966,-0.113811 z m -23.467029,16.938183 c 0.63254,-0.677019 1.78731,-1.641563 2.56615,-2.143431 0.77885,-0.501867 0.26131,0.05206 -1.15008,1.230945 -1.41138,1.178886 -2.04862,1.589505 -1.41607,0.912486 z m 13.627711,-11.378914 c 0.524313,-0.591998 1.414624,-1.33153 1.978468,-1.643404 0.563845,-0.311874 0.134879,0.172472 -0.953298,1.076361 -1.088156,0.903875 -1.549484,1.15904 -1.02517,0.567043 z m 39.284528,-32.806212 c 0.412212,-0.504622 1.125835,-1.094602 1.585829,-1.311067 0.459994,-0.216466 0.122712,0.196422 -0.749478,0.917496 -0.872206,0.721086 -1.248563,0.898192 -0.836351,0.393571 z m 14.797184,-12.365654 c 0.521569,-0.589217 1.498683,-1.405369 2.171364,-1.813672 0.672681,-0.408303 0.245943,0.07378 -0.948308,1.071303 -1.19425,0.99752 -1.744625,1.331586 -1.223056,0.742369 z m 40.0750066,-33.466339 c 0.4099579,-0.502176 1.20941473,-1.169937 1.77657059,-1.483913 0.56715586,-0.313976 0.23173567,0.09689 -0.74537819,0.913048 -0.9771138,0.816152 -1.4411504,1.073041 -1.0311924,0.570865 z M 13.404863,-71.01312 c 0.521569,-0.589217 1.498683,-1.405369 2.171364,-1.813672 0.67268,-0.408303 0.245942,0.07378 -0.948308,1.071303 -1.19425,0.99752 -1.744626,1.331586 -1.223056,0.742369 z M 135.01526,-207.96771 c -1.99425,-2.38916 -2.70276,-3.36977 -1.57469,-2.17895 1.12807,1.19083 2.75964,3.14566 3.62576,4.34405 0.86604,1.19845 -0.0569,0.22414 -2.05107,-2.1651 z M -158.1439,30.866824 c -1.26799,-1.521274 -1.67542,-2.154442 -0.90579,-1.406724 0.76964,0.747722 1.80694,1.992519 2.30515,2.766193 0.49816,0.77372 -0.13154,0.16195 -1.39936,-1.359469 z M 123.57858,-203.10663 c -0.72109,-0.8722 -0.89819,-1.24856 -0.39357,-0.83635 0.50462,0.41222 1.0946,1.12584 1.31106,1.58584 0.21647,0.45998 -0.1964,0.12272 -0.91749,-0.74949 z m -286.9706,222.43907 c -0.0334,-1.085361 6.37111,-6.486031 126.036158,-106.280418 L 88.715542,-192.08493 -37.100398,-86.825203 C -136.94704,-3.2918203 -162.96179,18.645204 -163.13655,19.455215 c -0.19513,0.904384 -0.22424,0.890392 -0.25547,-0.122775 z m 276.9472,-231.64345 c 0.63619,-0.68056 1.70365,-1.56909 2.37213,-1.97452 0.66848,-0.40543 0.14796,0.15138 -1.15671,1.23737 -1.30467,1.08599 -1.85161,1.41771 -1.21542,0.73715 z"
               id="path1052" />
            <path
               style="fill:#000000;fill-opacity:1;stroke-width:0.514395"
               d="m 87.957281,321.34561 c -1.178809,-0.26771 -2.810312,-0.9388 -3.625562,-1.49131 -0.89667,-0.6077 -13.043439,-14.84583 -30.745841,-36.0395 l -29.263569,-35.03492 0.713715,-2.38899 c 0.67751,-2.26777 1.045363,-2.69249 7.250362,-8.371 3.595158,-3.29011 67.099231,-56.58617 141.120164,-118.4357 L 307.99007,7.1305019 310.42572,6.9110276 c 1.3396,-0.1207103 3.00026,0.075615 3.69035,0.4362753 0.7243,0.3785431 5.14762,5.1611951 10.46362,11.3136291 l 9.20892,10.657884 2.05439,-2.061007 c 7.72455,-7.749419 13.3361,-20.5808894 14.42202,-32.977709 2.36893,-27.04347 -14.1144,-50.47592 -40.71272,-57.876575 -5.14254,-1.430849 -14.59502,-2.21497 -19.98166,-1.657558 -7.94173,0.821817 -17.34953,4.136521 -24.18915,8.522705 l -2.22297,1.425564 8.20828,10.303017 c 7.72988,9.702525 8.24464,10.454746 8.83216,12.906398 l 0.62388,2.603386 L 146.08688,83.222542 C 71.982092,145.21607 7.5260176,198.87384 2.8511533,202.46203 c -6.7490567,5.18024 -8.7284465,6.50345 -9.6100886,6.42432 -1.4979896,-0.13446 -8.2158727,-7.23391 -18.8704797,-19.9423 -4.544169,-5.42007 -11.383581,-13.35489 -15.198728,-17.63291 l -6.936635,-7.77821 -1.694473,1.41534 c -6.211696,5.18843 -22.757141,10.67734 -33.850406,11.22979 -17.060693,0.84963 -36.769953,-5.92765 -47.812223,-16.44084 -4.25918,-4.05512 -10.22407,-11.18545 -13.41264,-16.03326 -4.43621,-6.74472 -8.2527,-18.64512 -9.2441,-28.82457 -0.63136,-6.48272 0.42541,-17.476048 2.28218,-23.740769 3.29529,-11.118314 10.54336,-23.980438 16.19329,-28.735924 l 1.81262,-1.525655 -14.21498,-17.449256 C -162.64929,25.083912 -162.88345,24.73761 -163.06157,20.717221 l -0.094,-2.1205 141.505938,-117.993738 C 91.413239,-193.67366 120.23713,-217.53782 121.75074,-218.12237 c 1.04192,-0.40238 2.43566,-0.5183 3.09721,-0.25759 1.84951,0.72887 13.3483,13.84589 38.98362,44.4698 l 23.02268,27.50286 -0.68271,3.26676 -0.68272,3.26676 L 50.979672,-27.560583 C -23.000349,34.211686 -86.801571,87.238933 -90.800805,90.277764 c -7.896445,6.000151 -9.166502,6.561474 -11.708265,5.174675 -0.72015,-0.392917 -5.69294,-5.660413 -11.05063,-11.70554 -5.35769,-6.045125 -10.31354,-11.312443 -11.01298,-11.705153 -2.25418,-1.265618 -3.20493,-0.688512 -6.53216,3.965016 -4.1692,5.831132 -6.46043,10.434087 -8.40253,16.880172 -7.28646,24.184836 3.00918,51.121716 24.23925,63.418086 13.03946,7.55241 28.98282,9.73475 43.387647,5.93894 4.22248,-1.11266 13.034077,-4.87021 14.716726,-6.27567 1.563817,-1.30621 0.698781,-3.07758 -5.548722,-11.36235 -3.62017,-4.80068 -6.100948,-8.47665 -6.328394,-9.37729 -0.239474,-0.94826 0.0077,-2.03491 0.686843,-3.0196 0.67528,-0.9791 52.569033,-44.646291 142.75798,-120.127001 L 216.101,-106.50669 l 1.47703,0.44863 c 0.81237,0.24674 2.20587,0.97767 3.09666,1.62429 0.8908,0.64662 9.07661,9.8907 18.19069,20.542398 l 16.57107,19.366724 4.18197,-2.704132 c 5.35596,-3.463256 9.21938,-5.289513 15.28428,-7.224968 15.7459,-5.024889 32.86782,-3.996999 48.22539,2.895155 7.1465,3.2072 10.75593,5.336197 14.39391,8.490145 4.33156,3.755238 11.749,12.16628 15.07297,17.09207 11.25025,16.671712 13.21574,41.8447188 4.83658,61.944329 -2.60466,6.247955 -8.12324,14.724182 -14.02186,21.536783 l -1.4035,1.620973 15.84507,19.395319 c 16.58851,20.305343 17.50867,21.630748 16.59286,23.900397 -0.24935,0.617976 -2.83203,3.355604 -5.73929,6.083613 -2.90727,2.728013 -66.78256,56.342664 -141.9451,119.143674 L 90.100571,321.83236 Z M 335.68795,50.87492 C 321.98185,34.597072 310.64906,21.268179 310.50397,21.255152 310.35889,21.242133 249.20201,72.039704 174.5998,134.13865 L 38.959429,247.04581 64.073428,277.11279 89.187431,307.17977 224.89778,193.82539 360.60814,80.471007 Z M 85.843815,267.15687 c -6.247566,4.55056 -8.557365,4.65273 -11.396111,0.50411 -2.333838,-3.41073 -2.166877,-3.70996 6.326075,-11.3375 6.788596,-6.09686 14.085908,-11.93217 18.482912,-14.7799 2.619579,-1.69657 4.280859,-1.43694 6.304019,0.98523 2.031,2.43156 2.12658,4.77224 0.29282,7.17108 -1.77278,2.31908 -14.647383,13.5512 -20.009715,17.45698 z m 53.118315,-44.419 c -3.51095,2.40812 -4.98242,2.79529 -7.44522,1.95896 -3.7787,-1.28318 -5.19573,-5.10988 -2.89033,-7.80538 2.42453,-2.8348 23.31129,-20.04132 25.54842,-21.04679 2.52297,-1.13395 4.2877,-0.71354 6.09688,1.45243 1.8659,2.2339 2.0798,3.06074 1.28272,4.95835 -1.18653,2.82476 -14.66808,15.04719 -22.59247,20.48243 z m 55.1105,-45.95725 c -3.90234,2.76312 -5.44722,3.13854 -8.91925,2.16746 -2.26011,-0.63212 -3.09606,-1.94044 -3.0549,-4.78113 0.0269,-1.85505 0.0906,-1.93294 5.98201,-7.30939 3.27518,-2.98889 9.36285,-8.06699 13.52818,-11.28465 l 7.57332,-5.85029 2.19062,0.32146 c 2.47418,0.36308 3.6762,1.51715 4.36759,4.1934 0.81616,3.15926 -0.0759,4.33271 -9.5853,12.60871 -4.67637,4.06984 -10.11339,8.54034 -12.08227,9.93444 z M 241.7625,-62.214554 217.03061,-91.824065 81.221654,21.612875 -54.5873,135.04981 -29.855408,164.65933 -5.1235165,194.26884 130.68544,80.831897 266.49439,-32.605042 Z M -7.8615974,153.67854 c -2.9491366,2.20649 -5.7961426,4.13737 -6.3266876,4.29084 -0.53054,0.15347 -1.644354,-0.006 -2.475146,-0.35545 -3.272156,-1.37446 -4.911041,-5.3584 -3.250781,-7.90228 1.414256,-2.16694 12.1349351,-11.59285 19.24164903,-16.91777 5.98536687,-4.48472 6.63109287,-4.85793 8.24232557,-4.76388 2.4417674,0.14254 4.2859194,1.79063 4.9299814,4.40585 0.285634,1.1598 0.243914,2.68171 -0.09271,3.38201 -0.783249,1.62945 -13.20740124,12.5776 -20.2686294,17.86068 z M 46.574256,108.23606 c -4.800339,3.69469 -6.006614,4.43294 -7.166521,4.386 -3.442081,-0.13932 -6.160724,-3.16227 -5.766483,-6.41195 0.205943,-1.6975 0.550335,-2.08755 6.91483,-7.831439 3.683954,-3.324735 9.64189,-8.283235 13.239861,-11.018894 6.378204,-4.849565 6.590648,-4.96954 8.49701,-4.798427 1.597782,0.143415 2.253949,0.533112 3.589052,2.131524 1.341999,1.606668 1.601915,2.311309 1.455254,3.94526 -0.170016,1.894139 -0.408403,2.203349 -4.986262,6.467753 -5.3237,4.959173 -7.330972,6.629723 -15.776747,13.130163 z M 100.02193,63.642363 95.14156,67.290729 92.558977,66.944362 C 89.136099,66.485288 87.939122,65.06196 88.096541,61.638034 l 0.11806,-2.567996 6.003443,-5.549672 c 3.301897,-3.052323 9.289526,-8.045127 13.305846,-11.095118 7.00437,-5.319117 7.37557,-5.538874 9.09545,-5.384496 3.8255,0.343368 6.59009,5.03485 4.70242,7.979927 -1.17626,1.835164 -14.93234,13.861616 -21.29981,18.621674 z m 71.85643,-208.471853 c 0.008,-0.0858 -11.09431,-13.56264 -24.67114,-29.94846 l -24.68515,-29.79241 -135.710159,113.354621 -135.710161,113.354616 24.84181,29.74111 c 13.663,16.357611 25.093544,29.77167 25.401213,29.809022 0.464257,0.05636 270.490387,-226.037249 270.533587,-226.518499 z M -101.8804,40.585667 c -6.2185,4.782191 -6.27127,4.811381 -8.1368,4.501295 -1.35646,-0.225473 -2.2722,-0.784405 -3.29877,-2.013431 -1.83577,-2.197825 -1.91852,-4.544671 -0.24527,-6.956577 1.50693,-2.172168 18.841781,-16.921234 22.769654,-19.373175 3.543102,-2.211751 6.059946,-2.036744 8.239736,0.572945 2.031943,2.432682 2.214629,3.680772 0.821262,5.610755 -1.596192,2.210915 -12.582555,11.838757 -20.149812,17.658188 z m 52.837304,-44.1349953 c -4.721942,3.46451292 -6.368335,4.06972598 -8.229081,3.02500225 -2.909235,-1.63340835 -3.867749,-4.65132915 -2.5065,-7.89201335 1.49781,-3.5658206 23.043668,-21.0876246 27.015826,-21.9701616 2.016473,-0.448022 2.782497,-0.09015 4.686626,2.189512 1.799738,2.154683 1.852079,4.062126 0.170745,6.222518 -1.778595,2.285363 -15.810337,14.5164914 -21.137616,18.4251427 z M 5.8866414,-49.451251 c -5.34020255,4.076923 -5.49963293,4.160788 -7.3305834,3.855958 -2.8247883,-0.470297 -3.9624743,-1.520804 -4.1824368,-3.86194 -0.3419566,-3.639559 0.2522494,-4.883653 4.2450212,-8.887861 5.2364871,-5.251484 19.7018006,-16.543187 21.9302766,-17.118894 2.075101,-0.536083 4.612776,0.271482 5.973938,1.901093 1.344981,1.610237 1.284159,4.940061 -0.119194,6.525576 -1.938324,2.189917 -14.877061,13.280301 -20.5170216,17.586068 z"
               id="path1050" />
          </g>
          <path
             style="fill:#006363;stroke:#ffffff;stroke-width:11.78362328;stroke-miterlimit:4;stroke-dasharray:none;stroke-opacity:1;fill-opacity:1"
             d="M 142.57119,32.230189 C 131.60687,39.337606 117.61883,39.834288 106.25751,33.5196 98.668109,29.30137 92.90524,22.401947 90.105974,14.182662 c -3.17921,-9.3348832 -2.240601,-19.7919083 2.550173,-28.411403 7.991233,-14.377748 24.842793,-21.226803 40.733563,-16.555501 10.77795,3.1683 19.51766,11.577819 23.1663,22.2910897 3.83949,11.2736081 1.65,23.8990083 -5.76206,33.2258093 -2.08788,2.627245 -5.47772,5.718113 -8.22276,7.497532 z m 4.2934,-8.450825 c 1.21222,-1.339869 3.42082,-4.328721 3.45153,-4.670865 0.008,-0.08545 -0.19396,-0.263695 -0.44802,-0.396262 -0.25407,-0.132567 -5.75461,-3.308196 -12.2234,-7.056974 -6.46878,-3.7487782 -11.82502,-6.8371462 -11.90276,-6.8630262 -0.1153,-0.03834 9.97485,26.6630302 10.16654,26.9035562 0.0756,0.09476 2.55545,-1.151359 3.79873,-1.908949 2.50192,-1.524574 4.99398,-3.616256 7.15742,-6.007412 z M 130.61498,33.29804 C 109.51997,21.053703 93.318562,11.688925 93.199537,11.671058 c -0.224529,-0.03367 0.713445,2.669072 1.550689,4.468271 2.265721,4.868917 6.167454,9.510089 10.563974,12.566046 6.98872,4.857708 15.88647,6.731122 24.10098,5.074425 1.2542,-0.252947 1.45505,-0.333579 1.19979,-0.481745 z M 153.5419,11.785578 c 2.15562,-7.4193112 1.61288,-15.1267978 -1.5534,-22.060379 -3.11695,-6.825531 -9.13831,-12.794068 -15.78669,-15.648222 l -1.01252,-0.434677 1.27287,1.406167 c 1.3945,1.540701 2.61303,3.278512 3.68015,5.248752 0.79648,1.470583 1.06517,2.156549 7.70462,19.67069848 2.77267,7.31407132 5.06261,13.32388652 5.08873,13.35515952 0.10144,0.12145 0.18821,-0.09853 0.60627,-1.537521 z m -27.8746,0.674759 -3.92095,-10.0296772 -6.08208,-3.5168763 c -3.34513,-1.9342739 -6.14575,-3.5238132 -6.2236,-3.532302 -0.0779,-0.00851 -0.84212,0.4563922 -1.69838,1.033074 -1.84622,1.2434037 -2.14545,1.2942687 -2.82535,0.4802844 -0.34307,-0.4107394 -0.39556,-0.5797926 -0.32042,-1.032253 0.0893,-0.5376724 0.0988,-0.5476977 1.5044,-1.5932526 4.89345,-3.6398621 6.45477,-4.9446763 11.00783,-9.1990543 l 1.29939,-1.214231 0.51443,0.04617 c 0.68098,0.06109 1.2356,0.694267 1.22541,1.398846 -0.006,0.438285 -0.11077,0.598472 -0.94207,1.445275 -0.51423,0.52376 -1.15033,1.190407 -1.41361,1.481361 l -0.47867,0.529018 14.89694,9.1410786 c 8.19333,5.0275992 15.00857,9.2124772 15.14499,9.2997382 0.16147,0.103244 -0.50316,-1.608536 -1.90372,-4.903384 -1.18345,-2.78411282 -2.37976,-5.694713 -2.65843,-6.4679781 -1.17045,-3.2477723 -2.54597,-5.795538 -4.19532,-7.7706067 -2.27249,-2.721323 -4.23254,-3.944736 -8.83014,-5.511731 -4.08523,-1.392353 -5.80349,-2.611781 -6.70036,-4.755112 -0.88209,-2.108012 -0.51965,-4.298886 0.97007,-5.863877 l 0.58197,-0.611353 -1.5513,0.01537 c -4.49502,0.04444 -9.36058,1.156934 -13.24415,3.028133 -4.8031,2.314266 -8.98763,5.809472 -12.120247,10.123663 -4.067248,5.601357 -6.227055,13.0130606 -5.841944,20.0476038 l 0.09576,1.74917 0.642603,-0.401467 c 0.659492,-0.41208 1.268111,-0.949625 5.201933,-4.594458 2.540425,-2.3538043 2.658425,-2.4228371 3.444115,-2.01465112 0.55629,0.2890037 0.78351,0.7092639 0.7102,1.3135741 -0.0426,0.350671 -0.24349,0.64291302 -0.92213,1.34112002 -0.47722,0.491033 -1.102706,1.13451 -1.389887,1.430014 -0.368733,0.379428 -0.476684,0.571899 -0.367422,0.65507 0.444469,0.338324 30.212039,18.5670842 30.257609,18.5288432 0.0296,-0.02486 -1.71066,-4.558468 -3.86718,-10.07478 z"
             id="path989-3" />
          <path
             style="fill:#1c57a1;stroke-width:0.140385;fill-opacity:1"
             d="M 142.57119,32.230189 C 131.60687,39.337606 117.61883,39.834288 106.25751,33.5196 98.668109,29.30137 92.90524,22.401947 90.105974,14.182662 c -3.17921,-9.3348832 -2.240601,-19.7919083 2.550173,-28.411403 7.991233,-14.377748 24.842793,-21.226803 40.733563,-16.555501 10.77795,3.1683 19.51766,11.577819 23.1663,22.2910897 3.83949,11.2736081 1.65,23.8990083 -5.76206,33.2258093 -2.08788,2.627245 -5.47772,5.718113 -8.22276,7.497532 z m 4.2934,-8.450825 c 1.21222,-1.339869 3.42082,-4.328721 3.45153,-4.670865 0.008,-0.08545 -0.19396,-0.263695 -0.44802,-0.396262 -0.25407,-0.132567 -5.75461,-3.308196 -12.2234,-7.056974 -6.46878,-3.7487782 -11.82502,-6.8371462 -11.90276,-6.8630262 -0.1153,-0.03834 9.97485,26.6630302 10.16654,26.9035562 0.0756,0.09476 2.55545,-1.151359 3.79873,-1.908949 2.50192,-1.524574 4.99398,-3.616256 7.15742,-6.007412 z M 130.61498,33.29804 C 109.51997,21.053703 93.318562,11.688925 93.199537,11.671058 c -0.224529,-0.03367 0.713445,2.669072 1.550689,4.468271 2.265721,4.868917 6.167454,9.510089 10.563974,12.566046 6.98872,4.857708 15.88647,6.731122 24.10098,5.074425 1.2542,-0.252947 1.45505,-0.333579 1.19979,-0.481745 z M 153.5419,11.785578 c 2.15562,-7.4193112 1.61288,-15.1267978 -1.5534,-22.060379 -3.11695,-6.825531 -9.13831,-12.794068 -15.78669,-15.648222 l -1.01252,-0.434677 1.27287,1.406167 c 1.3945,1.540701 2.61303,3.278512 3.68015,5.248752 0.79648,1.470583 1.06517,2.156549 7.70462,19.67069848 2.77267,7.31407132 5.06261,13.32388652 5.08873,13.35515952 0.10144,0.12145 0.18821,-0.09853 0.60627,-1.537521 z m -27.8746,0.674759 -3.92095,-10.0296772 -6.08208,-3.5168763 c -3.34513,-1.9342739 -6.14575,-3.5238132 -6.2236,-3.532302 -0.0779,-0.00851 -0.84212,0.4563922 -1.69838,1.033074 -1.84622,1.2434037 -2.14545,1.2942687 -2.82535,0.4802844 -0.34307,-0.4107394 -0.39556,-0.5797926 -0.32042,-1.032253 0.0893,-0.5376724 0.0988,-0.5476977 1.5044,-1.5932526 4.89345,-3.6398621 6.45477,-4.9446763 11.00783,-9.1990543 l 1.29939,-1.214231 0.51443,0.04617 c 0.68098,0.06109 1.2356,0.694267 1.22541,1.398846 -0.006,0.438285 -0.11077,0.598472 -0.94207,1.445275 -0.51423,0.52376 -1.15033,1.190407 -1.41361,1.481361 l -0.47867,0.529018 14.89695,9.1410786 c 8.19332,5.0275992 15.00856,9.2124772 15.14498,9.2997382 0.16147,0.103244 -0.50316,-1.608536 -1.90372,-4.903384 -1.18345,-2.78411282 -2.37976,-5.694713 -2.65843,-6.4679781 -1.17045,-3.2477723 -2.54597,-5.795538 -4.19532,-7.7706067 -2.27249,-2.721323 -4.23254,-3.944736 -8.83014,-5.511731 -4.08523,-1.392353 -5.80349,-2.611781 -6.70036,-4.755112 -0.88209,-2.108012 -0.51965,-4.298886 0.97007,-5.863877 l 0.58197,-0.611353 -1.5513,0.01537 c -4.49502,0.04444 -9.36058,1.156934 -13.24415,3.028133 -4.8031,2.314266 -8.98763,5.809472 -12.120247,10.123663 -4.067248,5.601357 -6.227055,13.0130606 -5.841944,20.0476038 l 0.09576,1.74917 0.642603,-0.401467 c 0.659492,-0.41208 1.268111,-0.949625 5.201933,-4.594458 2.540425,-2.3538043 2.658425,-2.4228371 3.444115,-2.01465112 0.55629,0.2890037 0.78351,0.7092639 0.7102,1.3135741 -0.0426,0.350671 -0.24349,0.64291302 -0.92213,1.34112002 -0.47722,0.491033 -1.102706,1.13451 -1.389887,1.430014 -0.368733,0.379428 -0.476684,0.571899 -0.367422,0.65507 0.444469,0.338324 30.212039,18.5670842 30.257609,18.5288432 0.0296,-0.02486 -1.71066,-4.558468 -3.86718,-10.07478 z"
             id="path989" />
        </g>
      </g>
    </g>
  </g>
</svg>
