<?xml version="1.0" encoding="UTF-8"?>
<svg width="480" height="480" version="1.1" viewBox="0 0 127 127" xmlns="http://www.w3.org/2000/svg" xmlns:cc="http://creativecommons.org/ns#" xmlns:dc="http://purl.org/dc/elements/1.1/" xmlns:rdf="http://www.w3.org/1999/02/22-rdf-syntax-ns#">
 <metadata>
  <rdf:RDF>
   <cc:Work rdf:about="">
    <dc:format>image/svg+xml</dc:format>
    <dc:type rdf:resource="http://purl.org/dc/dcmitype/StillImage"/>
    <dc:title/>
   </cc:Work>
  </rdf:RDF>
 </metadata>
 <g transform="translate(-42.333 -84.667)" stroke-width=".26458">
  <path d="m42.333 148.17v-63.5h127v127h-127zm56.301 53.036 2.0394-0.40949 4.4129-2.0898 3.394-3.394 1.0449-2.2065 1.0449-2.2065 0.81898-4.0787v-43.953l-11.774 0.1424-0.13229 21.968-0.13229 21.968-1.3514 2.6312-2.2656 1.2552-1.6921 0.13583-1.6921 0.13582-1.1984-0.33552-1.1984-0.33553-2.3331-2.0537-2.1925-3.4716-1.4084 0.92281-7.9513 4.7578-0.12593 0.10544-0.12594 0.10545 1.4446 2.7467 2.4024 3.018 3.5486 2.6682 3.8393 1.6063 3.3045 0.72412 6.24 0.0532zm46.754-0.0952 2.3812-0.49778 1.4938-0.56578 1.4938-0.56577 1.5988-1.0333 1.5988-1.0333 2.1062-2.1062 1.9079-2.8212 0.69268-2.1167 0.69269-2.1167 6e-3 -6.35-0.91368-3.3973-0.77766-1.5405-0.77765-1.5405-3.5031-3.7134-3.5028-2.3158-5.2917-2.6264-7.4083-3.2731-2.0654-1.4366-0.80278-0.99625-0.80277-0.99625-0.22502-3.1108 0.62694-1.8996 2.1094-1.8056 2.32-0.58419h1.7863l2.8742 0.84925 2.9342 2.9872 0.80119 1.2727 9.0719-5.7706 0.0125-0.21295 0.0125-0.21296-2.0504-3.0194-1.8246-1.7169-1.8246-1.7169-3.4736-1.6827-3.3945-0.94548-8.4667 6e-3 -4.2333 1.4123-3.175 1.9024-2.5757 2.482-1.7799 2.7369-0.71115 2.0711-0.71116 2.0711-0.018 5.8208 0.45474 1.7198 0.45473 1.7198 0.81889 1.68 0.81887 1.68 3.4495 3.6567 3.5915 2.3876 5.4675 2.5714 5.8208 2.5478 2.6458 1.5345 1.2409 1.1398 0.41639 0.79375 0.41638 0.79375 0.19292 1.0387 0.19291 1.0387-0.3359 1.2949-0.3359 1.2949-1.7251 1.7799-2.7084 1.1908-5.0868 0.22597-3.0993-0.901-2.0529-1.0473-1.2077-1.1057-1.2077-1.1057-1.113-1.504-1.113-1.504-9.1965 5.3146-0.227 0.21143-0.22701 0.21142 2.5117 3.8852 3.2734 3.2118 3.9358 2.4531 3.6977 1.4056 4.4979 0.96202 7.1438 0.0302 2.3812-0.49777z" fill="#f5dd1c"/>
  <path d="m88.703 201.2-1.6522-0.36206-3.8393-1.6063-3.5486-2.6682-2.4024-3.018-0.72229-1.3734-0.72228-1.3734 0.12594-0.10545 0.12593-0.10544 7.9513-4.7578 0.70419-0.46141 0.70419-0.4614 2.1925 3.4716 2.3331 2.0537 2.3968 0.67105 3.3842-0.27165 2.2656-1.2552 0.67571-1.3156 0.67572-1.3156 0.13229-21.968 0.13229-21.968 11.774-0.1424v43.953l-0.40949 2.0394-0.40949 2.0394-2.0898 4.4129-3.394 3.394-4.4129 2.0898-4.0787 0.81899-6.24-0.0532zm44.912-0.10304-2.249-0.48101-3.6977-1.4056-3.9358-2.4531-3.2734-3.2118-2.5117-3.8852 0.45401-0.42285 9.1965-5.3146 2.226 3.008 2.4155 2.2114 2.0529 1.0473 3.0993 0.901 5.0868-0.22597 2.7084-1.1908 1.7251-1.7799 0.3359-1.2949 0.33589-1.2949-0.19291-1.0387-0.19291-1.0387-0.41639-0.79375-0.41638-0.79375-0.62045-0.5699-0.62045-0.56991-2.6458-1.5345-5.8208-2.5478-5.4675-2.5714-3.5915-2.3876-1.7248-1.8283-1.7248-1.8284-1.6378-3.3601-0.90948-3.4396 0.018-5.8208 1.4223-4.1422 1.7799-2.7369 1.2878-1.241 1.2878-1.241 3.175-1.9024 4.2333-1.4123 8.4667-6e-3 3.3945 0.94548 3.4736 1.6827 3.6492 3.4339 2.0504 3.0194-0.0125 0.21296-0.0125 0.21295-9.0719 5.7706-0.4006-0.63636-0.40061-0.63638-2.9342-2.9872-2.8742-0.84925h-1.7863l-1.16 0.2921-1.16 0.29209-2.1094 1.8056-0.31347 0.94983-0.31347 0.94982 0.22502 3.1108 1.6056 1.9925 2.0654 1.4366 7.4083 3.2731 5.2917 2.6264 1.7514 1.1579 1.7514 1.1579 3.5031 3.7134 0.77766 1.5405 0.77765 1.5405 0.45684 1.6986 0.45684 1.6986-6e-3 6.35-0.69268 2.1167-0.69268 2.1167-1.9079 2.8212-2.1062 2.1062-3.1975 2.0666-2.9876 1.1316-4.7625 0.99556-7.1438-0.0302-2.249-0.48101z" fill="#010100"/>
 </g>
</svg>
