<?xml version="1.0" encoding="UTF-8"?>
<svg width="2500" height="1300" version="1.1" viewBox="0 0 661.46 343.96" xmlns="http://www.w3.org/2000/svg" xmlns:cc="http://creativecommons.org/ns#" xmlns:dc="http://purl.org/dc/elements/1.1/" xmlns:rdf="http://www.w3.org/1999/02/22-rdf-syntax-ns#">
 <metadata>
  <rdf:RDF>
   <cc:Work rdf:about="">
    <dc:format>image/svg+xml</dc:format>
    <dc:type rdf:resource="http://purl.org/dc/dcmitype/StillImage"/>
    <dc:title/>
   </cc:Work>
  </rdf:RDF>
 </metadata>
 <g stroke-width=".27609">
  <path d="m320.29 346.15-4.0033-0.0664-16.289-0.59599-13.252-0.79488-3.313-0.28018-7.1783-0.57829-8.8348-0.83765-9.9391-1.0906-6.6261-0.82972-11.872-1.6614-11.872-1.9232-13.528-2.5076-11.872-2.4878-12.7-2.98-11.872-3.0927-9.663-2.765-9.663-2.971-14.633-4.947-4.4174-1.6527-4.4174-1.6528-4.8315-1.9322-4.8315-1.9323-5.1076-2.2065-5.1076-2.2065-4.2092-1.9609-4.2092-1.9609-9.4058-4.709-4.3401-2.3759-4.3401-2.3759-7.1783-4.1658-6.6261-4.1249-8.9331-5.9628-4.3191-3.156-5.5217-4.1639-4.1413-3.3191-8.0065-6.9189-7.9471-7.7374-7.2419-8.0065-3.3452-4.1413-4.1488-5.5217-4.5045-6.7372-2.1188-3.6716-2.1188-3.6716-3.472-7.2371-2.7232-6.8433-2.0197-6.2682-0.94272-3.8393-0.94273-3.8393-0.55487-3.6559-0.55488-3.6559-0.32274-3.8652-0.32274-3.8652 0.16203-5.1076 0.16204-5.1076 0.43625-3.4511 0.43625-3.4511 1.3871-6.9022 0.70534-2.5992 0.70533-2.5992 2.6537-7.7778 2.575-6.0224 3.2319-6.4471 1.5784-2.738 1.5784-2.738 2.0633-3.175 2.0633-3.175 3.1085-4.1413 3.1085-4.1413 5.9051-6.9022 9.3399-9.5011 7.8782-7.0086 9.1109-7.2837 5.2457-3.8555 6.403-4.4355 7.6774-4.9561 8.8348-5.267 7.4544-4.1206 8.5587-4.4553 10.767-5.0888 9.663-4.2815 14.633-5.8269 7.1783-2.5977 14.633-4.9266 13.528-4.06 11.596-3.1403 12.227-2.9732 9.8603-2.1837 11.043-2.2166 9.1109-1.6742 11.872-1.9309 11.596-1.6385 9.1109-1.113 7.4543-0.8328 8.8348-0.84024 6.6261-0.56246 11.596-0.82127 17.393-0.8454 26.78-0.33735 20.983 0.63695 14.633 0.82772 14.357 1.1135 13.528 1.3647 11.596 1.413 13.252 1.915 13.252 2.2283 12.976 2.472 16.289 3.5939 14.271 3.5952 14.175 4.0367 12.414 3.9306 12.424 4.3641 6.6261 2.4842 9.663 3.8688 10.491 4.5331 14.228 6.7861 11.853 6.4133 8.1536 4.7749 9.9229 6.3211 4.1494 2.9132 4.1494 2.9132 7.4544 5.6524 3.5349 2.9542 3.5348 2.9542 3.0927 2.824 3.0927 2.824 8.9257 9.0665 2.956 3.4511 2.956 3.4511 6.217 8.2826 2.0596 3.175 2.0596 3.175 1.6648 2.8989 1.6648 2.8989 1.5316 3.0591 1.5315 3.0591 1.5015 3.567 1.5015 3.567 1.3952 4.2794 1.3952 4.2794 0.7017 2.8989 0.70171 2.8989 0.55294 3.175 0.55295 3.175 0.71264 5.7978-0.0398 14.08-0.48589 3.5891-0.48588 3.5891-0.65814 3.313-0.65811 3.313-1.8994 6.9053-1.296 3.5876-1.296 3.5876-1.8779 4.2094-1.8779 4.2094-2.2434 4.0372-2.2435 4.0372-2.6302 4.0073-2.6302 4.0073-2.885 3.7997-2.8851 3.7997-6.1465 7.0973-11.383 11.345-8.2451 7.0272-8.044 6.2429-7.1783 5.1387-8.5587 5.6329-9.663 5.8165-9.1109 5.0719-12.424 6.2527-9.7649 4.4803-11.494 4.901-13.804 5.2473-11.32 3.9217-9.387 2.9978-11.32 3.3364-5.6642 1.525-5.6642 1.5249-10.482 2.5303-12.148 2.6956-14.08 2.7566-13.252 2.2352-5.5217 0.82177-5.5217 0.82174-15.461 1.9334-14.08 1.3873-10.767 0.8376-8.5587 0.55904-11.32 0.56372-21.535 0.53533-10.215-0.1126zm-184.01-70.835 0.1459-0.62119 4.1397-21.811 4.1397-21.811 0.2968-1.4597 0.2968-1.4597 49.514 0.0544 5.5217-0.61623 6.6261-1.3269 4.9696-1.4184 6.35-2.3046 9.1109-4.5282 7.4544-4.9756 4.6916-3.776 6.2866-6.0739 4.4022-5.2456 3.7479-5.2456 1.5923-2.6228 1.5923-2.6228 4.0087-8.2826 2.5476-7.0814 2.1677-8.3795 0.54949-3.313 0.54948-3.313 0.28124-2.6228 0.28124-2.6228 0.36226-8.8348-0.31398-3.9289-0.31399-3.9289-0.53211-3.1113-0.53212-3.1113-1.9848-6.6261-3.5092-7.1783-1.5692-2.1851-1.5692-2.1851-2.8578-3.2904-4.9696-4.1743-4.5734-2.9821-6.7462-3.2059-5.8556-1.961-4.3596-1.1032-6.0739-1.1401-7.4544-0.82065-85.32-6e-3 -36.113 182.91-0.24758 0.9663h43.123l0.14589-0.62119zm18.086-81.243v-0.14231l11.049-66.39 0.15717-0.75923 0.15716-0.75925h31.372l5.7183 0.56629 5.7978 1.4182 4.6071 2.1452 3.4885 2.4893 1.2561 1.4359 1.2561 1.436 1.703 3.1951 0.56473 1.5945 0.56473 1.5945 0.14942 3.0583 0.14943 3.0583-0.33507 3.2917-0.33508 3.2917-1.0722 6.2251-1.6307 6.3246-1.9376 5.0172-2.5954 5.0252-3.2735 4.4149-1.9479 1.9021-1.9479 1.9021-4.5246 3.0106-4.6304 2.1383-5.2456 1.6725-5.2457 1.1233-6.2309 0.86266h-27.038zm285.84 81.657 0.12471-0.20706 4.5065-23.684 4.5065-23.684 49.991 0.0509 6.563-0.87757 6.6892-1.405 8.0065-2.6692 6.7496-3.0199 5.6483-3.1981 5.5477-3.7246 2.977-2.3935 2.977-2.3935 3.1899-3.2018 3.1899-3.2018 4.6941-5.8348 2.024-3.037 2.024-3.037 3.3375-6.0248 2.5783-5.8469 1.205-3.393 1.205-3.393 0.8168-3.095 0.81683-3.095 0.54199-2.7609 0.54196-2.7609 0.50156-3.7272 0.50157-3.7272 4e-3 -7.7304 4e-3 -7.7304-0.50074-3.037-0.50077-3.037-0.65413-2.6228-0.65416-2.6228-0.87865-2.4848-0.87862-2.4848-1.1072-2.2087-1.1072-2.2087-1.2466-1.9326-1.2465-1.9326-3.1689-3.8652-1.7587-1.6785-1.7587-1.6785-4.5197-3.3452-4.8672-2.7728-6.0057-2.5541-6.1421-1.8575-5.5217-1.1991-7.1783-1.1857-88.444-0.1718-0.14715 0.49119-0.14716 0.49118-35.915 181.97v0.93814h42.761l0.12468-0.20707zm18.23-81.998 0.13728-0.48316 5.59-33.633 5.59-33.633 35.103 0.23788 4.6935 0.92754 3.8652 1.1436 3.3888 1.5327 3.2373 2.2211 2.8666 2.9494 0.99229 1.6565 0.99225 1.6565 0.64723 2.0706 0.64721 2.0706 0.18914 1.8253 0.18912 1.8253-0.30941 3.4204-0.30938 3.4204-0.40778 2.7609-0.40775 2.7609-0.70193 3.175-0.70189 3.175-1.9217 5.7978-1.2292 2.5953-1.2292 2.5953-2.9984 4.5062-1.8223 1.9683-1.8223 1.9683-4.13 3.1083-2.2728 1.2036-2.2728 1.2036-4.3128 1.7034-6.4546 1.6351-7.6227 1.1182h-27.34zm-145.73-16.65 10.214-51.092 39.204 0.196 4.2347 1.1826 2.1153 1.09 1.7663 1.843 0.5831 1.3202 0.58312 1.3202 0.15582 1.8588 0.15583 1.8587-0.3238 2.4333-0.32382 2.4333-16.263 85.958v0.69021h45.278v-0.1488l8.2034-47.758 8.2034-47.758-0.01-11.043-0.74099-2.7412-0.74097-2.7412-2.4797-5.0972-3.3488-4.4443-3.9794-3.6526-4.4564-2.9815-6.311-3.0275-5.8804-1.9612-6.2674-1.4184-7.1783-1.168-45.419-0.1998 0.13829-0.60648 0.13826-0.60649 8.5944-45.278 0.15149-0.6212 0.15146-0.6212h-43.092l-0.28784 0.9663-35.938 182.22-0.11882 0.34511-0.11882 0.3451h43.193l10.214-51.092z" fill="#8791bc"/>
  <path d="m93.135 275.45 0.12379-0.48315 36.113-182.91 85.32 6e-3 7.4544 0.82065 6.0739 1.1401 4.3596 1.1032 5.8556 1.961 6.7462 3.2059 4.5734 2.9821 2.4848 2.0872 2.4848 2.0872 1.4289 1.6452 1.4289 1.6452 1.5692 2.1851 1.5692 2.1851 1.7546 3.5891 1.7546 3.5891 0.99241 3.313 0.9924 3.313 1.0642 6.2226 0.62796 7.8578-0.36226 8.8348-0.56248 5.2457-0.54948 3.313-0.54949 3.313-1.0838 4.1898-1.0839 4.1898-1.2738 3.5407-1.2738 3.5407-2.0044 4.1413-2.0044 4.1413-3.1846 5.2457-3.7479 5.2456-4.4022 5.2456-6.2866 6.0739-4.6916 3.776-7.4544 4.9756-9.1109 4.5282-6.35 2.3046-4.9696 1.4184-6.6261 1.3269-5.5217 0.61623-49.514-0.0544-0.2968 1.4597-0.29681 1.4597-4.1397 21.811-4.1397 21.811-0.14589 0.6212-0.1459 0.6212h-43.123l0.12379-0.48316zm91.385-81.67 3.1155-0.43133 5.2456-1.1233 5.2456-1.6725 4.6304-2.1383 4.5246-3.0106 3.8959-3.8042 1.6367-2.2075 1.6367-2.2075 1.2977-2.5126 1.2977-2.5126 0.96881-2.5086 0.96882-2.5086 1.6307-6.3246 0.53609-3.1125 0.53609-3.1125 0.33508-3.2917 0.33507-3.2917-0.14943-3.0583-0.14942-3.0583-1.1295-3.189-1.703-3.1951-2.5123-2.8719-3.4885-2.4893-4.6071-2.1452-5.7978-1.4182-5.7183-0.56628h-31.372l-0.15717 0.75924-0.15716 0.75923-11.049 66.39v0.28463h27.038zm212.8 81.684v-0.46907l35.915-181.97 0.14716-0.49119 0.14715-0.49118 88.444 0.1718 7.1783 1.1857 5.5217 1.1991 6.1421 1.8574 6.0057 2.5541 4.8672 2.7728 4.5197 3.3452 3.5174 3.357 1.5845 1.9326 1.5845 1.9326 2.4931 3.8652 1.1072 2.2087 1.1072 2.2087 0.87862 2.4848 0.87865 2.4848 0.65416 2.6228 0.65413 2.6228 0.50077 3.037 0.50074 3.037-4e-3 7.7304-4e-3 7.7304-0.50157 3.7272-0.50156 3.7272-0.54196 2.7609-0.54199 2.7609-0.81683 3.095-0.8168 3.095-2.4099 6.7861-1.2892 2.9235-1.2892 2.9234-1.6688 3.0124-1.6688 3.0124-4.048 6.0739-2.347 2.9174-2.3471 2.9174-6.3798 6.4035-5.954 4.787-5.5477 3.7246-5.6483 3.1981-6.7496 3.0199-8.0065 2.6692-6.6892 1.405-6.563 0.87757-49.991-0.0509-9.013 47.368-0.12471 0.20707-0.12468 0.20706h-42.761v-0.46907zm92.129-81.812 3.8113-0.5591 6.4546-1.6351 4.3128-1.7034 4.5456-2.4071 4.13-3.1083 3.6447-3.9366 2.9984-4.5062 2.4584-5.1905 1.9217-5.7978 0.70189-3.175 0.70193-3.175 0.40775-2.7609 0.40778-2.7609 0.30938-3.4204 0.30941-3.4204-0.18912-1.8253-0.18914-1.8253-0.64721-2.0706-0.64723-2.0706-0.99225-1.6565-0.99229-1.6565-1.4333-1.4747-1.4333-1.4747-3.2373-2.2211-1.6944-0.76633-1.6944-0.76634-3.8652-1.1436-4.6935-0.92754-35.103-0.23788-11.18 67.267-0.13728 0.48316-0.13727 0.48315h27.34zm-230.04 34.173 0.11883-0.34511 35.938-182.22 0.14393-0.48315 0.14392-0.48315h43.092l-0.15146 0.6212-0.15149 0.62119-8.5944 45.278-0.13827 0.60649-0.13829 0.60649 45.419 0.1998 7.1783 1.168 6.2674 1.4184 5.8804 1.9612 6.311 3.0275 2.2282 1.4907 2.2282 1.4907 3.9794 3.6526 1.6744 2.2221 1.6744 2.2221 1.2398 2.5486 1.2398 2.5486 0.74096 2.7412 0.74099 2.7412 0.01 11.043-16.407 95.515v0.1488h-45.278v-0.69021l16.263-85.958 0.32383-2.4333 0.32379-2.4333-0.15582-1.8587-0.15583-1.8588-0.58312-1.3202-0.58309-1.3202-0.88315-0.92147-0.88315-0.92148-2.1153-1.09-4.2347-1.1826-39.204-0.196-10.214 51.092-10.214 51.092h-43.193z" fill="#222430"/>
 </g>
</svg>
