<?xml version="1.0" encoding="UTF-8"?>
<svg width="480" height="480" version="1.1" viewBox="0 0 127 127" xmlns="http://www.w3.org/2000/svg" xmlns:cc="http://creativecommons.org/ns#" xmlns:dc="http://purl.org/dc/elements/1.1/" xmlns:rdf="http://www.w3.org/1999/02/22-rdf-syntax-ns#">
 <metadata>
  <rdf:RDF>
   <cc:Work rdf:about="">
    <dc:format>image/svg+xml</dc:format>
    <dc:type rdf:resource="http://purl.org/dc/dcmitype/StillImage"/>
    <dc:title/>
   </cc:Work>
  </rdf:RDF>
 </metadata>
 <g transform="matrix(.92578 0 0 .92579 -243.13 250.77)" stroke-width=".26458">
  <path d="m263.48-202.28v-67.733h135.47l-0.0728 65.749-0.21645-2.4266-0.21644-2.4266-0.84688-4.9364-0.89006-3.7042-0.89006-3.7042-1.5819-4.0967-1.9911-3.5762-3.3963-3.5314-3.5241-1.8279-2.9104-0.7261h-14.552l-0.14075 8.8635-0.14076 8.8635-0.71237 2.1167-0.71237 2.1167-0.99896 1.7086-0.99896 1.7086-1.8521 1.9641-1.8521 1.9641-1.4552 0.98699-1.4552 0.98698-2.6458 1.3359-3.7042 1.2365-39.423 0.27899-3.8812 1.4178-2.9048 1.7572-2.9418 2.8694-1.0259 1.5873-1.0259 1.5873-1.3173 4.1698v34.842l0.51968 1.6815 0.51967 1.6815 0.78207 1.2326 0.78207 1.2326 1.9997 2.2135 3.202 2.2784 4.2402 2.1327 4.001 1.3431 5.2526 1.3233 5.2917 0.91846 11.642 8e-3 6.7909-1.21 6.4383-1.7706 4.3647-1.8474 4.4684-2.9732 1.2999-1.4584 1.2999-1.4584 1.3827-2.7584 0.40526-1.5769 0.40525-1.5769v-13.647h-32.544v-3.9688l50.403-0.01 3.6949-0.78267 2.6551-1.3064 2.7462-2.4128 2.4862-3.7398 2.239-5.1106 1.9005-5.7062 1.1049-5.1604 0.21561-2.2396 0.2156-2.2396 0.0361 32.61 0.036 32.61h-135.47zm31.008 22.291 0.095-8.9297 1.471-4.2333 1.067-1.8064 1.067-1.8064 1.7304-1.8343 1.7304-1.8343 3.5833-2.3822 1.454-0.64301 1.454-0.643 3.097-0.92364 39.423-0.31057 3.4396-1.1637 3.3928-1.9984 3.2708-3.2895 0.8473-1.5897 0.8473-1.5897 1.1584-3.0561 0.0864-17.198 0.0864-17.198-0.60216-3.175-1.8029-3.7776-2.3704-2.9099-3.3263-2.5004-3.6675-1.8469-4.8013-1.2179-6.8774-0.89064-13.758-0.28371-7.4083 0.61697-5.2917 0.77853-5.5562 1.3544-4.9668 2.3897-2.5298 2.5298-1.3707 2.7049-0.81022 3.3174-0.32458 16.007h32.889v3.9454l-48.286 0.1706-4.2333 1.1841-3.7042 1.7674-3.2757 2.4786-1.0389 1.2462-1.0389 1.2462-1.8227 2.9104-0.6984 1.6411-0.69841 1.6411-0.82226 3.3425-0.82227 3.3425-1.0249 6.9662v8.4667l0.50736 3.4396 0.50736 3.4396 1.5835 6.6148 1.3574 3.6062 1.9222 3.658 1.624 1.7734 1.624 1.7734 3.0978 2.0037 2.9065 1.0874 2.727 0.45559 12.789 0.0618zm16.319-67.684-1.2241-0.37693-1.0933-1.0933-1.0933-1.0933-0.4265-1.4671-0.42649-1.4671 0.6156-2.7508 1.8864-2.2038 2.1921-1.13h3.175l2.1167 1.0998 0.6974 0.75183 0.69739 0.75184 0.42708 0.84675 0.42708 0.84676v3.2224l-1.0401 2.0387-1.0829 0.92696-1.083 0.92696-2.32 0.58419-1.2209-0.0368-1.2241-0.37694zm36.869 100.31-1.132-0.36638-1.8941-1.4447-0.63041-1.3539-0.6304-1.3539-6e-3 -2.4096 1.3944-2.7982 2.0843-1.5098 2.7806-0.62228 1.5208 0.4421 1.5208 0.44211 1.1096 1.1112 1.1096 1.1112 0.65078 2.1781v1.844l-0.30112 0.89938-0.30112 0.89937-1.2678 1.708-2.231 1.3026-1.3229 0.14356-1.3229 0.14355-1.1319-0.36638z" fill="#fefefe"/>
  <path d="m325.13-136.94-1.9844-0.24067-5.5562-1.1003-5.3737-1.5607-3.3576-1.4576-3.2644-1.7673-3.0856-2.4808-2.4608-3.25-0.62167-1.541-0.62167-1.541-0.075-17.859-0.075-17.859 1.3242-4.2582 2.0625-3.1912 2.9418-2.8694 2.9048-1.7572 3.8812-1.4178 39.423-0.27899 1.8521-0.61824 1.8521-0.61823 2.6458-1.3359 2.9104-1.974 3.7042-3.9283 1.9979-3.4172 1.4247-4.2333 0.14076-8.8635 0.14075-8.8635h14.552l2.9104 0.7261 3.5241 1.8279 3.3963 3.5314 2.0264 3.6394 1.7121 4.5627 1.8837 8.2021 0.44611 2.9104 0.44612 2.9104 0.018 9.525-0.9434 5.2917-0.64508 2.249-0.64508 2.249-1.6173 4.4979-2.5773 5.2917-2.415 3.0588-3.2052 2.3595-3.5214 1.1963-51.991 0.1472v3.9538h32.544v13.647l-0.40525 1.5769-0.40526 1.5769-1.3827 2.7584-2.5997 2.9168-4.4684 2.9732-4.3647 1.8474-6.4179 1.765-6.5466 1.1479-10.054 0.1838zm27.442-10.993 1.1155-0.65131 0.63388-0.854 0.63389-0.854 0.30112-0.89937 0.30113-0.89938v-1.844l-0.3254-1.089-0.32539-1.089-2.2192-2.2224-3.0416-0.88421-2.7806 0.62228-2.0843 1.5098-1.3944 2.7982 6e-3 2.4096 0.63041 1.3539 0.6304 1.3539 1.8941 1.4447 2.2639 0.73276 2.6458-0.28711 1.1155-0.6513z" fill="#fecf45"/>
  <path d="m280.24-171.35-1.3635-0.2278-2.9065-1.0874-3.0978-2.0037-3.2479-3.5468-0.96111-1.829-0.9611-1.829-0.67868-1.8031-0.67868-1.8031-1.5835-6.6148-1.0147-6.8792v-8.4667l0.51245-3.4831 0.51245-3.4831 1.6445-6.685 1.3968-3.2822 0.91135-1.4552 0.91135-1.4552 2.0778-2.4925 3.2757-2.4786 3.7042-1.7674 4.2333-1.1841 48.286-0.1706v-3.9454h-32.889l0.32458-16.007 0.81022-3.3174 1.3707-2.7049 2.5298-2.5298 4.9668-2.3897 5.5562-1.3544 5.2917-0.77853 7.4083-0.61697 13.758 0.28371 6.8774 0.89064 4.8013 1.2179 1.8337 0.92345 1.8337 0.92346 3.3263 2.5004 2.3704 2.9099 0.90145 1.8888 0.90144 1.8888 0.60216 3.175-0.0864 17.198-0.0864 17.198-1.1584 3.0561-1.6946 3.1794-3.2708 3.2895-1.6964 0.9992-1.6964 0.99919-3.4396 1.1637-39.423 0.31057-3.097 0.92364-2.9079 1.286-1.7917 1.1911-1.7917 1.1911-3.4608 3.6686-2.134 3.6127-1.471 4.2333-0.095 8.9297-0.0949 8.9297-12.789-0.0618zm34.171-76.202 1.16-0.29209 2.1659-1.8539 0.52004-1.0194 0.52004-1.0194v-3.2224l-0.85416-1.6935-1.3948-1.5037-2.1167-1.0998h-3.175l-2.1921 1.13-0.94321 1.1019-0.94321 1.1019-0.6156 2.7508 0.42649 1.4671 0.4265 1.4671 2.1866 2.1866 1.2241 0.37693 1.2241 0.37694 1.2209 0.0368 1.16-0.29209z" fill="#3570a1"/>
 </g>
</svg>
